BoonJot-400.ufo
<glyph name="exclam" format="1">
  <advance width="330"/>
  <unicode hex="0021"/>
  <outline>
    <contour>
      <point x="136" y="828" type="curve" smooth="yes"/>
      <point x="176" y="835" type="line" smooth="yes"/>
      <point x="179" y="836"/>
      <point x="183" y="836"/>
      <point x="187" y="836" type="curve" smooth="yes"/>
      <point x="202" y="836"/>
      <point x="220" y="830"/>
      <point x="220" y="812" type="curve" smooth="yes"/>
      <point x="220" y="811" type="line" smooth="yes"/>
      <point x="218" y="725"/>
      <point x="222" y="574"/>
      <point x="205" y="303" type="curve" smooth="yes"/>
      <point x="204" y="285"/>
      <point x="176" y="268"/>
      <point x="153" y="268" type="curve" smooth="yes"/>
      <point x="138" y="268"/>
      <point x="126" y="275"/>
      <point x="125" y="295" type="curve" smooth="yes"/>
      <point x="117" y="433"/>
      <point x="111" y="709"/>
      <point x="101" y="794" type="curve" smooth="yes"/>
      <point x="101" y="795"/>
      <point x="101" y="795"/>
      <point x="101" y="796" type="curve" smooth="yes"/>
      <point x="101" y="811"/>
      <point x="118" y="825"/>
    </contour>
    <component base="period"/>
  </outline>
</glyph>
<glyph name="numbersign" format="1">
  <advance width="720"/>
  <unicode hex="0023"/>
  <outline>
    <contour>
      <point x="305" y="829" type="curve" smooth="yes"/>
      <point x="325" y="829"/>
      <point x="339" y="819"/>
      <point x="339" y="804" type="curve" smooth="yes"/>
      <point x="339" y="803"/>
      <point x="339" y="802"/>
      <point x="339" y="801" type="curve" smooth="yes"/>
      <point x="326" y="718"/>
      <point x="313" y="644"/>
      <point x="301" y="574" type="curve"/>
      <point x="365" y="573"/>
      <point x="427" y="573"/>
      <point x="492" y="573" type="curve"/>
      <point x="505" y="646"/>
      <point x="517" y="723"/>
      <point x="531" y="809" type="curve" smooth="yes"/>
      <point x="533" y="825"/>
      <point x="554" y="839"/>
      <point x="575" y="839" type="curve" smooth="yes"/>
      <point x="595" y="839"/>
      <point x="609" y="829"/>
      <point x="609" y="814" type="curve" smooth="yes"/>
      <point x="609" y="813"/>
      <point x="609" y="812"/>
      <point x="609" y="811" type="curve" smooth="yes"/>
      <point x="595" y="724"/>
      <point x="583" y="647"/>
      <point x="570" y="574" type="curve"/>
      <point x="600" y="574"/>
      <point x="632" y="574"/>
      <point x="666" y="574" type="curve" smooth="yes"/>
      <point x="685" y="574"/>
      <point x="699" y="563"/>
      <point x="699" y="549" type="curve" smooth="yes"/>
      <point x="699" y="548"/>
      <point x="699" y="546"/>
      <point x="699" y="545" type="curve" smooth="yes"/>
      <point x="696" y="529"/>
      <point x="675" y="516"/>
      <point x="654" y="516" type="curve" smooth="yes"/>
      <point x="621" y="516"/>
      <point x="589" y="516"/>
      <point x="559" y="516" type="curve"/>
      <point x="546" y="441"/>
      <point x="532" y="369"/>
      <point x="517" y="294" type="curve"/>
      <point x="551" y="294"/>
      <point x="587" y="294"/>
      <point x="626" y="294" type="curve" smooth="yes"/>
      <point x="645" y="294"/>
      <point x="659" y="283"/>
      <point x="659" y="269" type="curve" smooth="yes"/>
      <point x="659" y="268"/>
      <point x="659" y="266"/>
      <point x="659" y="265" type="curve" smooth="yes"/>
      <point x="656" y="249"/>
      <point x="635" y="236"/>
      <point x="614" y="236" type="curve" smooth="yes"/>
      <point x="575" y="236"/>
      <point x="540" y="236"/>
      <point x="506" y="236" type="curve"/>
      <point x="492" y="166"/>
      <point x="476" y="92"/>
      <point x="459" y="10" type="curve" smooth="yes"/>
      <point x="456" y="-6"/>
      <point x="435" y="-19"/>
      <point x="414" y="-19" type="curve" smooth="yes"/>
      <point x="395" y="-19"/>
      <point x="381" y="-8"/>
      <point x="381" y="6" type="curve" smooth="yes"/>
      <point x="381" y="7"/>
      <point x="381" y="9"/>
      <point x="381" y="10" type="curve" smooth="yes"/>
      <point x="398" y="92"/>
      <point x="414" y="166"/>
      <point x="428" y="235" type="curve"/>
      <point x="363" y="235"/>
      <point x="303" y="235"/>
      <point x="238" y="236" type="curve"/>
      <point x="223" y="163"/>
      <point x="207" y="87"/>
      <point x="189" y="-0" type="curve" smooth="yes"/>
      <point x="186" y="-16"/>
      <point x="165" y="-29"/>
      <point x="144" y="-29" type="curve" smooth="yes"/>
      <point x="125" y="-29"/>
      <point x="111" y="-18"/>
      <point x="111" y="-4" type="curve" smooth="yes"/>
      <point x="111" y="-3"/>
      <point x="111" y="-1"/>
      <point x="111" y="0" type="curve" smooth="yes"/>
      <point x="129" y="87"/>
      <point x="145" y="165"/>
      <point x="160" y="238" type="curve"/>
      <point x="126" y="239"/>
      <point x="91" y="240"/>
      <point x="52" y="241" type="curve" smooth="yes"/>
      <point x="33" y="242"/>
      <point x="20" y="253"/>
      <point x="20" y="266" type="curve" smooth="yes"/>
      <point x="20" y="268"/>
      <point x="21" y="269"/>
      <point x="21" y="271" type="curve" smooth="yes"/>
      <point x="25" y="286"/>
      <point x="46" y="299"/>
      <point x="66" y="299" type="curve" smooth="yes"/>
      <point x="67" y="299"/>
      <point x="67" y="299"/>
      <point x="68" y="299" type="curve" smooth="yes"/>
      <point x="105" y="298"/>
      <point x="139" y="297"/>
      <point x="172" y="296" type="curve"/>
      <point x="187" y="371"/>
      <point x="201" y="443"/>
      <point x="214" y="518" type="curve"/>
      <point x="176" y="519"/>
      <point x="136" y="520"/>
      <point x="92" y="521" type="curve" smooth="yes"/>
      <point x="73" y="522"/>
      <point x="60" y="533"/>
      <point x="60" y="546" type="curve" smooth="yes"/>
      <point x="60" y="548"/>
      <point x="61" y="549"/>
      <point x="61" y="551" type="curve" smooth="yes"/>
      <point x="65" y="566"/>
      <point x="86" y="579"/>
      <point x="106" y="579" type="curve" smooth="yes"/>
      <point x="107" y="579"/>
      <point x="107" y="579"/>
      <point x="108" y="579" type="curve" smooth="yes"/>
      <point x="150" y="578"/>
      <point x="188" y="577"/>
      <point x="224" y="576" type="curve"/>
      <point x="236" y="645"/>
      <point x="248" y="718"/>
      <point x="261" y="799" type="curve" smooth="yes"/>
      <point x="263" y="815"/>
      <point x="284" y="829"/>
    </contour>
    <contour>
      <point x="291" y="516" type="curve"/>
      <point x="278" y="441"/>
      <point x="265" y="370"/>
      <point x="250" y="295" type="curve"/>
      <point x="315" y="294"/>
      <point x="374" y="293"/>
      <point x="439" y="293" type="curve"/>
      <point x="454" y="368"/>
      <point x="469" y="440"/>
      <point x="482" y="515" type="curve"/>
      <point x="417" y="515"/>
      <point x="355" y="515"/>
    </contour>
  </outline>
</glyph>
<glyph name="quotesingle" format="1">
  <advance width="330"/>
  <unicode hex="0027"/>
  <outline>
    <contour>
      <point x="158" y="841" type="curve" smooth="yes"/>
      <point x="179" y="842" type="line" smooth="yes"/>
      <point x="180" y="842"/>
      <point x="180" y="842"/>
      <point x="181" y="842" type="curve" smooth="yes"/>
      <point x="205" y="842"/>
      <point x="219" y="828"/>
      <point x="219" y="814" type="curve" smooth="yes"/>
      <point x="218" y="726"/>
      <point x="215" y="616"/>
      <point x="209" y="581" type="curve" smooth="yes"/>
      <point x="206" y="564"/>
      <point x="175" y="544"/>
      <point x="151" y="544" type="curve" smooth="yes"/>
      <point x="136" y="544"/>
      <point x="123" y="551"/>
      <point x="121" y="573" type="curve" smooth="yes"/>
      <point x="117" y="614"/>
      <point x="115" y="716"/>
      <point x="110" y="803" type="curve" smooth="yes"/>
      <point x="110" y="804"/>
      <point x="110" y="804"/>
      <point x="110" y="805" type="curve" smooth="yes"/>
      <point x="110" y="818"/>
      <point x="121" y="839"/>
    </contour>
  </outline>
</glyph>
<glyph name="parenright" format="1">
  <advance width="360"/>
  <unicode hex="0029"/>
  <outline>
    <contour>
      <point x="98" y="885" type="curve" smooth="yes"/>
      <point x="107" y="890"/>
      <point x="116" y="892"/>
      <point x="125" y="892" type="curve" smooth="yes"/>
      <point x="136" y="892"/>
      <point x="146" y="888"/>
      <point x="153" y="880" type="curve" smooth="yes"/>
      <point x="211" y="815"/>
      <point x="305" y="631"/>
      <point x="305" y="365" type="curve" smooth="yes"/>
      <point x="305" y="163"/>
      <point x="244" y="11"/>
      <point x="151" y="-94" type="curve" smooth="yes"/>
      <point x="141" y="-105"/>
      <point x="126" y="-112"/>
      <point x="111" y="-112" type="curve" smooth="yes"/>
      <point x="105" y="-112"/>
      <point x="100" y="-111"/>
      <point x="94" y="-109" type="curve" smooth="yes"/>
      <point x="83" y="-105"/>
      <point x="79" y="-97"/>
      <point x="79" y="-89" type="curve" smooth="yes"/>
      <point x="79" y="-82"/>
      <point x="82" y="-74"/>
      <point x="89" y="-66" type="curve" smooth="yes"/>
      <point x="166" y="21"/>
      <point x="215" y="161"/>
      <point x="215" y="355" type="curve" smooth="yes"/>
      <point x="215" y="611"/>
      <point x="133" y="789"/>
      <point x="87" y="840" type="curve" smooth="yes"/>
      <point x="82" y="846"/>
      <point x="80" y="852"/>
      <point x="80" y="859" type="curve" smooth="yes"/>
      <point x="80" y="869"/>
      <point x="85" y="878"/>
    </contour>
  </outline>
</glyph>
<glyph name="asterisk" format="1">
  <advance width="600"/>
  <unicode hex="002A"/>
  <outline>
    <contour>
      <point x="293" y="848" type="curve" smooth="yes"/>
      <point x="296" y="848"/>
      <point x="299" y="849"/>
      <point x="301" y="849" type="curve" smooth="yes"/>
      <point x="319" y="849"/>
      <point x="333" y="839"/>
      <point x="334" y="826" type="curve" smooth="yes"/>
      <point x="335" y="809"/>
      <point x="336" y="792"/>
      <point x="336" y="775" type="curve" smooth="yes"/>
      <point x="336" y="739"/>
      <point x="334" y="702"/>
      <point x="333" y="664" type="curve"/>
      <point x="372" y="690"/>
      <point x="410" y="718"/>
      <point x="446" y="743" type="curve" smooth="yes"/>
      <point x="455" y="749"/>
      <point x="466" y="752"/>
      <point x="477" y="752" type="curve" smooth="yes"/>
      <point x="487" y="752"/>
      <point x="495" y="750"/>
      <point x="502" y="745" type="curve" smooth="yes"/>
      <point x="508" y="741"/>
      <point x="511" y="735"/>
      <point x="511" y="729" type="curve" smooth="yes"/>
      <point x="511" y="721"/>
      <point x="506" y="712"/>
      <point x="496" y="705" type="curve" smooth="yes"/>
      <point x="454" y="676"/>
      <point x="406" y="650"/>
      <point x="358" y="623" type="curve"/>
      <point x="408" y="597"/>
      <point x="458" y="573"/>
      <point x="503" y="547" type="curve" smooth="yes"/>
      <point x="511" y="542"/>
      <point x="516" y="535"/>
      <point x="516" y="527" type="curve" smooth="yes"/>
      <point x="516" y="520"/>
      <point x="512" y="513"/>
      <point x="505" y="507" type="curve" smooth="yes"/>
      <point x="496" y="499"/>
      <point x="484" y="495"/>
      <point x="472" y="495" type="curve" smooth="yes"/>
      <point x="464" y="495"/>
      <point x="456" y="497"/>
      <point x="449" y="501" type="curve" smooth="yes"/>
      <point x="411" y="523"/>
      <point x="374" y="547"/>
      <point x="335" y="571" type="curve"/>
      <point x="339" y="520"/>
      <point x="345" y="471"/>
      <point x="345" y="424" type="curve" smooth="yes"/>
      <point x="345" y="409"/>
      <point x="327" y="394"/>
      <point x="305" y="392" type="curve" smooth="yes"/>
      <point x="303" y="392"/>
      <point x="302" y="392"/>
      <point x="300" y="392" type="curve" smooth="yes"/>
      <point x="280" y="392"/>
      <point x="265" y="402"/>
      <point x="265" y="416" type="curve" smooth="yes"/>
      <point x="265" y="466"/>
      <point x="270" y="518"/>
      <point x="272" y="572" type="curve"/>
      <point x="230" y="545"/>
      <point x="191" y="518"/>
      <point x="151" y="495" type="curve" smooth="yes"/>
      <point x="142" y="490"/>
      <point x="133" y="488"/>
      <point x="123" y="488" type="curve" smooth="yes"/>
      <point x="112" y="488"/>
      <point x="102" y="491"/>
      <point x="96" y="497" type="curve" smooth="yes"/>
      <point x="92" y="501"/>
      <point x="89" y="507"/>
      <point x="89" y="512" type="curve" smooth="yes"/>
      <point x="89" y="521"/>
      <point x="96" y="531"/>
      <point x="107" y="537" type="curve" smooth="yes"/>
      <point x="153" y="564"/>
      <point x="206" y="589"/>
      <point x="257" y="617" type="curve"/>
      <point x="204" y="645"/>
      <point x="148" y="667"/>
      <point x="99" y="691" type="curve" smooth="yes"/>
      <point x="89" y="696"/>
      <point x="84" y="703"/>
      <point x="84" y="712" type="curve" smooth="yes"/>
      <point x="84" y="718"/>
      <point x="87" y="725"/>
      <point x="93" y="731" type="curve" smooth="yes"/>
      <point x="102" y="740"/>
      <point x="116" y="745"/>
      <point x="130" y="745" type="curve" smooth="yes"/>
      <point x="137" y="745"/>
      <point x="143" y="744"/>
      <point x="149" y="741" type="curve" smooth="yes"/>
      <point x="190" y="722"/>
      <point x="229" y="698"/>
      <point x="270" y="673" type="curve"/>
      <point x="266" y="722"/>
      <point x="260" y="769"/>
      <point x="256" y="814" type="curve" smooth="yes"/>
      <point x="256" y="815" type="line" smooth="yes"/>
      <point x="256" y="830"/>
      <point x="272" y="845"/>
    </contour>
  </outline>
</glyph>
<glyph name="plus" format="1">
  <advance width="600"/>
  <unicode hex="002B"/>
  <outline>
    <contour>
      <point x="81" y="349" type="curve" smooth="yes"/>
      <point x="86" y="367"/>
      <point x="107" y="380"/>
      <point x="130" y="380" type="curve" smooth="yes"/>
      <point x="132" y="380"/>
      <point x="133" y="380"/>
      <point x="135" y="380" type="curve" smooth="yes"/>
      <point x="170" y="377"/>
      <point x="211" y="374"/>
      <point x="257" y="373" type="curve"/>
      <point x="256" y="417"/>
      <point x="253" y="457"/>
      <point x="250" y="494" type="curve" smooth="yes"/>
      <point x="250" y="495"/>
      <point x="250" y="496"/>
      <point x="250" y="497" type="curve" smooth="yes"/>
      <point x="250" y="515"/>
      <point x="269" y="532"/>
      <point x="292" y="535" type="curve" smooth="yes"/>
      <point x="294" y="535"/>
      <point x="297" y="535"/>
      <point x="299" y="535" type="curve" smooth="yes"/>
      <point x="320" y="535"/>
      <point x="338" y="523"/>
      <point x="340" y="506" type="curve" smooth="yes"/>
      <point x="344" y="465"/>
      <point x="346" y="420"/>
      <point x="347" y="372" type="curve"/>
      <point x="388" y="372"/>
      <point x="432" y="373"/>
      <point x="478" y="375" type="curve" smooth="yes"/>
      <point x="479" y="375"/>
      <point x="479" y="375"/>
      <point x="480" y="375" type="curve" smooth="yes"/>
      <point x="502" y="375"/>
      <point x="520" y="361"/>
      <point x="520" y="343" type="curve" smooth="yes"/>
      <point x="520" y="342" type="line" smooth="yes"/>
      <point x="519" y="323"/>
      <point x="496" y="306"/>
      <point x="472" y="305" type="curve" smooth="yes"/>
      <point x="429" y="303"/>
      <point x="388" y="302"/>
      <point x="349" y="302" type="curve"/>
      <point x="350" y="264"/>
      <point x="350" y="225"/>
      <point x="350" y="184" type="curve" smooth="yes"/>
      <point x="350" y="165"/>
      <point x="329" y="147"/>
      <point x="305" y="145" type="curve" smooth="yes"/>
      <point x="303" y="145"/>
      <point x="302" y="145"/>
      <point x="300" y="145" type="curve" smooth="yes"/>
      <point x="278" y="145"/>
      <point x="260" y="158"/>
      <point x="260" y="176" type="curve" smooth="yes"/>
      <point x="260" y="220"/>
      <point x="260" y="263"/>
      <point x="259" y="303" type="curve"/>
      <point x="205" y="304"/>
      <point x="157" y="306"/>
      <point x="115" y="310" type="curve" smooth="yes"/>
      <point x="94" y="312"/>
      <point x="80" y="326"/>
      <point x="80" y="342" type="curve" smooth="yes"/>
      <point x="80" y="344"/>
      <point x="80" y="347"/>
    </contour>
  </outline>
</glyph>
<glyph name="three" format="1">
  <advance width="720"/>
  <unicode hex="0033"/>
  <outline>
    <contour>
      <point x="103" y="633" type="curve" smooth="yes"/>
      <point x="86" y="638"/>
      <point x="76" y="651"/>
      <point x="76" y="664" type="curve" smooth="yes"/>
      <point x="76" y="671"/>
      <point x="78" y="677"/>
      <point x="83" y="684" type="curve" smooth="yes"/>
      <point x="138" y="760"/>
      <point x="234" y="808"/>
      <point x="329" y="818" type="curve" smooth="yes"/>
      <point x="342" y="819"/>
      <point x="354" y="820"/>
      <point x="366" y="820" type="curve" smooth="yes"/>
      <point x="493" y="820"/>
      <point x="599" y="749"/>
      <point x="599" y="616" type="curve" smooth="yes"/>
      <point x="599" y="535"/>
      <point x="547" y="473"/>
      <point x="488" y="436" type="curve"/>
      <point x="576" y="418"/>
      <point x="654" y="352"/>
      <point x="654" y="236" type="curve" smooth="yes"/>
      <point x="654" y="126"/>
      <point x="598" y="44"/>
      <point x="504" y="3" type="curve" smooth="yes"/>
      <point x="457" y="-18"/>
      <point x="406" y="-27"/>
      <point x="355" y="-27" type="curve" smooth="yes"/>
      <point x="238" y="-27"/>
      <point x="124" y="23"/>
      <point x="71" y="98" type="curve" smooth="yes"/>
      <point x="67" y="103"/>
      <point x="66" y="108"/>
      <point x="66" y="114" type="curve" smooth="yes"/>
      <point x="66" y="129"/>
      <point x="77" y="144"/>
      <point x="97" y="153" type="curve" smooth="yes"/>
      <point x="107" y="157"/>
      <point x="118" y="160"/>
      <point x="128" y="160" type="curve" smooth="yes"/>
      <point x="145" y="160"/>
      <point x="161" y="153"/>
      <point x="169" y="142" type="curve" smooth="yes"/>
      <point x="210" y="84"/>
      <point x="297" y="54"/>
      <point x="374" y="54" type="curve" smooth="yes"/>
      <point x="405" y="54"/>
      <point x="434" y="59"/>
      <point x="458" y="69" type="curve" smooth="yes"/>
      <point x="502" y="88"/>
      <point x="546" y="131"/>
      <point x="546" y="224" type="curve" smooth="yes"/>
      <point x="546" y="347"/>
      <point x="461" y="372"/>
      <point x="376" y="372" type="curve" smooth="yes"/>
      <point x="346" y="372"/>
      <point x="316" y="369"/>
      <point x="290" y="366" type="curve" smooth="yes"/>
      <point x="268" y="364"/>
      <point x="252" y="361"/>
      <point x="232" y="361" type="curve" smooth="yes"/>
      <point x="210" y="361"/>
      <point x="203" y="370"/>
      <point x="203" y="382" type="curve" smooth="yes"/>
      <point x="203" y="405"/>
      <point x="229" y="437"/>
      <point x="229" y="437" type="curve" smooth="yes"/>
      <point x="306" y="457"/>
      <point x="491" y="446"/>
      <point x="491" y="604" type="curve" smooth="yes"/>
      <point x="491" y="705"/>
      <point x="421" y="741"/>
      <point x="351" y="741" type="curve" smooth="yes"/>
      <point x="344" y="741"/>
      <point x="336" y="741"/>
      <point x="329" y="740" type="curve" smooth="yes"/>
      <point x="274" y="734"/>
      <point x="214" y="707"/>
      <point x="177" y="656" type="curve" smooth="yes"/>
      <point x="165" y="640"/>
      <point x="143" y="630"/>
      <point x="121" y="630" type="curve" smooth="yes"/>
      <point x="115" y="630"/>
      <point x="109" y="631"/>
    </contour>
  </outline>
</glyph>
<glyph name="equal" format="1">
  <advance width="600"/>
  <unicode hex="003D"/>
  <outline>
    <contour>
      <point x="77" y="249" type="curve" smooth="yes"/>
      <point x="84" y="267"/>
      <point x="108" y="281"/>
      <point x="133" y="281" type="curve" smooth="yes"/>
      <point x="138" y="281" type="line"/>
      <point x="191" y="276"/>
      <point x="259" y="273"/>
      <point x="337" y="273" type="curve" smooth="yes"/>
      <point x="382" y="273"/>
      <point x="430" y="274"/>
      <point x="480" y="276" type="curve" smooth="yes"/>
      <point x="482" y="276" type="line" smooth="yes"/>
      <point x="506" y="276"/>
      <point x="524" y="263"/>
      <point x="524" y="246" type="curve" smooth="yes"/>
      <point x="524" y="242" type="line" smooth="yes"/>
      <point x="521" y="223"/>
      <point x="497" y="205"/>
      <point x="470" y="204" type="curve" smooth="yes"/>
      <point x="418" y="202"/>
      <point x="369" y="201"/>
      <point x="322" y="201" type="curve" smooth="yes"/>
      <point x="242" y="201"/>
      <point x="170" y="204"/>
      <point x="112" y="209" type="curve" smooth="yes"/>
      <point x="90" y="211"/>
      <point x="75" y="224"/>
      <point x="75" y="240" type="curve" smooth="yes"/>
      <point x="75" y="243"/>
      <point x="76" y="246"/>
    </contour>
    <contour>
      <point x="77" y="449" type="curve" smooth="yes"/>
      <point x="84" y="467"/>
      <point x="108" y="481"/>
      <point x="133" y="481" type="curve" smooth="yes"/>
      <point x="138" y="481" type="line"/>
      <point x="191" y="476"/>
      <point x="259" y="473"/>
      <point x="337" y="473" type="curve" smooth="yes"/>
      <point x="382" y="473"/>
      <point x="430" y="474"/>
      <point x="480" y="476" type="curve" smooth="yes"/>
      <point x="482" y="476" type="line" smooth="yes"/>
      <point x="506" y="476"/>
      <point x="524" y="463"/>
      <point x="524" y="446" type="curve" smooth="yes"/>
      <point x="524" y="442" type="line" smooth="yes"/>
      <point x="521" y="423"/>
      <point x="497" y="405"/>
      <point x="470" y="404" type="curve" smooth="yes"/>
      <point x="418" y="402"/>
      <point x="369" y="401"/>
      <point x="322" y="401" type="curve" smooth="yes"/>
      <point x="242" y="401"/>
      <point x="170" y="404"/>
      <point x="112" y="409" type="curve" smooth="yes"/>
      <point x="90" y="411"/>
      <point x="75" y="424"/>
      <point x="75" y="440" type="curve" smooth="yes"/>
      <point x="75" y="443"/>
      <point x="76" y="446"/>
    </contour>
  </outline>
</glyph>
<glyph name="question" format="1">
  <advance width="480"/>
  <unicode hex="003F"/>
  <outline>
    <contour>
      <point x="229" y="258" type="curve" smooth="yes"/>
      <point x="222" y="256"/>
      <point x="215" y="255"/>
      <point x="209" y="255" type="curve" smooth="yes"/>
      <point x="194" y="255"/>
      <point x="184" y="262"/>
      <point x="178" y="275" type="curve" smooth="yes"/>
      <point x="166" y="303"/>
      <point x="161" y="328"/>
      <point x="161" y="351" type="curve" smooth="yes"/>
      <point x="161" y="492"/>
      <point x="351" y="559"/>
      <point x="351" y="665" type="curve" smooth="yes"/>
      <point x="351" y="693"/>
      <point x="344" y="715"/>
      <point x="334" y="732" type="curve" smooth="yes"/>
      <point x="312" y="769"/>
      <point x="271" y="784"/>
      <point x="230" y="784" type="curve" smooth="yes"/>
      <point x="208" y="784"/>
      <point x="187" y="780"/>
      <point x="168" y="773" type="curve" smooth="yes"/>
      <point x="137" y="760"/>
      <point x="108" y="738"/>
      <point x="108" y="702" type="curve" smooth="yes"/>
      <point x="108" y="687"/>
      <point x="114" y="669"/>
      <point x="126" y="648" type="curve" smooth="yes"/>
      <point x="128" y="644"/>
      <point x="130" y="639"/>
      <point x="130" y="635" type="curve" smooth="yes"/>
      <point x="130" y="621"/>
      <point x="118" y="607"/>
      <point x="99" y="599" type="curve" smooth="yes"/>
      <point x="91" y="596"/>
      <point x="82" y="594"/>
      <point x="74" y="594" type="curve" smooth="yes"/>
      <point x="57" y="594"/>
      <point x="41" y="601"/>
      <point x="34" y="612" type="curve" smooth="yes"/>
      <point x="18" y="638"/>
      <point x="11" y="664"/>
      <point x="11" y="689" type="curve" smooth="yes"/>
      <point x="11" y="753"/>
      <point x="60" y="807"/>
      <point x="131" y="835" type="curve" smooth="yes"/>
      <point x="166" y="849"/>
      <point x="205" y="856"/>
      <point x="243" y="856" type="curve" smooth="yes"/>
      <point x="318" y="856"/>
      <point x="390" y="828"/>
      <point x="426" y="768" type="curve" smooth="yes"/>
      <point x="441" y="742"/>
      <point x="449" y="711"/>
      <point x="449" y="675" type="curve" smooth="yes"/>
      <point x="449" y="503"/>
      <point x="251" y="466"/>
      <point x="251" y="354" type="curve" smooth="yes"/>
      <point x="251" y="339"/>
      <point x="254" y="323"/>
      <point x="262" y="305" type="curve" smooth="yes"/>
      <point x="263" y="302"/>
      <point x="264" y="298"/>
      <point x="264" y="295" type="curve" smooth="yes"/>
      <point x="264" y="280"/>
      <point x="250" y="265"/>
    </contour>
    <component base="period" xOffset="70"/>
  </outline>
</glyph>
<glyph name="at" format="1">
  <advance width="1020"/>
  <unicode hex="0040"/>
  <outline>
    <contour>
      <point x="690" y="345" type="curve"/>
      <point x="685" y="301"/>
      <point x="680" y="251"/>
      <point x="680" y="220" type="curve" smooth="yes"/>
      <point x="680" y="146"/>
      <point x="692" y="107"/>
      <point x="705" y="99" type="curve" smooth="yes"/>
      <point x="707" y="100"/>
      <point x="712" y="102"/>
      <point x="719" y="106" type="curve" smooth="yes"/>
      <point x="814" y="165"/>
      <point x="865" y="279"/>
      <point x="865" y="393" type="curve" smooth="yes"/>
      <point x="865" y="485"/>
      <point x="832" y="576"/>
      <point x="762" y="638" type="curve" smooth="yes"/>
      <point x="710" y="684"/>
      <point x="641" y="711"/>
      <point x="552" y="711" type="curve" smooth="yes"/>
      <point x="352" y="711"/>
      <point x="205" y="547"/>
      <point x="164" y="346" type="curve" smooth="yes"/>
      <point x="157" y="311"/>
      <point x="153" y="276"/>
      <point x="153" y="242" type="curve" smooth="yes"/>
      <point x="153" y="48"/>
      <point x="268" y="-121"/>
      <point x="508" y="-121" type="curve" smooth="yes"/>
      <point x="571" y="-121"/>
      <point x="650" y="-88"/>
      <point x="674" y="-74" type="curve" smooth="yes"/>
      <point x="683" y="-69"/>
      <point x="692" y="-66"/>
      <point x="702" y="-66" type="curve" smooth="yes"/>
      <point x="713" y="-66"/>
      <point x="723" y="-69"/>
      <point x="729" y="-75" type="curve" smooth="yes"/>
      <point x="733" y="-79"/>
      <point x="736" y="-85"/>
      <point x="736" y="-90" type="curve" smooth="yes"/>
      <point x="736" y="-99"/>
      <point x="729" y="-109"/>
      <point x="718" y="-116" type="curve" smooth="yes"/>
      <point x="682" y="-138"/>
      <point x="591" y="-179"/>
      <point x="496" y="-179" type="curve" smooth="yes"/>
      <point x="196" y="-179"/>
      <point x="74" y="25"/>
      <point x="74" y="235" type="curve" smooth="yes"/>
      <point x="74" y="272"/>
      <point x="78" y="310"/>
      <point x="85" y="346" type="curve" smooth="yes"/>
      <point x="127" y="553"/>
      <point x="291" y="769"/>
      <point x="564" y="769" type="curve" smooth="yes"/>
      <point x="677" y="769"/>
      <point x="765" y="733"/>
      <point x="826" y="678" type="curve" smooth="yes"/>
      <point x="905" y="607"/>
      <point x="945" y="504"/>
      <point x="945" y="398" type="curve" smooth="yes"/>
      <point x="945" y="270"/>
      <point x="886" y="139"/>
      <point x="765" y="64" type="curve" smooth="yes"/>
      <point x="746" y="52"/>
      <point x="723" y="43"/>
      <point x="698" y="41" type="curve" smooth="yes"/>
      <point x="692" y="41" type="line" smooth="yes"/>
      <point x="640" y="41"/>
      <point x="620" y="90"/>
      <point x="615" y="159" type="curve"/>
      <point x="587" y="93"/>
      <point x="543" y="38"/>
      <point x="465" y="38" type="curve" smooth="yes"/>
      <point x="336" y="38"/>
      <point x="293" y="129"/>
      <point x="293" y="222" type="curve" smooth="yes"/>
      <point x="293" y="245"/>
      <point x="295" y="268"/>
      <point x="300" y="290" type="curve" smooth="yes"/>
      <point x="324" y="405"/>
      <point x="415" y="554"/>
      <point x="585" y="554" type="curve" smooth="yes"/>
      <point x="701" y="554"/>
      <point x="712" y="456"/>
      <point x="712" y="436" type="curve" smooth="yes"/>
      <point x="712" y="419"/>
      <point x="691" y="402"/>
      <point x="667" y="399" type="curve" smooth="yes"/>
      <point x="660" y="399" type="line" smooth="yes"/>
      <point x="639" y="399"/>
      <point x="622" y="411"/>
      <point x="622" y="426" type="curve" smooth="yes"/>
      <point x="622" y="446"/>
      <point x="601" y="490"/>
      <point x="571" y="490" type="curve" smooth="yes"/>
      <point x="492" y="490"/>
      <point x="411" y="405"/>
      <point x="388" y="290" type="curve" smooth="yes"/>
      <point x="384" y="270"/>
      <point x="382" y="251"/>
      <point x="382" y="234" type="curve" smooth="yes"/>
      <point x="382" y="154"/>
      <point x="422" y="102"/>
      <point x="479" y="102" type="curve" smooth="yes"/>
      <point x="525" y="102"/>
      <point x="570" y="196"/>
      <point x="603" y="331" type="curve" smooth="yes"/>
      <point x="607" y="348"/>
      <point x="620" y="362"/>
      <point x="643" y="362" type="curve" smooth="yes"/>
      <point x="661" y="362"/>
      <point x="690" y="345"/>
    </contour>
  </outline>
</glyph>
<glyph name="A" format="1">
  <advance width="810"/>
  <unicode hex="0041"/>
  <outline>
    <contour>
      <point x="700" y="0" type="move" name="LatinOgonek.mark"/>
    </contour>
    <contour>
      <point x="405" y="0" type="move" name="LatinBelow.mark"/>
    </contour>
    <contour>
      <point x="405" y="180" type="move" name="LatinAbove.mark"/>
    </contour>
    <contour>
      <point x="232" y="196" type="curve"/>
      <point x="199" y="124"/>
      <point x="167" y="60"/>
      <point x="137" y="11" type="curve" smooth="yes"/>
      <point x="128" y="-5"/>
      <point x="104" y="-16"/>
      <point x="81" y="-16" type="curve" smooth="yes"/>
      <point x="77" y="-16"/>
      <point x="73" y="-16"/>
      <point x="69" y="-15" type="curve" smooth="yes"/>
      <point x="50" y="-11"/>
      <point x="39" y="0"/>
      <point x="39" y="14" type="curve" smooth="yes"/>
      <point x="39" y="19"/>
      <point x="40" y="24"/>
      <point x="43" y="29" type="curve" smooth="yes"/>
      <point x="67" y="69"/>
      <point x="95" y="124"/>
      <point x="124" y="185" type="curve"/>
      <point x="111" y="183"/>
      <point x="98" y="182"/>
      <point x="88" y="180" type="curve" smooth="yes"/>
      <point x="84" y="179"/>
      <point x="80" y="179"/>
      <point x="76" y="179" type="curve" smooth="yes"/>
      <point x="53" y="179"/>
      <point x="35" y="191"/>
      <point x="33" y="207" type="curve" smooth="yes"/>
      <point x="33" y="209" type="line" smooth="yes"/>
      <point x="33" y="227"/>
      <point x="55" y="245"/>
      <point x="82" y="250" type="curve" smooth="yes"/>
      <point x="103" y="253"/>
      <point x="129" y="257"/>
      <point x="158" y="260" type="curve"/>
      <point x="239" y="444"/>
      <point x="321" y="662"/>
      <point x="360" y="774" type="curve" smooth="yes"/>
      <point x="362" y="779"/>
      <point x="364" y="784"/>
      <point x="365" y="788" type="curve" smooth="yes"/>
      <point x="373" y="812"/>
      <point x="390" y="820"/>
      <point x="408" y="820" type="curve" smooth="yes"/>
      <point x="435" y="820"/>
      <point x="464" y="802"/>
      <point x="464" y="802" type="curve"/>
      <point x="609" y="532"/>
      <point x="730" y="186"/>
      <point x="767" y="64" type="curve" smooth="yes"/>
      <point x="768" y="60"/>
      <point x="770" y="57"/>
      <point x="771" y="53" type="curve" smooth="yes"/>
      <point x="772" y="49"/>
      <point x="773" y="45"/>
      <point x="773" y="41" type="curve" smooth="yes"/>
      <point x="773" y="15"/>
      <point x="744" y="3"/>
      <point x="717" y="3" type="curve" smooth="yes"/>
      <point x="697" y="3"/>
      <point x="677" y="10"/>
      <point x="670" y="24" type="curve" smooth="yes"/>
      <point x="624" y="119"/>
      <point x="631" y="209"/>
      <point x="481" y="209" type="curve" smooth="yes"/>
      <point x="428" y="209"/>
      <point x="324" y="204"/>
    </contour>
    <contour>
      <point x="265" y="269" type="curve"/>
      <point x="353" y="276"/>
      <point x="444" y="281"/>
      <point x="499" y="281" type="curve" smooth="yes"/>
      <point x="531" y="281"/>
      <point x="561" y="277"/>
      <point x="585" y="272" type="curve"/>
      <point x="541" y="389"/>
      <point x="483" y="529"/>
      <point x="421" y="659" type="curve"/>
      <point x="379" y="547"/>
      <point x="323" y="401"/>
    </contour>
  </outline>
</glyph>
<glyph name="C" format="1">
  <advance width="750"/>
  <unicode hex="0043"/>
  <outline>
    <contour>
      <point x="450" y="0" type="move" name="LatinCedilla.mark"/>
    </contour>
    <contour>
      <point x="405" y="0" type="move" name="LatinBelow.mark"/>
    </contour>
    <contour>
      <point x="405" y="180" type="move" name="LatinAbove.mark"/>
    </contour>
    <contour>
      <point x="684" y="178" type="curve" smooth="yes"/>
      <point x="705" y="174"/>
      <point x="717" y="160"/>
      <point x="717" y="145" type="curve" smooth="yes"/>
      <point x="717" y="140"/>
      <point x="715" y="134"/>
      <point x="712" y="128" type="curve" smooth="yes"/>
      <point x="664" y="50"/>
      <point x="565" y="-6"/>
      <point x="457" y="-18" type="curve" smooth="yes"/>
      <point x="442" y="-20"/>
      <point x="428" y="-20"/>
      <point x="413" y="-20" type="curve" smooth="yes"/>
      <point x="229" y="-20"/>
      <point x="68" y="109"/>
      <point x="68" y="387" type="curve" smooth="yes"/>
      <point x="68" y="651"/>
      <point x="225" y="799"/>
      <point x="407" y="819" type="curve" smooth="yes"/>
      <point x="420" y="820"/>
      <point x="432" y="821"/>
      <point x="445" y="821" type="curve" smooth="yes"/>
      <point x="576" y="821"/>
      <point x="683" y="747"/>
      <point x="683" y="632" type="curve" smooth="yes"/>
      <point x="683" y="610"/>
      <point x="657" y="589"/>
      <point x="626" y="586" type="curve" smooth="yes"/>
      <point x="618" y="586" type="line" smooth="yes"/>
      <point x="591" y="586"/>
      <point x="569" y="600"/>
      <point x="569" y="620" type="curve" smooth="yes"/>
      <point x="569" y="699"/>
      <point x="501" y="739"/>
      <point x="429" y="739" type="curve" smooth="yes"/>
      <point x="422" y="739"/>
      <point x="414" y="739"/>
      <point x="407" y="738" type="curve" smooth="yes"/>
      <point x="320" y="729"/>
      <point x="182" y="648"/>
      <point x="182" y="399" type="curve" smooth="yes"/>
      <point x="182" y="137"/>
      <point x="325" y="62"/>
      <point x="432" y="62" type="curve" smooth="yes"/>
      <point x="440" y="62"/>
      <point x="449" y="62"/>
      <point x="457" y="63" type="curve" smooth="yes"/>
      <point x="520" y="70"/>
      <point x="578" y="101"/>
      <point x="608" y="150" type="curve" smooth="yes"/>
      <point x="619" y="168"/>
      <point x="645" y="179"/>
      <point x="670" y="179" type="curve" smooth="yes"/>
      <point x="675" y="179"/>
      <point x="679" y="179"/>
    </contour>
  </outline>
</glyph>
<glyph name="E" format="1">
  <advance width="740"/>
  <unicode hex="0045"/>
  <outline>
    <contour>
      <point x="570" y="0" type="move" name="LatinOgonek.mark"/>
    </contour>
    <contour>
      <point x="400" y="0" type="move" name="LatinBelow.mark"/>
    </contour>
    <contour>
      <point x="400" y="180" type="move" name="LatinAbove.mark"/>
    </contour>
    <contour>
      <point x="714" y="32" type="line" smooth="yes"/>
      <point x="711" y="11"/>
      <point x="685" y="-8"/>
      <point x="655" y="-9" type="curve" smooth="yes"/>
      <point x="553" y="-13"/>
      <point x="444" y="-24"/>
      <point x="353" y="-24" type="curve" smooth="yes"/>
      <point x="228" y="-24"/>
      <point x="136" y="-3"/>
      <point x="136" y="86" type="curve" smooth="yes"/>
      <point x="136" y="96" type="line"/>
      <point x="141" y="173"/>
      <point x="146" y="261"/>
      <point x="149" y="360" type="curve"/>
      <point x="145" y="360"/>
      <point x="142" y="361"/>
      <point x="138" y="361" type="curve" smooth="yes"/>
      <point x="113" y="362"/>
      <point x="96" y="377"/>
      <point x="96" y="395" type="curve" smooth="yes"/>
      <point x="96" y="398"/>
      <point x="96" y="400"/>
      <point x="97" y="403" type="curve" smooth="yes"/>
      <point x="102" y="422"/>
      <point x="126" y="437"/>
      <point x="151" y="439" type="curve"/>
      <point x="151" y="469"/>
      <point x="152" y="502"/>
      <point x="152" y="534" type="curve" smooth="yes"/>
      <point x="152" y="566"/>
      <point x="151" y="600"/>
      <point x="151" y="634" type="curve" smooth="yes"/>
      <point x="150" y="703"/>
      <point x="139" y="719"/>
      <point x="116" y="729" type="curve" smooth="yes"/>
      <point x="113" y="730"/>
      <point x="108" y="732"/>
      <point x="103" y="733" type="curve"/>
      <point x="103" y="733"/>
      <point x="102" y="742"/>
      <point x="102" y="754" type="curve" smooth="yes"/>
      <point x="102" y="777"/>
      <point x="107" y="809"/>
      <point x="139" y="809" type="curve" smooth="yes"/>
      <point x="141" y="809" type="line"/>
      <point x="226" y="805"/>
      <point x="301" y="804"/>
      <point x="365" y="804" type="curve" smooth="yes"/>
      <point x="499" y="804"/>
      <point x="587" y="810"/>
      <point x="630" y="814" type="curve"/>
      <point x="638" y="814" type="line" smooth="yes"/>
      <point x="664" y="814"/>
      <point x="684" y="800"/>
      <point x="684" y="781" type="curve" smooth="yes"/>
      <point x="684" y="760"/>
      <point x="660" y="739"/>
      <point x="630" y="736" type="curve" smooth="yes"/>
      <point x="581" y="731"/>
      <point x="493" y="726"/>
      <point x="360" y="726" type="curve" smooth="yes"/>
      <point x="326" y="726"/>
      <point x="289" y="726"/>
      <point x="249" y="727" type="curve"/>
      <point x="256" y="705"/>
      <point x="259" y="677"/>
      <point x="259" y="646" type="curve" smooth="yes"/>
      <point x="259" y="608"/>
      <point x="260" y="572"/>
      <point x="260" y="537" type="curve" smooth="yes"/>
      <point x="260" y="502"/>
      <point x="259" y="468"/>
      <point x="259" y="435" type="curve"/>
      <point x="295" y="434"/>
      <point x="327" y="433"/>
      <point x="359" y="433" type="curve" smooth="yes"/>
      <point x="416" y="433"/>
      <point x="473" y="435"/>
      <point x="554" y="439" type="curve"/>
      <point x="557" y="439" type="line" smooth="yes"/>
      <point x="584" y="439"/>
      <point x="604" y="425"/>
      <point x="604" y="406" type="curve" smooth="yes"/>
      <point x="604" y="403" type="line" smooth="yes"/>
      <point x="602" y="382"/>
      <point x="576" y="362"/>
      <point x="546" y="361" type="curve" smooth="yes"/>
      <point x="463" y="357"/>
      <point x="402" y="355"/>
      <point x="341" y="355" type="curve" smooth="yes"/>
      <point x="314" y="355"/>
      <point x="286" y="355"/>
      <point x="257" y="356" type="curve"/>
      <point x="254" y="262"/>
      <point x="249" y="179"/>
      <point x="244" y="104" type="curve"/>
      <point x="244" y="101" type="line" smooth="yes"/>
      <point x="244" y="67"/>
      <point x="277" y="56"/>
      <point x="361" y="56" type="curve" smooth="yes"/>
      <point x="428" y="56"/>
      <point x="526" y="63"/>
      <point x="665" y="69" type="curve"/>
      <point x="668" y="69" type="line" smooth="yes"/>
      <point x="695" y="69"/>
      <point x="714" y="55"/>
      <point x="714" y="36" type="curve" smooth="yes"/>
    </contour>
  </outline>
</glyph>
<glyph name="F" format="1">
  <advance width="710"/>
  <unicode hex="0046"/>
  <outline>
    <contour>
      <point x="190" y="0" type="move" name="LatinBelow.mark"/>
    </contour>
    <contour>
      <point x="380" y="180" type="move" name="LatinAbove.mark"/>
    </contour>
    <contour>
      <point x="684" y="781" type="curve" smooth="yes"/>
      <point x="684" y="760"/>
      <point x="660" y="739"/>
      <point x="630" y="736" type="curve" smooth="yes"/>
      <point x="581" y="731"/>
      <point x="491" y="726"/>
      <point x="359" y="726" type="curve" smooth="yes"/>
      <point x="325" y="726"/>
      <point x="289" y="726"/>
      <point x="249" y="727" type="curve"/>
      <point x="257" y="703"/>
      <point x="259" y="677"/>
      <point x="259" y="646" type="curve" smooth="yes"/>
      <point x="260" y="575"/>
      <point x="261" y="504"/>
      <point x="261" y="435" type="curve"/>
      <point x="297" y="434"/>
      <point x="328" y="433"/>
      <point x="360" y="433" type="curve" smooth="yes"/>
      <point x="417" y="433"/>
      <point x="474" y="435"/>
      <point x="554" y="439" type="curve"/>
      <point x="557" y="439" type="line" smooth="yes"/>
      <point x="584" y="439"/>
      <point x="604" y="425"/>
      <point x="604" y="406" type="curve" smooth="yes"/>
      <point x="604" y="403" type="line" smooth="yes"/>
      <point x="602" y="382"/>
      <point x="576" y="362"/>
      <point x="546" y="361" type="curve" smooth="yes"/>
      <point x="464" y="357"/>
      <point x="404" y="355"/>
      <point x="343" y="355" type="curve" smooth="yes"/>
      <point x="317" y="355"/>
      <point x="290" y="355"/>
      <point x="262" y="356" type="curve"/>
      <point x="262" y="241"/>
      <point x="260" y="131"/>
      <point x="254" y="29" type="curve" smooth="yes"/>
      <point x="253" y="8"/>
      <point x="228" y="-12"/>
      <point x="198" y="-14" type="curve" smooth="yes"/>
      <point x="193" y="-14" type="line" smooth="yes"/>
      <point x="166" y="-14"/>
      <point x="146" y="1"/>
      <point x="146" y="20" type="curve" smooth="yes"/>
      <point x="146" y="21" type="line"/>
      <point x="152" y="125"/>
      <point x="154" y="240"/>
      <point x="154" y="360" type="curve"/>
      <point x="149" y="360"/>
      <point x="143" y="361"/>
      <point x="138" y="361" type="curve" smooth="yes"/>
      <point x="113" y="362"/>
      <point x="96" y="377"/>
      <point x="96" y="395" type="curve" smooth="yes"/>
      <point x="96" y="398"/>
      <point x="96" y="400"/>
      <point x="97" y="403" type="curve" smooth="yes"/>
      <point x="102" y="422"/>
      <point x="127" y="437"/>
      <point x="153" y="439" type="curve"/>
      <point x="152" y="503"/>
      <point x="152" y="568"/>
      <point x="151" y="634" type="curve" smooth="yes"/>
      <point x="150" y="703"/>
      <point x="139" y="719"/>
      <point x="116" y="729" type="curve" smooth="yes"/>
      <point x="113" y="730"/>
      <point x="108" y="732"/>
      <point x="103" y="733" type="curve" smooth="yes"/>
      <point x="93" y="736"/>
      <point x="89" y="742"/>
      <point x="89" y="748" type="curve" smooth="yes"/>
      <point x="89" y="771"/>
      <point x="141" y="809"/>
      <point x="141" y="809" type="curve"/>
      <point x="226" y="805"/>
      <point x="301" y="804"/>
      <point x="365" y="804" type="curve" smooth="yes"/>
      <point x="499" y="804"/>
      <point x="587" y="810"/>
      <point x="630" y="814" type="curve"/>
      <point x="638" y="814" type="line" smooth="yes"/>
      <point x="664" y="814"/>
      <point x="684" y="800"/>
    </contour>
  </outline>
</glyph>
<glyph name="G" format="1">
  <advance width="790"/>
  <unicode hex="0047"/>
  <outline>
    <contour>
      <point x="420" y="0" type="move" name="LatinBelow.mark"/>
    </contour>
    <contour>
      <point x="420" y="180" type="move" name="LatinAbove.mark"/>
    </contour>
    <contour>
      <point x="387" y="316" type="curve" smooth="yes"/>
      <point x="386" y="319"/>
      <point x="386" y="322"/>
      <point x="386" y="325" type="curve" smooth="yes"/>
      <point x="386" y="343"/>
      <point x="403" y="360"/>
      <point x="428" y="367" type="curve" smooth="yes"/>
      <point x="467" y="378"/>
      <point x="548" y="395"/>
      <point x="596" y="399" type="curve" smooth="yes"/>
      <point x="600" y="399"/>
      <point x="603" y="400"/>
      <point x="606" y="400" type="curve" smooth="yes"/>
      <point x="615" y="400"/>
      <point x="624" y="399"/>
      <point x="632" y="397" type="curve" smooth="yes"/>
      <point x="703" y="383"/>
      <point x="725" y="324"/>
      <point x="725" y="264" type="curve" smooth="yes"/>
      <point x="725" y="244"/>
      <point x="723" y="225"/>
      <point x="719" y="206" type="curve" smooth="yes"/>
      <point x="699" y="107"/>
      <point x="608" y="-24"/>
      <point x="412" y="-24" type="curve" smooth="yes"/>
      <point x="210" y="-24"/>
      <point x="71" y="128"/>
      <point x="71" y="387" type="curve" smooth="yes"/>
      <point x="71" y="651"/>
      <point x="228" y="799"/>
      <point x="408" y="818" type="curve" smooth="yes"/>
      <point x="421" y="819"/>
      <point x="433" y="820"/>
      <point x="446" y="820" type="curve" smooth="yes"/>
      <point x="576" y="820"/>
      <point x="680" y="746"/>
      <point x="680" y="632" type="curve" smooth="yes"/>
      <point x="680" y="611"/>
      <point x="656" y="590"/>
      <point x="626" y="587" type="curve" smooth="yes"/>
      <point x="618" y="587" type="line" smooth="yes"/>
      <point x="592" y="587"/>
      <point x="572" y="601"/>
      <point x="572" y="620" type="curve" smooth="yes"/>
      <point x="572" y="699"/>
      <point x="504" y="741"/>
      <point x="430" y="741" type="curve" smooth="yes"/>
      <point x="423" y="741"/>
      <point x="415" y="741"/>
      <point x="408" y="740" type="curve" smooth="yes"/>
      <point x="318" y="730"/>
      <point x="179" y="648"/>
      <point x="179" y="399" type="curve" smooth="yes"/>
      <point x="179" y="152"/>
      <point x="312" y="54"/>
      <point x="428" y="54" type="curve" smooth="yes"/>
      <point x="536" y="54"/>
      <point x="594" y="121"/>
      <point x="611" y="206" type="curve" smooth="yes"/>
      <point x="614" y="219"/>
      <point x="615" y="231"/>
      <point x="615" y="242" type="curve" smooth="yes"/>
      <point x="615" y="284"/>
      <point x="599" y="315"/>
      <point x="590" y="321" type="curve"/>
      <point x="562" y="318"/>
      <point x="478" y="300"/>
      <point x="452" y="293" type="curve" smooth="yes"/>
      <point x="446" y="291"/>
      <point x="439" y="290"/>
      <point x="433" y="290" type="curve" smooth="yes"/>
      <point x="411" y="290"/>
      <point x="392" y="300"/>
    </contour>
  </outline>
</glyph>
<glyph name="J" format="1">
  <advance width="540"/>
  <unicode hex="004A"/>
  <outline>
    <contour>
      <point x="240" y="0" type="move" name="LatinBelow.mark"/>
    </contour>
    <contour>
      <point x="330" y="180" type="move" name="LatinAbove.mark"/>
    </contour>
    <contour>
      <point x="422" y="229" type="curve" smooth="yes"/>
      <point x="422" y="134"/>
      <point x="413" y="4"/>
      <point x="251" y="-13" type="curve" smooth="yes"/>
      <point x="241" y="-14"/>
      <point x="230" y="-14"/>
      <point x="220" y="-14" type="curve" smooth="yes"/>
      <point x="130" y="-14"/>
      <point x="56" y="31"/>
      <point x="21" y="78" type="curve" smooth="yes"/>
      <point x="17" y="83"/>
      <point x="16" y="88"/>
      <point x="16" y="94" type="curve" smooth="yes"/>
      <point x="16" y="108"/>
      <point x="27" y="123"/>
      <point x="46" y="132" type="curve" smooth="yes"/>
      <point x="56" y="137"/>
      <point x="67" y="139"/>
      <point x="78" y="139" type="curve" smooth="yes"/>
      <point x="95" y="139"/>
      <point x="111" y="133"/>
      <point x="119" y="122" type="curve" smooth="yes"/>
      <point x="142" y="91"/>
      <point x="196" y="64"/>
      <point x="236" y="64" type="curve" smooth="yes"/>
      <point x="242" y="64"/>
      <point x="247" y="65"/>
      <point x="251" y="65" type="curve" smooth="yes"/>
      <point x="291" y="69"/>
      <point x="318" y="102"/>
      <point x="318" y="216" type="curve" smooth="yes"/>
      <point x="318" y="336"/>
      <point x="310" y="565"/>
      <point x="298" y="671" type="curve" smooth="yes"/>
      <point x="291" y="728"/>
      <point x="245" y="710"/>
      <point x="152" y="734" type="curve"/>
      <point x="152" y="739" type="line" smooth="yes"/>
      <point x="152" y="754"/>
      <point x="155" y="798"/>
      <point x="192" y="798" type="curve" smooth="yes"/>
      <point x="194" y="798" type="line" smooth="yes"/>
      <point x="247" y="796"/>
      <point x="297" y="795"/>
      <point x="343" y="795" type="curve" smooth="yes"/>
      <point x="384" y="795"/>
      <point x="422" y="796"/>
      <point x="456" y="798" type="curve" smooth="yes"/>
      <point x="461" y="798" type="line" smooth="yes"/>
      <point x="485" y="798"/>
      <point x="502" y="786"/>
      <point x="502" y="771" type="curve" smooth="yes"/>
      <point x="502" y="768" type="line" smooth="yes"/>
      <point x="499" y="750"/>
      <point x="472" y="734"/>
      <point x="444" y="732" type="curve" smooth="yes"/>
      <point x="426" y="731"/>
      <point x="408" y="731"/>
      <point x="388" y="730" type="curve"/>
      <point x="395" y="719"/>
      <point x="400" y="705"/>
      <point x="402" y="689" type="curve" smooth="yes"/>
      <point x="414" y="579"/>
      <point x="422" y="351"/>
    </contour>
  </outline>
</glyph>
<glyph name="K" format="1">
  <advance width="780"/>
  <unicode hex="004B"/>
  <outline>
    <contour>
      <point x="370" y="0" type="move" name="LatinBelow.mark"/>
    </contour>
    <contour>
      <point x="370" y="180" type="move" name="LatinAbove.mark"/>
    </contour>
    <contour>
      <point x="129" y="807" type="curve" smooth="yes"/>
      <point x="135" y="809"/>
      <point x="142" y="809"/>
      <point x="148" y="809" type="curve" smooth="yes"/>
      <point x="170" y="809"/>
      <point x="188" y="800"/>
      <point x="193" y="784" type="curve" smooth="yes"/>
      <point x="207" y="738"/>
      <point x="216" y="658"/>
      <point x="221" y="544" type="curve"/>
      <point x="379" y="632"/>
      <point x="529" y="734"/>
      <point x="595" y="792" type="curve" smooth="yes"/>
      <point x="607" y="803"/>
      <point x="625" y="809"/>
      <point x="642" y="809" type="curve" smooth="yes"/>
      <point x="653" y="809"/>
      <point x="664" y="807"/>
      <point x="672" y="802" type="curve" smooth="yes"/>
      <point x="684" y="796"/>
      <point x="689" y="786"/>
      <point x="689" y="776" type="curve" smooth="yes"/>
      <point x="689" y="767"/>
      <point x="685" y="757"/>
      <point x="675" y="748" type="curve" smooth="yes"/>
      <point x="589" y="673"/>
      <point x="413" y="559"/>
      <point x="232" y="463" type="curve"/>
      <point x="475" y="353"/>
      <point x="702" y="97"/>
      <point x="738" y="54" type="curve" smooth="yes"/>
      <point x="742" y="49"/>
      <point x="744" y="43"/>
      <point x="744" y="37" type="curve" smooth="yes"/>
      <point x="744" y="23"/>
      <point x="734" y="8"/>
      <point x="716" y="-1" type="curve" smooth="yes"/>
      <point x="705" y="-6"/>
      <point x="693" y="-9"/>
      <point x="681" y="-9" type="curve" smooth="yes"/>
      <point x="665" y="-9"/>
      <point x="650" y="-4"/>
      <point x="642" y="6" type="curve" smooth="yes"/>
      <point x="613" y="41"/>
      <point x="422" y="253"/>
      <point x="226" y="367" type="curve"/>
      <point x="228" y="270"/>
      <point x="229" y="158"/>
      <point x="229" y="31" type="curve" smooth="yes"/>
      <point x="229" y="10"/>
      <point x="205" y="-11"/>
      <point x="175" y="-14" type="curve" smooth="yes"/>
      <point x="167" y="-14" type="line" smooth="yes"/>
      <point x="141" y="-14"/>
      <point x="121" y="0"/>
      <point x="121" y="19" type="curve" smooth="yes"/>
      <point x="121" y="174"/>
      <point x="119" y="308"/>
      <point x="116" y="419" type="curve" smooth="yes"/>
      <point x="112" y="421"/>
      <point x="107" y="422"/>
      <point x="103" y="423" type="curve" smooth="yes"/>
      <point x="103" y="423"/>
      <point x="64" y="429"/>
      <point x="64" y="446" type="curve" smooth="yes"/>
      <point x="64" y="455"/>
      <point x="74" y="466"/>
      <point x="104" y="481" type="curve" smooth="yes"/>
      <point x="107" y="483"/>
      <point x="110" y="484"/>
      <point x="113" y="486" type="curve" smooth="yes"/>
      <point x="108" y="622"/>
      <point x="100" y="714"/>
      <point x="87" y="756" type="curve" smooth="yes"/>
      <point x="86" y="758"/>
      <point x="86" y="761"/>
      <point x="86" y="764" type="curve" smooth="yes"/>
      <point x="86" y="782"/>
      <point x="104" y="801"/>
    </contour>
  </outline>
</glyph>
<glyph name="M" format="1">
  <advance width="900"/>
  <unicode hex="004D"/>
  <outline>
    <contour>
      <point x="450" y="0" type="move" name="LatinBelow.mark"/>
    </contour>
    <contour>
      <point x="450" y="180" type="move" name="LatinAbove.mark"/>
    </contour>
    <contour>
      <point x="115" y="-19" type="curve" smooth="yes"/>
      <point x="112" y="-19" type="line" smooth="yes"/>
      <point x="85" y="-19"/>
      <point x="66" y="-5"/>
      <point x="66" y="14" type="curve" smooth="yes"/>
      <point x="66" y="18" type="line"/>
      <point x="84" y="169"/>
      <point x="95" y="440"/>
      <point x="102" y="650" type="curve" smooth="yes"/>
      <point x="103" y="687"/>
      <point x="105" y="723"/>
      <point x="106" y="755" type="curve"/>
      <point x="106" y="755"/>
      <point x="153" y="793"/>
      <point x="186" y="793" type="curve" smooth="yes"/>
      <point x="196" y="793"/>
      <point x="205" y="789"/>
      <point x="211" y="779" type="curve" smooth="yes"/>
      <point x="229" y="747"/>
      <point x="246" y="716"/>
      <point x="262" y="687" type="curve" smooth="yes"/>
      <point x="356" y="514"/>
      <point x="421" y="353"/>
      <point x="458" y="270" type="curve"/>
      <point x="504" y="372"/>
      <point x="583" y="567"/>
      <point x="695" y="784" type="curve"/>
      <point x="695" y="784"/>
      <point x="737" y="805"/>
      <point x="766" y="805" type="curve" smooth="yes"/>
      <point x="782" y="805"/>
      <point x="794" y="799"/>
      <point x="794" y="781" type="curve" smooth="yes"/>
      <point x="794" y="771"/>
      <point x="795" y="761"/>
      <point x="795" y="751" type="curve" smooth="yes"/>
      <point x="800" y="517"/>
      <point x="816" y="170"/>
      <point x="834" y="39" type="curve"/>
      <point x="834" y="35" type="line" smooth="yes"/>
      <point x="834" y="15"/>
      <point x="812" y="-3"/>
      <point x="785" y="-8" type="curve" smooth="yes"/>
      <point x="781" y="-9"/>
      <point x="777" y="-9"/>
      <point x="773" y="-9" type="curve" smooth="yes"/>
      <point x="749" y="-9"/>
      <point x="729" y="3"/>
      <point x="726" y="21" type="curve" smooth="yes"/>
      <point x="712" y="128"/>
      <point x="698" y="391"/>
      <point x="691" y="598" type="curve"/>
      <point x="569" y="352"/>
      <point x="527" y="195"/>
      <point x="485" y="158" type="curve" smooth="yes"/>
      <point x="467" y="142"/>
      <point x="453" y="137"/>
      <point x="442" y="137" type="curve" smooth="yes"/>
      <point x="425" y="137"/>
      <point x="414" y="149"/>
      <point x="410" y="153" type="curve" smooth="yes"/>
      <point x="377" y="184"/>
      <point x="337" y="337"/>
      <point x="207" y="586" type="curve"/>
      <point x="200" y="395"/>
      <point x="190" y="154"/>
      <point x="174" y="22" type="curve" smooth="yes"/>
      <point x="171" y="1"/>
      <point x="145" y="-18"/>
    </contour>
  </outline>
</glyph>
<glyph name="O" format="1">
  <advance width="830"/>
  <unicode hex="004F"/>
  <outline>
    <contour>
      <point x="470" y="0" type="move" name="LatinOgonek.mark"/>
    </contour>
    <contour>
      <point x="415" y="0" type="move" name="LatinBelow.mark"/>
    </contour>
    <contour>
      <point x="415" y="180" type="move" name="LatinAbove.mark"/>
    </contour>
    <contour>
      <point x="593" y="623" type="curve"/>
      <point x="567" y="703"/>
      <point x="493" y="742"/>
      <point x="421" y="742" type="curve" smooth="yes"/>
      <point x="403" y="742"/>
      <point x="386" y="740"/>
      <point x="369" y="735" type="curve" smooth="yes"/>
      <point x="284" y="713"/>
      <point x="174" y="620"/>
      <point x="174" y="397" type="curve" smooth="yes"/>
      <point x="174" y="154"/>
      <point x="320" y="57"/>
      <point x="428" y="57" type="curve" smooth="yes"/>
      <point x="434" y="57"/>
      <point x="441" y="57"/>
      <point x="447" y="58" type="curve" smooth="yes"/>
      <point x="536" y="68"/>
      <point x="659" y="155"/>
      <point x="659" y="378" type="curve" smooth="yes"/>
      <point x="659" y="457"/>
      <point x="620" y="549"/>
      <point x="601" y="559" type="curve" smooth="yes"/>
      <point x="584" y="564"/>
      <point x="572" y="576"/>
      <point x="572" y="591" type="curve" smooth="yes"/>
      <point x="572" y="596"/>
      <point x="573" y="602"/>
      <point x="577" y="608" type="curve" smooth="yes"/>
      <point x="581" y="614"/>
      <point x="586" y="619"/>
    </contour>
    <contour>
      <point x="686" y="616" type="curve"/>
      <point x="745" y="572"/>
      <point x="767" y="472"/>
      <point x="767" y="390" type="curve" smooth="yes"/>
      <point x="767" y="156"/>
      <point x="632" y="0"/>
      <point x="447" y="-20" type="curve" smooth="yes"/>
      <point x="434" y="-21"/>
      <point x="422" y="-22"/>
      <point x="409" y="-22" type="curve" smooth="yes"/>
      <point x="219" y="-22"/>
      <point x="66" y="131"/>
      <point x="66" y="385" type="curve" smooth="yes"/>
      <point x="66" y="620"/>
      <point x="185" y="766"/>
      <point x="346" y="809" type="curve" smooth="yes"/>
      <point x="377" y="817"/>
      <point x="408" y="821"/>
      <point x="438" y="821" type="curve" smooth="yes"/>
      <point x="561" y="821"/>
      <point x="666" y="755"/>
      <point x="699" y="652" type="curve" smooth="yes"/>
      <point x="700" y="649"/>
      <point x="700" y="647"/>
      <point x="700" y="644" type="curve" smooth="yes"/>
      <point x="700" y="635"/>
      <point x="695" y="624"/>
    </contour>
  </outline>
</glyph>
<glyph name="P" format="1">
  <advance width="760"/>
  <unicode hex="0050"/>
  <outline>
    <contour>
      <point x="190" y="0" type="move" name="LatinBelow.mark"/>
    </contour>
    <contour>
      <point x="400" y="180" type="move" name="LatinAbove.mark"/>
    </contour>
    <contour>
      <point x="179" y="-24" type="curve" smooth="yes"/>
      <point x="172" y="-24" type="line" smooth="yes"/>
      <point x="146" y="-24"/>
      <point x="126" y="-10"/>
      <point x="126" y="9" type="curve" smooth="yes"/>
      <point x="126" y="10" type="line" smooth="yes"/>
      <point x="129" y="91"/>
      <point x="130" y="178"/>
      <point x="130" y="262" type="curve" smooth="yes"/>
      <point x="130" y="339" type="line"/>
      <point x="107" y="346"/>
      <point x="82" y="355"/>
      <point x="58" y="365" type="curve" smooth="yes"/>
      <point x="44" y="371"/>
      <point x="36" y="382"/>
      <point x="36" y="394" type="curve" smooth="yes"/>
      <point x="36" y="402"/>
      <point x="39" y="410"/>
      <point x="46" y="418" type="curve" smooth="yes"/>
      <point x="58" y="431"/>
      <point x="79" y="439"/>
      <point x="99" y="439" type="curve" smooth="yes"/>
      <point x="107" y="439"/>
      <point x="115" y="438"/>
      <point x="122" y="435" type="curve" smooth="yes"/>
      <point x="124" y="434"/>
      <point x="125" y="434"/>
      <point x="127" y="433" type="curve"/>
      <point x="125" y="498"/>
      <point x="121" y="554"/>
      <point x="116" y="596" type="curve"/>
      <point x="116" y="600" type="line" smooth="yes"/>
      <point x="116" y="620"/>
      <point x="138" y="638"/>
      <point x="165" y="643" type="curve" smooth="yes"/>
      <point x="169" y="644"/>
      <point x="173" y="644"/>
      <point x="177" y="644" type="curve" smooth="yes"/>
      <point x="201" y="644"/>
      <point x="221" y="632"/>
      <point x="224" y="614" type="curve" smooth="yes"/>
      <point x="232" y="559"/>
      <point x="236" y="483"/>
      <point x="238" y="397" type="curve"/>
      <point x="288" y="384"/>
      <point x="331" y="379"/>
      <point x="368" y="379" type="curve" smooth="yes"/>
      <point x="459" y="379"/>
      <point x="516" y="411"/>
      <point x="549" y="447" type="curve" smooth="yes"/>
      <point x="578" y="479"/>
      <point x="592" y="521"/>
      <point x="592" y="562" type="curve" smooth="yes"/>
      <point x="592" y="629"/>
      <point x="555" y="696"/>
      <point x="480" y="726" type="curve" smooth="yes"/>
      <point x="453" y="737"/>
      <point x="420" y="744"/>
      <point x="379" y="744" type="curve" smooth="yes"/>
      <point x="310" y="744"/>
      <point x="219" y="724"/>
      <point x="105" y="668" type="curve" smooth="yes"/>
      <point x="95" y="663"/>
      <point x="84" y="661"/>
      <point x="73" y="661" type="curve" smooth="yes"/>
      <point x="56" y="661"/>
      <point x="41" y="667"/>
      <point x="32" y="677" type="curve" smooth="yes"/>
      <point x="28" y="682"/>
      <point x="26" y="688"/>
      <point x="26" y="694" type="curve" smooth="yes"/>
      <point x="26" y="708"/>
      <point x="37" y="723"/>
      <point x="55" y="732" type="curve" smooth="yes"/>
      <point x="184" y="795"/>
      <point x="300" y="823"/>
      <point x="396" y="823" type="curve" smooth="yes"/>
      <point x="452" y="823"/>
      <point x="501" y="813"/>
      <point x="543" y="796" type="curve" smooth="yes"/>
      <point x="650" y="753"/>
      <point x="703" y="665"/>
      <point x="703" y="576" type="curve" smooth="yes"/>
      <point x="703" y="519"/>
      <point x="681" y="460"/>
      <point x="637" y="412" type="curve" smooth="yes"/>
      <point x="575" y="344"/>
      <point x="476" y="302"/>
      <point x="350" y="302" type="curve" smooth="yes"/>
      <point x="315" y="302"/>
      <point x="278" y="305"/>
      <point x="239" y="312" type="curve"/>
      <point x="239" y="216"/>
      <point x="237" y="114"/>
      <point x="234" y="20" type="curve" smooth="yes"/>
      <point x="233" y="-1"/>
      <point x="209" y="-21"/>
    </contour>
  </outline>
</glyph>
<glyph name="V" format="1">
  <advance width="810"/>
  <unicode hex="0056"/>
  <outline>
    <contour>
      <point x="405" y="0" type="move" name="LatinBelow.mark"/>
    </contour>
    <contour>
      <point x="405" y="180" type="move" name="LatinAbove.mark"/>
    </contour>
    <contour>
      <point x="727" y="791" type="line" smooth="yes"/>
      <point x="752" y="790"/>
      <point x="769" y="775"/>
      <point x="769" y="757" type="curve" smooth="yes"/>
      <point x="769" y="754"/>
      <point x="769" y="752"/>
      <point x="768" y="749" type="curve" smooth="yes"/>
      <point x="735" y="637"/>
      <point x="607" y="294"/>
      <point x="455" y="11" type="curve"/>
      <point x="455" y="11"/>
      <point x="417" y="-21"/>
      <point x="386" y="-21" type="curve" smooth="yes"/>
      <point x="372" y="-21"/>
      <point x="359" y="-14"/>
      <point x="352" y="6" type="curve" smooth="yes"/>
      <point x="351" y="10"/>
      <point x="350" y="14"/>
      <point x="348" y="19" type="curve" smooth="yes"/>
      <point x="290" y="188"/>
      <point x="150" y="573"/>
      <point x="45" y="745" type="curve" smooth="yes"/>
      <point x="42" y="749"/>
      <point x="41" y="754"/>
      <point x="41" y="759" type="curve" smooth="yes"/>
      <point x="41" y="774"/>
      <point x="54" y="791"/>
      <point x="74" y="799" type="curve" smooth="yes"/>
      <point x="83" y="803"/>
      <point x="92" y="804"/>
      <point x="101" y="804" type="curve" smooth="yes"/>
      <point x="120" y="804"/>
      <point x="138" y="797"/>
      <point x="145" y="785" type="curve" smooth="yes"/>
      <point x="237" y="633"/>
      <point x="348" y="335"/>
      <point x="417" y="142" type="curve"/>
      <point x="537" y="388"/>
      <point x="636" y="665"/>
      <point x="662" y="755" type="curve" smooth="yes"/>
      <point x="668" y="775"/>
      <point x="696" y="791"/>
      <point x="724" y="791" type="curve" smooth="yes"/>
    </contour>
  </outline>
</glyph>
<glyph name="X" format="1">
  <advance width="780"/>
  <unicode hex="0058"/>
  <outline>
    <contour>
      <point x="390" y="0" type="move" name="LatinBelow.mark"/>
    </contour>
    <contour>
      <point x="390" y="180" type="move" name="LatinAbove.mark"/>
    </contour>
    <contour>
      <point x="122" y="793" type="curve" smooth="yes"/>
      <point x="132" y="797"/>
      <point x="142" y="799"/>
      <point x="152" y="799" type="curve" smooth="yes"/>
      <point x="170" y="799"/>
      <point x="186" y="793"/>
      <point x="194" y="781" type="curve" smooth="yes"/>
      <point x="262" y="681"/>
      <point x="322" y="595"/>
      <point x="382" y="513" type="curve"/>
      <point x="447" y="595"/>
      <point x="516" y="681"/>
      <point x="598" y="777" type="curve" smooth="yes"/>
      <point x="610" y="791"/>
      <point x="632" y="800"/>
      <point x="652" y="800" type="curve" smooth="yes"/>
      <point x="659" y="800"/>
      <point x="666" y="798"/>
      <point x="673" y="796" type="curve" smooth="yes"/>
      <point x="689" y="790"/>
      <point x="697" y="779"/>
      <point x="697" y="766" type="curve" smooth="yes"/>
      <point x="697" y="758"/>
      <point x="694" y="750"/>
      <point x="688" y="743" type="curve" smooth="yes"/>
      <point x="592" y="629"/>
      <point x="513" y="532"/>
      <point x="439" y="436" type="curve"/>
      <point x="525" y="321"/>
      <point x="616" y="207"/>
      <point x="737" y="67" type="curve" smooth="yes"/>
      <point x="742" y="61"/>
      <point x="744" y="55"/>
      <point x="744" y="48" type="curve" smooth="yes"/>
      <point x="744" y="34"/>
      <point x="734" y="21"/>
      <point x="717" y="12" type="curve" smooth="yes"/>
      <point x="706" y="7"/>
      <point x="694" y="4"/>
      <point x="683" y="4" type="curve" smooth="yes"/>
      <point x="667" y="4"/>
      <point x="652" y="9"/>
      <point x="643" y="19" type="curve" smooth="yes"/>
      <point x="536" y="143"/>
      <point x="452" y="248"/>
      <point x="374" y="350" type="curve"/>
      <point x="296" y="246"/>
      <point x="221" y="140"/>
      <point x="133" y="16" type="curve" smooth="yes"/>
      <point x="122" y="0"/>
      <point x="99" y="-9"/>
      <point x="77" y="-9" type="curve" smooth="yes"/>
      <point x="71" y="-9"/>
      <point x="65" y="-9"/>
      <point x="59" y="-7" type="curve" smooth="yes"/>
      <point x="41" y="-2"/>
      <point x="31" y="11"/>
      <point x="31" y="25" type="curve" smooth="yes"/>
      <point x="31" y="31"/>
      <point x="33" y="38"/>
      <point x="37" y="44" type="curve" smooth="yes"/>
      <point x="138" y="187"/>
      <point x="224" y="306"/>
      <point x="316" y="427" type="curve"/>
      <point x="245" y="523"/>
      <point x="176" y="622"/>
      <point x="96" y="739" type="curve" smooth="yes"/>
      <point x="93" y="744"/>
      <point x="91" y="750"/>
      <point x="91" y="755" type="curve" smooth="yes"/>
      <point x="91" y="770"/>
      <point x="102" y="784"/>
    </contour>
  </outline>
</glyph>
<glyph name="Y" format="1">
  <advance width="720"/>
  <unicode hex="0059"/>
  <outline>
    <contour>
      <point x="360" y="0" type="move" name="LatinBelow.mark"/>
    </contour>
    <contour>
      <point x="360" y="180" type="move" name="LatinAbove.mark"/>
    </contour>
    <contour>
      <point x="647" y="799" type="line" smooth="yes"/>
      <point x="670" y="797"/>
      <point x="685" y="783"/>
      <point x="685" y="766" type="curve" smooth="yes"/>
      <point x="685" y="762"/>
      <point x="684" y="758"/>
      <point x="682" y="754" type="curve" smooth="yes"/>
      <point x="627" y="626"/>
      <point x="577" y="537"/>
      <point x="536" y="472" type="curve" smooth="yes"/>
      <point x="457" y="348"/>
      <point x="420" y="317"/>
      <point x="419" y="265" type="curve" smooth="yes"/>
      <point x="418" y="241"/>
      <point x="418" y="218"/>
      <point x="418" y="194" type="curve" smooth="yes"/>
      <point x="418" y="140"/>
      <point x="420" y="86"/>
      <point x="424" y="28" type="curve"/>
      <point x="424" y="25" type="line" smooth="yes"/>
      <point x="424" y="5"/>
      <point x="402" y="-15"/>
      <point x="373" y="-19" type="curve" smooth="yes"/>
      <point x="370" y="-19"/>
      <point x="366" y="-20"/>
      <point x="363" y="-20" type="curve" smooth="yes"/>
      <point x="338" y="-20"/>
      <point x="318" y="-7"/>
      <point x="316" y="12" type="curve" smooth="yes"/>
      <point x="312" y="71"/>
      <point x="310" y="127"/>
      <point x="310" y="183" type="curve" smooth="yes"/>
      <point x="310" y="207"/>
      <point x="310" y="231"/>
      <point x="311" y="255" type="curve" smooth="yes"/>
      <point x="311" y="273"/>
      <point x="314" y="289"/>
      <point x="319" y="305" type="curve"/>
      <point x="267" y="332"/>
      <point x="223" y="383"/>
      <point x="182" y="448" type="curve" smooth="yes"/>
      <point x="126" y="535"/>
      <point x="75" y="646"/>
      <point x="37" y="755" type="curve" smooth="yes"/>
      <point x="36" y="758"/>
      <point x="35" y="761"/>
      <point x="35" y="764" type="curve" smooth="yes"/>
      <point x="35" y="782"/>
      <point x="52" y="800"/>
      <point x="77" y="807" type="curve" smooth="yes"/>
      <point x="84" y="809"/>
      <point x="90" y="810"/>
      <point x="97" y="810" type="curve" smooth="yes"/>
      <point x="119" y="810"/>
      <point x="138" y="800"/>
      <point x="143" y="785" type="curve" smooth="yes"/>
      <point x="179" y="680"/>
      <point x="230" y="571"/>
      <point x="282" y="490" type="curve" smooth="yes"/>
      <point x="309" y="449"/>
      <point x="337" y="404"/>
      <point x="360" y="382" type="curve"/>
      <point x="381" y="413"/>
      <point x="408" y="449"/>
      <point x="438" y="496" type="curve" smooth="yes"/>
      <point x="477" y="557"/>
      <point x="525" y="642"/>
      <point x="578" y="766" type="curve" smooth="yes"/>
      <point x="586" y="785"/>
      <point x="614" y="799"/>
      <point x="640" y="799" type="curve" smooth="yes"/>
    </contour>
  </outline>
</glyph>
<glyph name="bracketleft" format="1">
  <advance width="360"/>
  <unicode hex="005B"/>
  <outline>
    <contour>
      <point x="299" y="-60" type="line" smooth="yes"/>
      <point x="296" y="-76"/>
      <point x="275" y="-89"/>
      <point x="254" y="-89" type="curve" smooth="yes"/>
      <point x="239" y="-89"/>
      <point x="189" y="-91"/>
      <point x="135" y="-91" type="curve" smooth="yes"/>
      <point x="108" y="-91" type="line" smooth="yes"/>
      <point x="88" y="-91"/>
      <point x="75" y="-79"/>
      <point x="75" y="-66" type="curve" smooth="yes"/>
      <point x="75" y="-65" type="line"/>
      <point x="87" y="104"/>
      <point x="92" y="265"/>
      <point x="92" y="407" type="curve" smooth="yes"/>
      <point x="92" y="594"/>
      <point x="83" y="749"/>
      <point x="71" y="853" type="curve"/>
      <point x="71" y="858" type="line" smooth="yes"/>
      <point x="71" y="868"/>
      <point x="75" y="889"/>
      <point x="114" y="889" type="curve" smooth="yes"/>
      <point x="118" y="889" type="line" smooth="yes"/>
      <point x="147" y="888"/>
      <point x="188" y="887"/>
      <point x="219" y="887" type="curve" smooth="yes"/>
      <point x="238" y="887"/>
      <point x="254" y="887"/>
      <point x="262" y="888" type="curve" smooth="yes"/>
      <point x="267" y="888" type="line" smooth="yes"/>
      <point x="286" y="888"/>
      <point x="300" y="878"/>
      <point x="300" y="864" type="curve" smooth="yes"/>
      <point x="300" y="863" type="line" smooth="yes"/>
      <point x="299" y="847"/>
      <point x="280" y="834"/>
      <point x="258" y="832" type="curve" smooth="yes"/>
      <point x="241" y="831"/>
      <point x="215" y="830"/>
      <point x="186" y="830" type="curve" smooth="yes"/>
      <point x="153" y="830" type="line"/>
      <point x="164" y="724"/>
      <point x="171" y="577"/>
      <point x="171" y="406" type="curve" smooth="yes"/>
      <point x="171" y="272"/>
      <point x="167" y="124"/>
      <point x="156" y="-34" type="curve"/>
      <point x="203" y="-34"/>
      <point x="247" y="-31"/>
      <point x="266" y="-31" type="curve" smooth="yes"/>
      <point x="285" y="-31"/>
      <point x="299" y="-42"/>
      <point x="299" y="-56" type="curve" smooth="yes"/>
    </contour>
  </outline>
</glyph>
<glyph name="backslash" format="1">
  <advance width="480"/>
  <unicode hex="005C"/>
  <outline>
    <contour>
      <point x="71" y="827" type="curve" smooth="yes"/>
      <point x="76" y="828"/>
      <point x="80" y="829"/>
      <point x="85" y="829" type="curve" smooth="yes"/>
      <point x="101" y="829"/>
      <point x="115" y="822"/>
      <point x="119" y="810" type="curve" smooth="yes"/>
      <point x="210" y="535"/>
      <point x="312" y="276"/>
      <point x="438" y="13" type="curve" smooth="yes"/>
      <point x="439" y="10"/>
      <point x="440" y="8"/>
      <point x="440" y="5" type="curve" smooth="yes"/>
      <point x="440" y="-7"/>
      <point x="428" y="-20"/>
      <point x="412" y="-26" type="curve" smooth="yes"/>
      <point x="406" y="-28"/>
      <point x="401" y="-29"/>
      <point x="395" y="-29" type="curve" smooth="yes"/>
      <point x="381" y="-29"/>
      <point x="367" y="-23"/>
      <point x="362" y="-13" type="curve" smooth="yes"/>
      <point x="236" y="252"/>
      <point x="132" y="513"/>
      <point x="41" y="790" type="curve" smooth="yes"/>
      <point x="40" y="792"/>
      <point x="40" y="794"/>
      <point x="40" y="796" type="curve" smooth="yes"/>
      <point x="40" y="809"/>
      <point x="53" y="822"/>
    </contour>
  </outline>
</glyph>
<glyph name="underscore" format="1">
  <advance width="600"/>
  <unicode hex="005F"/>
  <outline>
    <contour>
      <point x="32" y="-21" type="curve" smooth="yes"/>
      <point x="39" y="-3"/>
      <point x="63" y="11"/>
      <point x="88" y="11" type="curve" smooth="yes"/>
      <point x="93" y="11" type="line"/>
      <point x="147" y="6"/>
      <point x="259" y="4"/>
      <point x="367" y="4" type="curve" smooth="yes"/>
      <point x="423" y="4"/>
      <point x="479" y="4"/>
      <point x="525" y="6" type="curve" smooth="yes"/>
      <point x="527" y="6" type="line" smooth="yes"/>
      <point x="551" y="6"/>
      <point x="569" y="-7"/>
      <point x="569" y="-24" type="curve" smooth="yes"/>
      <point x="569" y="-28" type="line" smooth="yes"/>
      <point x="566" y="-47"/>
      <point x="542" y="-65"/>
      <point x="515" y="-66" type="curve" smooth="yes"/>
      <point x="459" y="-68"/>
      <point x="393" y="-69"/>
      <point x="327" y="-69" type="curve" smooth="yes"/>
      <point x="225" y="-69"/>
      <point x="124" y="-66"/>
      <point x="67" y="-61" type="curve" smooth="yes"/>
      <point x="45" y="-59"/>
      <point x="30" y="-46"/>
      <point x="30" y="-30" type="curve" smooth="yes"/>
      <point x="30" y="-27"/>
      <point x="31" y="-24"/>
    </contour>
  </outline>
</glyph>
<glyph name="c" format="1">
  <advance width="600"/>
  <unicode hex="0063"/>
  <outline>
    <contour>
      <point x="360" y="0" type="move" name="LatinCedilla.mark"/>
    </contour>
    <contour>
      <point x="350" y="0" type="move" name="LatinBelow.mark"/>
    </contour>
    <contour>
      <point x="350" y="0" type="move" name="LatinAbove.mark"/>
    </contour>
    <contour>
      <point x="532" y="141" type="curve" smooth="yes"/>
      <point x="551" y="137"/>
      <point x="562" y="124"/>
      <point x="562" y="110" type="curve" smooth="yes"/>
      <point x="562" y="105"/>
      <point x="560" y="99"/>
      <point x="557" y="94" type="curve" smooth="yes"/>
      <point x="519" y="32"/>
      <point x="441" y="-11"/>
      <point x="357" y="-20" type="curve" smooth="yes"/>
      <point x="346" y="-21"/>
      <point x="334" y="-22"/>
      <point x="323" y="-22" type="curve" smooth="yes"/>
      <point x="179" y="-22"/>
      <point x="58" y="80"/>
      <point x="58" y="290" type="curve" smooth="yes"/>
      <point x="58" y="490"/>
      <point x="178" y="607"/>
      <point x="322" y="622" type="curve" smooth="yes"/>
      <point x="332" y="623"/>
      <point x="342" y="624"/>
      <point x="351" y="624" type="curve" smooth="yes"/>
      <point x="454" y="624"/>
      <point x="537" y="565"/>
      <point x="537" y="475" type="curve" smooth="yes"/>
      <point x="537" y="455"/>
      <point x="513" y="436"/>
      <point x="485" y="433" type="curve" smooth="yes"/>
      <point x="478" y="433" type="line" smooth="yes"/>
      <point x="453" y="433"/>
      <point x="433" y="447"/>
      <point x="433" y="465" type="curve" smooth="yes"/>
      <point x="433" y="520"/>
      <point x="386" y="548"/>
      <point x="337" y="548" type="curve" smooth="yes"/>
      <point x="332" y="548"/>
      <point x="327" y="548"/>
      <point x="322" y="547" type="curve" smooth="yes"/>
      <point x="264" y="541"/>
      <point x="162" y="485"/>
      <point x="162" y="300" type="curve" smooth="yes"/>
      <point x="162" y="105"/>
      <point x="267" y="54"/>
      <point x="340" y="54" type="curve" smooth="yes"/>
      <point x="346" y="54"/>
      <point x="352" y="54"/>
      <point x="357" y="55" type="curve" smooth="yes"/>
      <point x="401" y="60"/>
      <point x="442" y="82"/>
      <point x="463" y="116" type="curve" smooth="yes"/>
      <point x="473" y="132"/>
      <point x="495" y="143"/>
      <point x="517" y="143" type="curve" smooth="yes"/>
      <point x="522" y="143"/>
      <point x="527" y="142"/>
    </contour>
  </outline>
</glyph>
<glyph name="d" format="1">
  <advance width="720"/>
  <unicode hex="0064"/>
  <outline>
    <contour>
      <point x="360" y="0" type="move" name="LatinBelow.mark"/>
    </contour>
    <contour>
      <point x="510" y="180" type="move" name="LatinAbove.mark"/>
    </contour>
    <contour>
      <point x="523" y="875" type="curve" smooth="yes"/>
      <point x="526" y="875"/>
      <point x="530" y="876"/>
      <point x="533" y="876" type="curve" smooth="yes"/>
      <point x="556" y="876"/>
      <point x="573" y="864"/>
      <point x="574" y="847" type="curve" smooth="yes"/>
      <point x="577" y="800"/>
      <point x="577" y="751"/>
      <point x="577" y="702" type="curve" smooth="yes"/>
      <point x="577" y="598"/>
      <point x="574" y="463"/>
      <point x="574" y="381" type="curve" smooth="yes"/>
      <point x="574" y="336" type="line" smooth="yes"/>
      <point x="576" y="257"/>
      <point x="586" y="192"/>
      <point x="600" y="144" type="curve" smooth="yes"/>
      <point x="620" y="77"/>
      <point x="652" y="51"/>
      <point x="660" y="49" type="curve" smooth="yes"/>
      <point x="678" y="45"/>
      <point x="689" y="34"/>
      <point x="689" y="20" type="curve" smooth="yes"/>
      <point x="689" y="15"/>
      <point x="688" y="10"/>
      <point x="685" y="5" type="curve" smooth="yes"/>
      <point x="676" y="-10"/>
      <point x="655" y="-21"/>
      <point x="634" y="-21" type="curve" smooth="yes"/>
      <point x="629" y="-21"/>
      <point x="624" y="-20"/>
      <point x="620" y="-19" type="curve" smooth="yes"/>
      <point x="564" y="-5"/>
      <point x="534" y="51"/>
      <point x="514" y="120" type="curve" smooth="yes"/>
      <point x="513" y="123"/>
      <point x="513" y="125"/>
      <point x="512" y="128" type="curve"/>
      <point x="480" y="60"/>
      <point x="427" y="-21"/>
      <point x="313" y="-21" type="curve" smooth="yes"/>
      <point x="128" y="-21"/>
      <point x="61" y="139"/>
      <point x="61" y="275" type="curve" smooth="yes"/>
      <point x="61" y="302"/>
      <point x="64" y="330"/>
      <point x="69" y="357" type="curve" smooth="yes"/>
      <point x="93" y="478"/>
      <point x="183" y="616"/>
      <point x="367" y="616" type="curve" smooth="yes"/>
      <point x="415" y="616"/>
      <point x="452" y="604"/>
      <point x="479" y="586" type="curve"/>
      <point x="479" y="692" type="line" smooth="yes"/>
      <point x="479" y="741"/>
      <point x="479" y="788"/>
      <point x="476" y="833" type="curve" smooth="yes"/>
      <point x="476" y="834" type="line" smooth="yes"/>
      <point x="476" y="853"/>
      <point x="497" y="871"/>
    </contour>
    <contour>
      <point x="476" y="422" type="line"/>
      <point x="465" y="474"/>
      <point x="436" y="544"/>
      <point x="353" y="544" type="curve" smooth="yes"/>
      <point x="261" y="544"/>
      <point x="189" y="474"/>
      <point x="166" y="357" type="curve" smooth="yes"/>
      <point x="161" y="334"/>
      <point x="159" y="309"/>
      <point x="159" y="285" type="curve" smooth="yes"/>
      <point x="159" y="151"/>
      <point x="232" y="51"/>
      <point x="327" y="51" type="curve" smooth="yes"/>
      <point x="360" y="51"/>
      <point x="403" y="79"/>
      <point x="437" y="151" type="curve" smooth="yes"/>
      <point x="457" y="193"/>
      <point x="470" y="242"/>
      <point x="478" y="285" type="curve" smooth="yes"/>
      <point x="477" y="298"/>
      <point x="476" y="310"/>
      <point x="476" y="324" type="curve" smooth="yes"/>
      <point x="476" y="371" type="line"/>
    </contour>
  </outline>
</glyph>
<glyph name="f" format="1">
  <advance width="480"/>
  <unicode hex="0066"/>
  <outline>
    <contour>
      <point x="210" y="0" type="move" name="LatinBelow.mark"/>
    </contour>
    <contour>
      <point x="310" y="180" type="move" name="LatinAbove.mark"/>
    </contour>
    <contour>
      <point x="215" y="-20" type="curve" smooth="yes"/>
      <point x="208" y="-20" type="line" smooth="yes"/>
      <point x="184" y="-20"/>
      <point x="166" y="-7"/>
      <point x="166" y="10" type="curve" smooth="yes"/>
      <point x="166" y="40"/>
      <point x="167" y="68"/>
      <point x="167" y="96" type="curve" smooth="yes"/>
      <point x="167" y="265"/>
      <point x="160" y="400"/>
      <point x="149" y="523" type="curve"/>
      <point x="119" y="524"/>
      <point x="90" y="526"/>
      <point x="57" y="529" type="curve" smooth="yes"/>
      <point x="35" y="531"/>
      <point x="20" y="544"/>
      <point x="20" y="560" type="curve" smooth="yes"/>
      <point x="20" y="563"/>
      <point x="21" y="566"/>
      <point x="22" y="569" type="curve" smooth="yes"/>
      <point x="29" y="587"/>
      <point x="53" y="601"/>
      <point x="78" y="601" type="curve" smooth="yes"/>
      <point x="83" y="601" type="line" smooth="yes"/>
      <point x="105" y="599"/>
      <point x="129" y="597"/>
      <point x="147" y="596" type="curve"/>
      <point x="142" y="630"/>
      <point x="137" y="664"/>
      <point x="133" y="697" type="curve" smooth="yes"/>
      <point x="132" y="703"/>
      <point x="132" y="709"/>
      <point x="132" y="715" type="curve" smooth="yes"/>
      <point x="132" y="762"/>
      <point x="151" y="806"/>
      <point x="195" y="837" type="curve" smooth="yes"/>
      <point x="229" y="862"/>
      <point x="271" y="874"/>
      <point x="314" y="874" type="curve" smooth="yes"/>
      <point x="366" y="874"/>
      <point x="421" y="856"/>
      <point x="468" y="822" type="curve" smooth="yes"/>
      <point x="476" y="816"/>
      <point x="479" y="809"/>
      <point x="479" y="801" type="curve" smooth="yes"/>
      <point x="479" y="791"/>
      <point x="473" y="780"/>
      <point x="462" y="772" type="curve" smooth="yes"/>
      <point x="451" y="764"/>
      <point x="436" y="759"/>
      <point x="422" y="759" type="curve" smooth="yes"/>
      <point x="411" y="759"/>
      <point x="400" y="762"/>
      <point x="392" y="768" type="curve" smooth="yes"/>
      <point x="356" y="795"/>
      <point x="326" y="803"/>
      <point x="303" y="803" type="curve" smooth="yes"/>
      <point x="283" y="803"/>
      <point x="268" y="797"/>
      <point x="259" y="790" type="curve" smooth="yes"/>
      <point x="243" y="778"/>
      <point x="228" y="755"/>
      <point x="228" y="724" type="curve" smooth="yes"/>
      <point x="228" y="720"/>
      <point x="229" y="717"/>
      <point x="229" y="713" type="curve" smooth="yes"/>
      <point x="231" y="674"/>
      <point x="234" y="634"/>
      <point x="237" y="593" type="curve"/>
      <point x="270" y="593"/>
      <point x="313" y="594"/>
      <point x="365" y="596" type="curve" smooth="yes"/>
      <point x="367" y="596" type="line" smooth="yes"/>
      <point x="391" y="596"/>
      <point x="409" y="583"/>
      <point x="409" y="566" type="curve" smooth="yes"/>
      <point x="409" y="562" type="line" smooth="yes"/>
      <point x="406" y="543"/>
      <point x="382" y="525"/>
      <point x="355" y="524" type="curve" smooth="yes"/>
      <point x="313" y="522"/>
      <point x="278" y="521"/>
      <point x="248" y="521" type="curve"/>
      <point x="258" y="401"/>
      <point x="265" y="269"/>
      <point x="265" y="106" type="curve" smooth="yes"/>
      <point x="265" y="78"/>
      <point x="264" y="50"/>
      <point x="264" y="20" type="curve" smooth="yes"/>
      <point x="264" y="1"/>
      <point x="242" y="-17"/>
    </contour>
  </outline>
</glyph>
<glyph name="h" format="1">
  <advance width="670"/>
  <unicode hex="0068"/>
  <outline>
    <contour>
      <point x="330" y="0" type="move" name="LatinBelow.mark"/>
    </contour>
    <contour>
      <point x="160" y="180" type="move" name="LatinAbove.mark"/>
    </contour>
    <contour>
      <point x="133" y="-14" type="curve" smooth="yes"/>
      <point x="118" y="-14"/>
      <point x="106" y="1"/>
      <point x="106" y="15" type="curve" smooth="yes"/>
      <point x="105" y="304"/>
      <point x="87" y="760"/>
      <point x="67" y="811" type="curve" smooth="yes"/>
      <point x="66" y="814"/>
      <point x="65" y="817"/>
      <point x="65" y="820" type="curve" smooth="yes"/>
      <point x="65" y="836"/>
      <point x="80" y="851"/>
      <point x="102" y="858" type="curve" smooth="yes"/>
      <point x="108" y="860"/>
      <point x="116" y="861"/>
      <point x="122" y="861" type="curve" smooth="yes"/>
      <point x="141" y="861"/>
      <point x="158" y="853"/>
      <point x="163" y="839" type="curve" smooth="yes"/>
      <point x="181" y="794"/>
      <point x="191" y="613"/>
      <point x="197" y="425" type="curve"/>
      <point x="230" y="523"/>
      <point x="292" y="621"/>
      <point x="432" y="621" type="curve" smooth="yes"/>
      <point x="570" y="621"/>
      <point x="589" y="503"/>
      <point x="589" y="370" type="curve" smooth="yes"/>
      <point x="589" y="244"/>
      <point x="592" y="136"/>
      <point x="594" y="31" type="curve" smooth="yes"/>
      <point x="594" y="12"/>
      <point x="573" y="-7"/>
      <point x="546" y="-10" type="curve" smooth="yes"/>
      <point x="538" y="-10" type="line" smooth="yes"/>
      <point x="514" y="-10"/>
      <point x="496" y="2"/>
      <point x="496" y="19" type="curve" smooth="yes"/>
      <point x="494" y="124"/>
      <point x="491" y="234"/>
      <point x="491" y="360" type="curve" smooth="yes"/>
      <point x="491" y="507"/>
      <point x="454" y="549"/>
      <point x="418" y="549" type="curve" smooth="yes"/>
      <point x="333" y="549"/>
      <point x="279" y="461"/>
      <point x="249" y="324" type="curve" smooth="yes"/>
      <point x="211" y="153"/>
      <point x="212" y="106"/>
      <point x="204" y="12" type="curve"/>
      <point x="204" y="12"/>
      <point x="164" y="-14"/>
    </contour>
  </outline>
</glyph>
<glyph name="m" format="1">
  <advance width="965"/>
  <unicode hex="006D"/>
  <outline>
    <contour>
      <point x="510" y="0" type="move" name="LatinBelow.mark"/>
    </contour>
    <contour>
      <point x="510" y="0" type="move" name="LatinAbove.mark"/>
    </contour>
    <contour>
      <point x="463" y="-10" type="curve" smooth="yes"/>
      <point x="448" y="-10"/>
      <point x="436" y="5"/>
      <point x="436" y="19" type="curve" smooth="yes"/>
      <point x="436" y="128"/>
      <point x="441" y="218"/>
      <point x="441" y="290" type="curve" smooth="yes"/>
      <point x="441" y="509"/>
      <point x="404" y="549"/>
      <point x="353" y="549" type="curve" smooth="yes"/>
      <point x="300" y="549"/>
      <point x="244" y="501"/>
      <point x="224" y="366" type="curve" smooth="yes"/>
      <point x="198" y="194"/>
      <point x="200" y="101"/>
      <point x="194" y="7" type="curve"/>
      <point x="194" y="7"/>
      <point x="159" y="-19"/>
      <point x="123" y="-19" type="curve" smooth="yes"/>
      <point x="108" y="-19"/>
      <point x="96" y="-4"/>
      <point x="96" y="10" type="curve" smooth="yes"/>
      <point x="95" y="149"/>
      <point x="88" y="466"/>
      <point x="76" y="572" type="curve"/>
      <point x="76" y="575" type="line" smooth="yes"/>
      <point x="76" y="593"/>
      <point x="95" y="611"/>
      <point x="121" y="615" type="curve" smooth="yes"/>
      <point x="125" y="616"/>
      <point x="128" y="616"/>
      <point x="131" y="616" type="curve" smooth="yes"/>
      <point x="153" y="616"/>
      <point x="167" y="605"/>
      <point x="169" y="588" type="curve" smooth="yes"/>
      <point x="172" y="558"/>
      <point x="175" y="513"/>
      <point x="177" y="461" type="curve"/>
      <point x="205" y="547"/>
      <point x="258" y="621"/>
      <point x="367" y="621" type="curve" smooth="yes"/>
      <point x="460" y="621"/>
      <point x="502" y="566"/>
      <point x="521" y="474" type="curve"/>
      <point x="550" y="555"/>
      <point x="603" y="621"/>
      <point x="707" y="621" type="curve" smooth="yes"/>
      <point x="854" y="621"/>
      <point x="879" y="491"/>
      <point x="879" y="300" type="curve" smooth="yes"/>
      <point x="879" y="226"/>
      <point x="874" y="134"/>
      <point x="874" y="30" type="curve" smooth="yes"/>
      <point x="874" y="11"/>
      <point x="852" y="-7"/>
      <point x="825" y="-10" type="curve" smooth="yes"/>
      <point x="818" y="-10" type="line" smooth="yes"/>
      <point x="794" y="-10"/>
      <point x="776" y="3"/>
      <point x="776" y="20" type="curve" smooth="yes"/>
      <point x="776" y="126"/>
      <point x="781" y="218"/>
      <point x="781" y="290" type="curve" smooth="yes"/>
      <point x="781" y="509"/>
      <point x="744" y="549"/>
      <point x="693" y="549" type="curve" smooth="yes"/>
      <point x="640" y="549"/>
      <point x="584" y="501"/>
      <point x="564" y="366" type="curve" smooth="yes"/>
      <point x="538" y="194"/>
      <point x="540" y="111"/>
      <point x="534" y="16" type="curve"/>
      <point x="534" y="16"/>
      <point x="499" y="-10"/>
    </contour>
  </outline>
</glyph>
<glyph name="o" format="1">
  <advance width="660"/>
  <unicode hex="006F"/>
  <outline>
    <contour>
      <point x="370" y="0" type="move" name="LatinOgonek.mark"/>
    </contour>
    <contour>
      <point x="330" y="0" type="move" name="LatinBelow.mark"/>
    </contour>
    <contour>
      <point x="330" y="0" type="move" name="LatinAbove.mark"/>
    </contour>
    <contour>
      <point x="456" y="471" type="curve"/>
      <point x="436" y="527"/>
      <point x="383" y="552"/>
      <point x="334" y="552" type="curve" smooth="yes"/>
      <point x="321" y="552"/>
      <point x="309" y="550"/>
      <point x="297" y="547" type="curve" smooth="yes"/>
      <point x="240" y="531"/>
      <point x="159" y="464"/>
      <point x="159" y="300" type="curve" smooth="yes"/>
      <point x="159" y="118"/>
      <point x="269" y="51"/>
      <point x="343" y="51" type="curve" smooth="yes"/>
      <point x="347" y="51"/>
      <point x="351" y="52"/>
      <point x="355" y="52" type="curve" smooth="yes"/>
      <point x="414" y="58"/>
      <point x="506" y="119"/>
      <point x="506" y="285" type="curve" smooth="yes"/>
      <point x="506" y="341"/>
      <point x="480" y="406"/>
      <point x="466" y="416" type="curve"/>
      <point x="451" y="421"/>
      <point x="441" y="431"/>
      <point x="441" y="444" type="curve" smooth="yes"/>
      <point x="441" y="449"/>
      <point x="442" y="455"/>
      <point x="446" y="460" type="curve" smooth="yes"/>
      <point x="448" y="464"/>
      <point x="452" y="468"/>
    </contour>
    <contour>
      <point x="546" y="465" type="curve"/>
      <point x="588" y="428"/>
      <point x="604" y="356"/>
      <point x="604" y="295" type="curve" smooth="yes"/>
      <point x="604" y="119"/>
      <point x="503" y="-3"/>
      <point x="356" y="-19" type="curve" smooth="yes"/>
      <point x="346" y="-20"/>
      <point x="335" y="-21"/>
      <point x="325" y="-21" type="curve" smooth="yes"/>
      <point x="176" y="-21"/>
      <point x="61" y="99"/>
      <point x="61" y="290" type="curve" smooth="yes"/>
      <point x="61" y="468"/>
      <point x="150" y="580"/>
      <point x="277" y="614" type="curve" smooth="yes"/>
      <point x="302" y="621"/>
      <point x="326" y="624"/>
      <point x="350" y="624" type="curve" smooth="yes"/>
      <point x="446" y="624"/>
      <point x="528" y="572"/>
      <point x="553" y="493" type="curve" smooth="yes"/>
      <point x="554" y="491"/>
      <point x="554" y="488"/>
      <point x="554" y="486" type="curve" smooth="yes"/>
      <point x="554" y="479"/>
      <point x="551" y="472"/>
    </contour>
  </outline>
</glyph>
<glyph name="p" format="1">
  <advance width="680"/>
  <unicode hex="0070"/>
  <outline>
    <contour>
      <point x="180" y="-180" type="move" name="LatinBelow.mark"/>
    </contour>
    <contour>
      <point x="360" y="0" type="move" name="LatinAbove.mark"/>
    </contour>
    <contour>
      <point x="147" y="-246" type="curve" smooth="yes"/>
      <point x="142" y="-246" type="line" smooth="yes"/>
      <point x="118" y="-246"/>
      <point x="101" y="-231"/>
      <point x="101" y="-214" type="curve" smooth="yes"/>
      <point x="101" y="-213" type="line"/>
      <point x="106" y="-147"/>
      <point x="108" y="-24"/>
      <point x="108" y="89" type="curve" smooth="yes"/>
      <point x="108" y="156"/>
      <point x="107" y="219"/>
      <point x="106" y="264" type="curve" smooth="yes"/>
      <point x="102" y="400"/>
      <point x="79" y="520"/>
      <point x="46" y="565" type="curve" smooth="yes"/>
      <point x="43" y="570"/>
      <point x="41" y="575"/>
      <point x="41" y="580" type="curve" smooth="yes"/>
      <point x="41" y="593"/>
      <point x="51" y="606"/>
      <point x="68" y="614" type="curve" smooth="yes"/>
      <point x="77" y="618"/>
      <point x="87" y="620"/>
      <point x="96" y="620" type="curve" smooth="yes"/>
      <point x="110" y="620"/>
      <point x="122" y="615"/>
      <point x="129" y="605" type="curve" smooth="yes"/>
      <point x="149" y="574"/>
      <point x="163" y="530"/>
      <point x="172" y="476" type="curve"/>
      <point x="201" y="552"/>
      <point x="255" y="621"/>
      <point x="367" y="621" type="curve" smooth="yes"/>
      <point x="552" y="621"/>
      <point x="622" y="465"/>
      <point x="622" y="320" type="curve" smooth="yes"/>
      <point x="622" y="291"/>
      <point x="619" y="262"/>
      <point x="614" y="235" type="curve" smooth="yes"/>
      <point x="590" y="118"/>
      <point x="506" y="-16"/>
      <point x="333" y="-16" type="curve" smooth="yes"/>
      <point x="276" y="-16"/>
      <point x="234" y="4"/>
      <point x="203" y="33" type="curve"/>
      <point x="203" y="-32" type="line" smooth="yes"/>
      <point x="203" y="-101"/>
      <point x="202" y="-165"/>
      <point x="199" y="-207" type="curve" smooth="yes"/>
      <point x="198" y="-226"/>
      <point x="174" y="-244"/>
    </contour>
    <contour>
      <point x="202" y="174" type="line"/>
      <point x="220" y="116"/>
      <point x="265" y="56"/>
      <point x="347" y="56" type="curve" smooth="yes"/>
      <point x="426" y="56"/>
      <point x="493" y="121"/>
      <point x="516" y="235" type="curve" smooth="yes"/>
      <point x="521" y="259"/>
      <point x="523" y="283"/>
      <point x="523" y="307" type="curve" smooth="yes"/>
      <point x="523" y="438"/>
      <point x="452" y="549"/>
      <point x="353" y="549" type="curve" smooth="yes"/>
      <point x="277" y="549"/>
      <point x="232" y="468"/>
      <point x="208" y="348" type="curve" smooth="yes"/>
      <point x="205" y="332"/>
      <point x="202" y="316"/>
      <point x="199" y="301" type="curve" smooth="yes"/>
    </contour>
  </outline>
</glyph>
<glyph name="r" format="1">
  <advance width="510"/>
  <unicode hex="0072"/>
  <outline>
    <contour>
      <point x="210" y="0" type="move" name="LatinBelow.mark"/>
    </contour>
    <contour>
      <point x="210" y="0" type="move" name="LatinAbove.mark"/>
    </contour>
    <contour>
      <point x="196" y="-13" type="curve" smooth="yes"/>
      <point x="182" y="-13"/>
      <point x="172" y="2"/>
      <point x="171" y="14" type="curve" smooth="yes"/>
      <point x="165" y="147"/>
      <point x="166" y="230"/>
      <point x="146" y="351" type="curve" smooth="yes"/>
      <point x="129" y="456"/>
      <point x="86" y="527"/>
      <point x="47" y="536" type="curve" smooth="yes"/>
      <point x="30" y="540"/>
      <point x="20" y="552"/>
      <point x="20" y="565" type="curve" smooth="yes"/>
      <point x="20" y="571"/>
      <point x="22" y="577"/>
      <point x="26" y="582" type="curve" smooth="yes"/>
      <point x="36" y="596"/>
      <point x="58" y="606"/>
      <point x="78" y="606" type="curve" smooth="yes"/>
      <point x="83" y="606"/>
      <point x="88" y="605"/>
      <point x="93" y="604" type="curve" smooth="yes"/>
      <point x="159" y="586"/>
      <point x="191" y="523"/>
      <point x="209" y="453" type="curve"/>
      <point x="226" y="533"/>
      <point x="263" y="615"/>
      <point x="361" y="621" type="curve"/>
      <point x="373" y="621" type="line" smooth="yes"/>
      <point x="410" y="621"/>
      <point x="443" y="609"/>
      <point x="475" y="589" type="curve" smooth="yes"/>
      <point x="485" y="583"/>
      <point x="489" y="575"/>
      <point x="489" y="566" type="curve" smooth="yes"/>
      <point x="489" y="557"/>
      <point x="485" y="547"/>
      <point x="475" y="539" type="curve" smooth="yes"/>
      <point x="463" y="529"/>
      <point x="447" y="524"/>
      <point x="432" y="524" type="curve" smooth="yes"/>
      <point x="422" y="524"/>
      <point x="412" y="526"/>
      <point x="405" y="531" type="curve" smooth="yes"/>
      <point x="378" y="548"/>
      <point x="361" y="549"/>
      <point x="355" y="549" type="curve" smooth="yes"/>
      <point x="336" y="549"/>
      <point x="287" y="494"/>
      <point x="279" y="382" type="curve" smooth="yes"/>
      <point x="272" y="284"/>
      <point x="271" y="229"/>
      <point x="271" y="175" type="curve" smooth="yes"/>
      <point x="271" y="147" type="line" smooth="yes"/>
      <point x="271" y="112"/>
      <point x="271" y="80"/>
      <point x="269" y="15" type="curve"/>
      <point x="269" y="15"/>
      <point x="238" y="-13"/>
    </contour>
  </outline>
</glyph>
<glyph name="t" format="1">
  <advance width="480"/>
  <unicode hex="0074"/>
  <outline>
    <contour>
      <point x="270" y="0" type="move" name="LatinCedilla.mark"/>
    </contour>
    <contour>
      <point x="270" y="0" type="move" name="LatinBelow.mark"/>
    </contour>
    <contour>
      <point x="180" y="120" type="move" name="LatinAbove.mark"/>
    </contour>
    <contour>
      <point x="183" y="750" type="curve" smooth="yes"/>
      <point x="186" y="750"/>
      <point x="190" y="751"/>
      <point x="193" y="751" type="curve" smooth="yes"/>
      <point x="216" y="751"/>
      <point x="233" y="739"/>
      <point x="234" y="722" type="curve" smooth="yes"/>
      <point x="235" y="708"/>
      <point x="235" y="693"/>
      <point x="235" y="679" type="curve" smooth="yes"/>
      <point x="235" y="650"/>
      <point x="234" y="622"/>
      <point x="234" y="593" type="curve"/>
      <point x="267" y="593"/>
      <point x="313" y="594"/>
      <point x="365" y="596" type="curve" smooth="yes"/>
      <point x="367" y="596" type="line" smooth="yes"/>
      <point x="391" y="596"/>
      <point x="409" y="583"/>
      <point x="409" y="566" type="curve" smooth="yes"/>
      <point x="409" y="562" type="line" smooth="yes"/>
      <point x="406" y="543"/>
      <point x="382" y="525"/>
      <point x="355" y="524" type="curve" smooth="yes"/>
      <point x="309" y="522"/>
      <point x="271" y="522"/>
      <point x="239" y="522" type="curve"/>
      <point x="237" y="394"/>
      <point x="229" y="270"/>
      <point x="229" y="155" type="curve" smooth="yes"/>
      <point x="229" y="111"/>
      <point x="247" y="77"/>
      <point x="268" y="62" type="curve" smooth="yes"/>
      <point x="276" y="56"/>
      <point x="285" y="51"/>
      <point x="297" y="51" type="curve" smooth="yes"/>
      <point x="313" y="51"/>
      <point x="334" y="59"/>
      <point x="367" y="83" type="curve" smooth="yes"/>
      <point x="378" y="91"/>
      <point x="393" y="96"/>
      <point x="407" y="96" type="curve" smooth="yes"/>
      <point x="418" y="96"/>
      <point x="429" y="93"/>
      <point x="437" y="87" type="curve" smooth="yes"/>
      <point x="445" y="81"/>
      <point x="449" y="73"/>
      <point x="449" y="65" type="curve" smooth="yes"/>
      <point x="449" y="55"/>
      <point x="444" y="45"/>
      <point x="433" y="37" type="curve" smooth="yes"/>
      <point x="383" y="0"/>
      <point x="329" y="-18"/>
      <point x="281" y="-18" type="curve" smooth="yes"/>
      <point x="248" y="-18"/>
      <point x="217" y="-9"/>
      <point x="193" y="8" type="curve" smooth="yes"/>
      <point x="150" y="39"/>
      <point x="131" y="90"/>
      <point x="131" y="145" type="curve" smooth="yes"/>
      <point x="131" y="266"/>
      <point x="140" y="394"/>
      <point x="141" y="524" type="curve"/>
      <point x="114" y="525"/>
      <point x="87" y="526"/>
      <point x="57" y="529" type="curve" smooth="yes"/>
      <point x="35" y="531"/>
      <point x="20" y="544"/>
      <point x="20" y="560" type="curve" smooth="yes"/>
      <point x="20" y="563"/>
      <point x="21" y="566"/>
      <point x="22" y="569" type="curve" smooth="yes"/>
      <point x="29" y="587"/>
      <point x="53" y="601"/>
      <point x="78" y="601" type="curve" smooth="yes"/>
      <point x="83" y="601" type="line" smooth="yes"/>
      <point x="104" y="599"/>
      <point x="127" y="597"/>
      <point x="145" y="596" type="curve"/>
      <point x="144" y="633"/>
      <point x="139" y="671"/>
      <point x="136" y="708" type="curve" smooth="yes"/>
      <point x="136" y="709" type="line" smooth="yes"/>
      <point x="136" y="728"/>
      <point x="157" y="746"/>
    </contour>
  </outline>
</glyph>
<glyph name="v" format="1">
  <advance width="630"/>
  <unicode hex="0076"/>
  <outline>
    <contour>
      <point x="315" y="0" type="move" name="LatinBelow.mark"/>
    </contour>
    <contour>
      <point x="315" y="0" type="move" name="LatinAbove.mark"/>
    </contour>
    <contour>
      <point x="556" y="591" type="line" smooth="yes"/>
      <point x="578" y="590"/>
      <point x="594" y="577"/>
      <point x="594" y="561" type="curve" smooth="yes"/>
      <point x="594" y="558"/>
      <point x="594" y="556"/>
      <point x="593" y="553" type="curve" smooth="yes"/>
      <point x="568" y="469"/>
      <point x="474" y="222"/>
      <point x="361" y="12" type="curve"/>
      <point x="361" y="12"/>
      <point x="326" y="-18"/>
      <point x="298" y="-18" type="curve" smooth="yes"/>
      <point x="285" y="-18"/>
      <point x="273" y="-11"/>
      <point x="267" y="7" type="curve" smooth="yes"/>
      <point x="266" y="10"/>
      <point x="264" y="14"/>
      <point x="263" y="18" type="curve" smooth="yes"/>
      <point x="220" y="143"/>
      <point x="116" y="420"/>
      <point x="39" y="547" type="curve" smooth="yes"/>
      <point x="37" y="551"/>
      <point x="35" y="556"/>
      <point x="35" y="560" type="curve" smooth="yes"/>
      <point x="35" y="574"/>
      <point x="47" y="588"/>
      <point x="66" y="596" type="curve" smooth="yes"/>
      <point x="74" y="599"/>
      <point x="83" y="601"/>
      <point x="91" y="601" type="curve" smooth="yes"/>
      <point x="108" y="601"/>
      <point x="124" y="594"/>
      <point x="131" y="583" type="curve" smooth="yes"/>
      <point x="197" y="475"/>
      <point x="274" y="270"/>
      <point x="326" y="129" type="curve"/>
      <point x="410" y="302"/>
      <point x="478" y="494"/>
      <point x="497" y="557" type="curve" smooth="yes"/>
      <point x="503" y="575"/>
      <point x="529" y="591"/>
      <point x="554" y="591" type="curve" smooth="yes"/>
    </contour>
  </outline>
</glyph>
<glyph name="braceleft" format="1">
  <advance width="360"/>
  <unicode hex="007B"/>
  <outline>
    <contour>
      <point x="299" y="860" type="line" smooth="yes"/>
      <point x="296" y="844"/>
      <point x="275" y="831"/>
      <point x="254" y="831" type="curve" smooth="yes"/>
      <point x="243" y="831"/>
      <point x="235" y="831"/>
      <point x="228" y="830" type="curve" smooth="yes"/>
      <point x="203" y="826"/>
      <point x="194" y="810"/>
      <point x="194" y="772" type="curve" smooth="yes"/>
      <point x="194" y="745"/>
      <point x="199" y="707"/>
      <point x="205" y="655" type="curve" smooth="yes"/>
      <point x="209" y="620"/>
      <point x="215" y="583"/>
      <point x="215" y="548" type="curve" smooth="yes"/>
      <point x="215" y="491"/>
      <point x="200" y="437"/>
      <point x="140" y="399" type="curve"/>
      <point x="195" y="358"/>
      <point x="207" y="302"/>
      <point x="207" y="247" type="curve" smooth="yes"/>
      <point x="207" y="218"/>
      <point x="204" y="190"/>
      <point x="201" y="164" type="curve" smooth="yes"/>
      <point x="196" y="121"/>
      <point x="192" y="85"/>
      <point x="192" y="55" type="curve" smooth="yes"/>
      <point x="192" y="0"/>
      <point x="207" y="-31"/>
      <point x="266" y="-31" type="curve" smooth="yes"/>
      <point x="285" y="-31"/>
      <point x="299" y="-42"/>
      <point x="299" y="-56" type="curve" smooth="yes"/>
      <point x="299" y="-60" type="line" smooth="yes"/>
      <point x="296" y="-76"/>
      <point x="275" y="-89"/>
      <point x="254" y="-89" type="curve" smooth="yes"/>
      <point x="137" y="-89"/>
      <point x="112" y="-25"/>
      <point x="112" y="46" type="curve" smooth="yes"/>
      <point x="112" y="85"/>
      <point x="119" y="126"/>
      <point x="123" y="160" type="curve" smooth="yes"/>
      <point x="126" y="186"/>
      <point x="128" y="211"/>
      <point x="128" y="235" type="curve" smooth="yes"/>
      <point x="128" y="296"/>
      <point x="112" y="348"/>
      <point x="47" y="375" type="curve" smooth="yes"/>
      <point x="29" y="383"/>
      <point x="22" y="390"/>
      <point x="22" y="397" type="curve" smooth="yes"/>
      <point x="22" y="414"/>
      <point x="61" y="427"/>
      <point x="61" y="427" type="curve"/>
      <point x="117" y="442"/>
      <point x="134" y="482"/>
      <point x="134" y="546" type="curve" smooth="yes"/>
      <point x="134" y="573"/>
      <point x="131" y="605"/>
      <point x="127" y="641" type="curve" smooth="yes"/>
      <point x="123" y="678"/>
      <point x="113" y="721"/>
      <point x="113" y="761" type="curve" smooth="yes"/>
      <point x="113" y="819"/>
      <point x="134" y="871"/>
      <point x="222" y="885" type="curve" smooth="yes"/>
      <point x="236" y="887"/>
      <point x="251" y="889"/>
      <point x="266" y="889" type="curve" smooth="yes"/>
      <point x="285" y="889"/>
      <point x="299" y="878"/>
      <point x="299" y="864" type="curve" smooth="yes"/>
    </contour>
  </outline>
</glyph>
<glyph name="bar" format="1">
  <advance width="360"/>
  <unicode hex="007C"/>
  <outline>
    <contour>
      <point x="174" y="890" type="curve" smooth="yes"/>
      <point x="176" y="890"/>
      <point x="177" y="890"/>
      <point x="179" y="890" type="curve" smooth="yes"/>
      <point x="199" y="890"/>
      <point x="215" y="879"/>
      <point x="215" y="864" type="curve" smooth="yes"/>
      <point x="220" y="688"/>
      <point x="222" y="537"/>
      <point x="222" y="368" type="curve" smooth="yes"/>
      <point x="222" y="242"/>
      <point x="221" y="107"/>
      <point x="220" y="-57" type="curve" smooth="yes"/>
      <point x="220" y="-74"/>
      <point x="202" y="-88"/>
      <point x="180" y="-90" type="curve" smooth="yes"/>
      <point x="178" y="-90"/>
      <point x="177" y="-90"/>
      <point x="175" y="-90" type="curve" smooth="yes"/>
      <point x="155" y="-90"/>
      <point x="140" y="-79"/>
      <point x="140" y="-63" type="curve" smooth="yes"/>
      <point x="141" y="101"/>
      <point x="142" y="237"/>
      <point x="142" y="362" type="curve" smooth="yes"/>
      <point x="142" y="531"/>
      <point x="140" y="680"/>
      <point x="135" y="856" type="curve" smooth="yes"/>
      <point x="135" y="872"/>
      <point x="152" y="888"/>
    </contour>
  </outline>
</glyph>
<glyph name="exclamdown" format="1">
  <advance width="330"/>
  <unicode hex="00A1"/>
  <outline>
    <contour>
      <point x="99" y="489" type="curve" smooth="yes"/>
      <point x="97" y="491"/>
      <point x="81" y="506"/>
      <point x="81" y="530" type="curve" smooth="yes"/>
      <point x="81" y="534"/>
      <point x="81" y="539"/>
      <point x="82" y="543" type="curve" smooth="yes"/>
      <point x="87" y="569"/>
      <point x="120" y="606"/>
      <point x="175" y="606" type="curve" smooth="yes"/>
      <point x="225" y="606"/>
      <point x="249" y="575"/>
      <point x="249" y="545" type="curve" smooth="yes"/>
      <point x="249" y="522"/>
      <point x="227" y="469"/>
      <point x="155" y="469" type="curve" smooth="yes"/>
      <point x="149" y="469"/>
      <point x="143" y="470"/>
      <point x="139" y="471" type="curve" smooth="yes"/>
      <point x="123" y="475" type="line" smooth="yes"/>
      <point x="113" y="478"/>
      <point x="104" y="483"/>
    </contour>
    <contour>
      <point x="194" y="-227" type="curve" smooth="yes"/>
      <point x="154" y="-234" type="line" smooth="yes"/>
      <point x="151" y="-235"/>
      <point x="147" y="-235"/>
      <point x="143" y="-235" type="curve" smooth="yes"/>
      <point x="128" y="-235"/>
      <point x="110" y="-229"/>
      <point x="110" y="-211" type="curve" smooth="yes"/>
      <point x="110" y="-210" type="line" smooth="yes"/>
      <point x="112" y="-124"/>
      <point x="108" y="27"/>
      <point x="125" y="298" type="curve" smooth="yes"/>
      <point x="126" y="316"/>
      <point x="154" y="333"/>
      <point x="177" y="333" type="curve" smooth="yes"/>
      <point x="192" y="333"/>
      <point x="204" y="326"/>
      <point x="205" y="306" type="curve" smooth="yes"/>
      <point x="213" y="168"/>
      <point x="219" y="-108"/>
      <point x="229" y="-193" type="curve" smooth="yes"/>
      <point x="229" y="-194"/>
      <point x="229" y="-194"/>
      <point x="229" y="-195" type="curve" smooth="yes"/>
      <point x="229" y="-210"/>
      <point x="212" y="-224"/>
    </contour>
  </outline>
</glyph>
<glyph name="cent" format="1">
  <advance width="600"/>
  <unicode hex="00A2"/>
  <outline>
    <contour>
      <point x="336" y="-130" type="curve" smooth="yes"/>
      <point x="335" y="-130"/>
      <point x="333" y="-130"/>
      <point x="332" y="-130" type="curve" smooth="yes"/>
      <point x="315" y="-130"/>
      <point x="301" y="-118"/>
      <point x="300" y="-103" type="curve" smooth="yes"/>
      <point x="298" y="-42"/>
      <point x="296" y="15"/>
      <point x="295" y="69" type="curve"/>
      <point x="164" y="82"/>
      <point x="58" y="184"/>
      <point x="58" y="380" type="curve" smooth="yes"/>
      <point x="58" y="566"/>
      <point x="162" y="680"/>
      <point x="293" y="707" type="curve"/>
      <point x="294" y="766"/>
      <point x="294" y="830"/>
      <point x="295" y="898" type="curve" smooth="yes"/>
      <point x="295" y="914"/>
      <point x="311" y="929"/>
      <point x="330" y="930" type="curve" smooth="yes"/>
      <point x="331" y="930"/>
      <point x="331" y="930"/>
      <point x="332" y="930" type="curve" smooth="yes"/>
      <point x="350" y="930"/>
      <point x="365" y="917"/>
      <point x="365" y="902" type="curve" smooth="yes"/>
      <point x="364" y="835"/>
      <point x="364" y="773"/>
      <point x="363" y="714" type="curve"/>
      <point x="461" y="710"/>
      <point x="537" y="652"/>
      <point x="537" y="565" type="curve" smooth="yes"/>
      <point x="537" y="545"/>
      <point x="513" y="526"/>
      <point x="485" y="523" type="curve" smooth="yes"/>
      <point x="478" y="523" type="line" smooth="yes"/>
      <point x="453" y="523"/>
      <point x="433" y="537"/>
      <point x="433" y="555" type="curve" smooth="yes"/>
      <point x="433" y="601"/>
      <point x="401" y="628"/>
      <point x="362" y="636" type="curve"/>
      <point x="361" y="559"/>
      <point x="360" y="486"/>
      <point x="360" y="414" type="curve" smooth="yes"/>
      <point x="360" y="327"/>
      <point x="361" y="240"/>
      <point x="363" y="146" type="curve"/>
      <point x="405" y="152"/>
      <point x="443" y="174"/>
      <point x="463" y="206" type="curve" smooth="yes"/>
      <point x="473" y="222"/>
      <point x="495" y="233"/>
      <point x="517" y="233" type="curve" smooth="yes"/>
      <point x="522" y="233"/>
      <point x="527" y="232"/>
      <point x="532" y="231" type="curve" smooth="yes"/>
      <point x="551" y="227"/>
      <point x="562" y="214"/>
      <point x="562" y="200" type="curve" smooth="yes"/>
      <point x="562" y="195"/>
      <point x="560" y="189"/>
      <point x="557" y="184" type="curve" smooth="yes"/>
      <point x="520" y="124"/>
      <point x="446" y="82"/>
      <point x="365" y="71" type="curve"/>
      <point x="366" y="18"/>
      <point x="368" y="-37"/>
      <point x="370" y="-97" type="curve" smooth="yes"/>
      <point x="370" y="-98" type="line" smooth="yes"/>
      <point x="370" y="-113"/>
      <point x="354" y="-128"/>
    </contour>
    <contour>
      <point x="293" y="151" type="curve"/>
      <point x="291" y="242"/>
      <point x="290" y="326"/>
      <point x="290" y="410" type="curve" smooth="yes"/>
      <point x="290" y="482"/>
      <point x="291" y="553"/>
      <point x="292" y="630" type="curve"/>
      <point x="235" y="610"/>
      <point x="162" y="546"/>
      <point x="162" y="390" type="curve" smooth="yes"/>
      <point x="162" y="235"/>
      <point x="229" y="171"/>
    </contour>
  </outline>
</glyph>
<glyph name="sterling" format="1">
  <advance width="720"/>
  <unicode hex="00A3"/>
  <outline>
    <contour>
      <point x="77" y="474" type="curve" smooth="yes"/>
      <point x="83" y="490"/>
      <point x="106" y="501"/>
      <point x="128" y="501" type="curve" smooth="yes"/>
      <point x="130" y="501"/>
      <point x="131" y="501"/>
      <point x="133" y="501" type="curve" smooth="yes"/>
      <point x="157" y="499"/>
      <point x="188" y="496"/>
      <point x="224" y="495" type="curve"/>
      <point x="219" y="539"/>
      <point x="215" y="583"/>
      <point x="213" y="624" type="curve" smooth="yes"/>
      <point x="213" y="629"/>
      <point x="212" y="635"/>
      <point x="212" y="640" type="curve" smooth="yes"/>
      <point x="212" y="737"/>
      <point x="274" y="819"/>
      <point x="376" y="831" type="curve" smooth="yes"/>
      <point x="384" y="832"/>
      <point x="393" y="833"/>
      <point x="401" y="833" type="curve" smooth="yes"/>
      <point x="472" y="833"/>
      <point x="536" y="795"/>
      <point x="577" y="732" type="curve" smooth="yes"/>
      <point x="580" y="727"/>
      <point x="582" y="721"/>
      <point x="582" y="715" type="curve" smooth="yes"/>
      <point x="582" y="700"/>
      <point x="572" y="685"/>
      <point x="553" y="676" type="curve" smooth="yes"/>
      <point x="544" y="672"/>
      <point x="533" y="670"/>
      <point x="523" y="670" type="curve" smooth="yes"/>
      <point x="506" y="670"/>
      <point x="491" y="676"/>
      <point x="483" y="688" type="curve" smooth="yes"/>
      <point x="450" y="738"/>
      <point x="411" y="751"/>
      <point x="388" y="751" type="curve" smooth="yes"/>
      <point x="385" y="751"/>
      <point x="383" y="751"/>
      <point x="381" y="751" type="curve" smooth="yes"/>
      <point x="359" y="748"/>
      <point x="316" y="725"/>
      <point x="316" y="651" type="curve" smooth="yes"/>
      <point x="316" y="646"/>
      <point x="317" y="641"/>
      <point x="317" y="636" type="curve" smooth="yes"/>
      <point x="320" y="591"/>
      <point x="322" y="543"/>
      <point x="324" y="493" type="curve"/>
      <point x="337" y="493"/>
      <point x="350" y="493"/>
      <point x="363" y="493" type="curve" smooth="yes"/>
      <point x="416" y="493"/>
      <point x="470" y="494"/>
      <point x="520" y="496" type="curve" smooth="yes"/>
      <point x="521" y="496"/>
      <point x="522" y="496"/>
      <point x="523" y="496" type="curve" smooth="yes"/>
      <point x="544" y="496"/>
      <point x="559" y="486"/>
      <point x="559" y="471" type="curve" smooth="yes"/>
      <point x="559" y="470"/>
      <point x="559" y="468"/>
      <point x="559" y="467" type="curve" smooth="yes"/>
      <point x="556" y="450"/>
      <point x="534" y="435"/>
      <point x="510" y="434" type="curve" smooth="yes"/>
      <point x="458" y="432"/>
      <point x="402" y="431"/>
      <point x="348" y="431" type="curve" smooth="yes"/>
      <point x="341" y="431"/>
      <point x="333" y="431"/>
      <point x="326" y="431" type="curve"/>
      <point x="327" y="389"/>
      <point x="329" y="347"/>
      <point x="330" y="305" type="curve" smooth="yes"/>
      <point x="330" y="213" type="line"/>
      <point x="337" y="208"/>
      <point x="344" y="202"/>
      <point x="351" y="197" type="curve" smooth="yes"/>
      <point x="375" y="178"/>
      <point x="399" y="161"/>
      <point x="420" y="145" type="curve" smooth="yes"/>
      <point x="491" y="91"/>
      <point x="528" y="71"/>
      <point x="561" y="71" type="curve" smooth="yes"/>
      <point x="563" y="71"/>
      <point x="564" y="71"/>
      <point x="565" y="71" type="curve" smooth="yes"/>
      <point x="583" y="72"/>
      <point x="599" y="97"/>
      <point x="599" y="145" type="curve" smooth="yes"/>
      <point x="599" y="161"/>
      <point x="597" y="180"/>
      <point x="593" y="201" type="curve" smooth="yes"/>
      <point x="593" y="203"/>
      <point x="593" y="204"/>
      <point x="593" y="206" type="curve" smooth="yes"/>
      <point x="593" y="226"/>
      <point x="613" y="245"/>
      <point x="639" y="250" type="curve" smooth="yes"/>
      <point x="643" y="251"/>
      <point x="646" y="251"/>
      <point x="650" y="251" type="curve" smooth="yes"/>
      <point x="674" y="251"/>
      <point x="694" y="238"/>
      <point x="697" y="219" type="curve" smooth="yes"/>
      <point x="699" y="205"/>
      <point x="702" y="186"/>
      <point x="702" y="164" type="curve" smooth="yes"/>
      <point x="702" y="98"/>
      <point x="681" y="11"/>
      <point x="578" y="-8" type="curve" smooth="yes"/>
      <point x="569" y="-10"/>
      <point x="558" y="-11"/>
      <point x="549" y="-11" type="curve" smooth="yes"/>
      <point x="476" y="-11"/>
      <point x="415" y="50"/>
      <point x="350" y="100" type="curve" smooth="yes"/>
      <point x="341" y="107"/>
      <point x="330" y="117"/>
      <point x="320" y="125" type="curve"/>
      <point x="319" y="118"/>
      <point x="319" y="106"/>
      <point x="317" y="100" type="curve" smooth="yes"/>
      <point x="308" y="63"/>
      <point x="297" y="25"/>
      <point x="249" y="4" type="curve" smooth="yes"/>
      <point x="235" y="-2"/>
      <point x="218" y="-6"/>
      <point x="203" y="-6" type="curve" smooth="yes"/>
      <point x="84" y="-6"/>
      <point x="46" y="81"/>
      <point x="46" y="145" type="curve" smooth="yes"/>
      <point x="46" y="156"/>
      <point x="47" y="167"/>
      <point x="49" y="177" type="curve" smooth="yes"/>
      <point x="59" y="221"/>
      <point x="102" y="276"/>
      <point x="187" y="276" type="curve" smooth="yes"/>
      <point x="208" y="276"/>
      <point x="225" y="271"/>
      <point x="241" y="265" type="curve"/>
      <point x="241" y="274"/>
      <point x="240" y="285"/>
      <point x="240" y="295" type="curve" smooth="yes"/>
      <point x="239" y="341"/>
      <point x="235" y="388"/>
      <point x="231" y="433" type="curve"/>
      <point x="183" y="434"/>
      <point x="140" y="436"/>
      <point x="107" y="439" type="curve" smooth="yes"/>
      <point x="88" y="441"/>
      <point x="75" y="452"/>
      <point x="75" y="465" type="curve" smooth="yes"/>
      <point x="75" y="468"/>
      <point x="76" y="471"/>
    </contour>
    <contour>
      <point x="240" y="182" type="curve"/>
      <point x="234" y="186"/>
      <point x="228" y="189"/>
      <point x="222" y="193" type="curve" smooth="yes"/>
      <point x="197" y="208"/>
      <point x="176" y="214"/>
      <point x="173" y="214" type="curve" smooth="yes"/>
      <point x="160" y="214"/>
      <point x="145" y="210"/>
      <point x="137" y="177" type="curve" smooth="yes"/>
      <point x="135" y="170"/>
      <point x="134" y="163"/>
      <point x="134" y="155" type="curve" smooth="yes"/>
      <point x="134" y="102"/>
      <point x="170" y="59"/>
      <point x="212" y="56" type="curve"/>
      <point x="222" y="68"/>
      <point x="233" y="105"/>
      <point x="238" y="157" type="curve" smooth="yes"/>
      <point x="239" y="165"/>
      <point x="240" y="173"/>
    </contour>
  </outline>
</glyph>
<glyph name="currency" format="1">
  <advance width="720"/>
  <unicode hex="00A4"/>
  <outline>
    <contour>
      <point x="398" y="622" type="curve"/>
      <point x="401" y="622"/>
      <point x="405" y="623"/>
      <point x="408" y="623" type="curve" smooth="yes"/>
      <point x="413" y="623"/>
      <point x="418" y="622"/>
      <point x="422" y="621" type="curve" smooth="yes"/>
      <point x="450" y="615"/>
      <point x="474" y="606"/>
      <point x="494" y="595" type="curve"/>
      <point x="516" y="618"/>
      <point x="540" y="640"/>
      <point x="565" y="665" type="curve" smooth="yes"/>
      <point x="576" y="676"/>
      <point x="594" y="683"/>
      <point x="611" y="683" type="curve" smooth="yes"/>
      <point x="619" y="683"/>
      <point x="627" y="681"/>
      <point x="634" y="678" type="curve" smooth="yes"/>
      <point x="646" y="672"/>
      <point x="652" y="663"/>
      <point x="652" y="653" type="curve" smooth="yes"/>
      <point x="652" y="645"/>
      <point x="648" y="636"/>
      <point x="641" y="629" type="curve" smooth="yes"/>
      <point x="610" y="599"/>
      <point x="582" y="570"/>
      <point x="555" y="542" type="curve"/>
      <point x="590" y="495"/>
      <point x="601" y="435"/>
      <point x="601" y="376" type="curve" smooth="yes"/>
      <point x="601" y="364"/>
      <point x="600" y="353"/>
      <point x="598" y="342" type="curve" smooth="yes"/>
      <point x="592" y="310"/>
      <point x="576" y="281"/>
      <point x="554" y="256" type="curve"/>
      <point x="588" y="219"/>
      <point x="621" y="183"/>
      <point x="654" y="145" type="curve" smooth="yes"/>
      <point x="658" y="140"/>
      <point x="660" y="135"/>
      <point x="660" y="129" type="curve" smooth="yes"/>
      <point x="660" y="117"/>
      <point x="652" y="103"/>
      <point x="636" y="95" type="curve" smooth="yes"/>
      <point x="626" y="90"/>
      <point x="616" y="88"/>
      <point x="605" y="88" type="curve" smooth="yes"/>
      <point x="590" y="88"/>
      <point x="576" y="92"/>
      <point x="568" y="101" type="curve" smooth="yes"/>
      <point x="538" y="135"/>
      <point x="509" y="167"/>
      <point x="479" y="200" type="curve"/>
      <point x="438" y="179"/>
      <point x="390" y="167"/>
      <point x="341" y="167" type="curve" smooth="yes"/>
      <point x="304" y="167"/>
      <point x="269" y="176"/>
      <point x="237" y="192" type="curve"/>
      <point x="211" y="164"/>
      <point x="184" y="137"/>
      <point x="156" y="107" type="curve" smooth="yes"/>
      <point x="145" y="95"/>
      <point x="125" y="87"/>
      <point x="107" y="87" type="curve" smooth="yes"/>
      <point x="100" y="87"/>
      <point x="93" y="88"/>
      <point x="87" y="91" type="curve" smooth="yes"/>
      <point x="74" y="96"/>
      <point x="67" y="107"/>
      <point x="67" y="118" type="curve" smooth="yes"/>
      <point x="67" y="125"/>
      <point x="70" y="132"/>
      <point x="76" y="139" type="curve" smooth="yes"/>
      <point x="110" y="177"/>
      <point x="141" y="208"/>
      <point x="171" y="240" type="curve"/>
      <point x="139" y="276"/>
      <point x="119" y="323"/>
      <point x="119" y="378" type="curve" smooth="yes"/>
      <point x="119" y="392"/>
      <point x="120" y="405"/>
      <point x="122" y="419" type="curve" smooth="yes"/>
      <point x="128" y="457"/>
      <point x="142" y="495"/>
      <point x="166" y="527" type="curve"/>
      <point x="132" y="561"/>
      <point x="101" y="591"/>
      <point x="67" y="623" type="curve" smooth="yes"/>
      <point x="61" y="628"/>
      <point x="59" y="634"/>
      <point x="59" y="641" type="curve" smooth="yes"/>
      <point x="59" y="652"/>
      <point x="66" y="665"/>
      <point x="80" y="673" type="curve" smooth="yes"/>
      <point x="90" y="679"/>
      <point x="103" y="682"/>
      <point x="115" y="682" type="curve" smooth="yes"/>
      <point x="128" y="682"/>
      <point x="141" y="678"/>
      <point x="149" y="671" type="curve" smooth="yes"/>
      <point x="178" y="644"/>
      <point x="205" y="617"/>
      <point x="234" y="589" type="curve"/>
      <point x="271" y="612"/>
      <point x="317" y="627"/>
      <point x="371" y="628" type="curve" smooth="yes"/>
      <point x="381" y="628"/>
      <point x="390" y="626"/>
    </contour>
    <contour>
      <point x="368" y="557" type="curve" smooth="yes"/>
      <point x="365" y="557"/>
      <point x="362" y="556"/>
      <point x="359" y="556" type="curve" smooth="yes"/>
      <point x="291" y="554"/>
      <point x="234" y="510"/>
      <point x="220" y="422" type="curve" smooth="yes"/>
      <point x="218" y="411"/>
      <point x="217" y="400"/>
      <point x="217" y="388" type="curve" smooth="yes"/>
      <point x="217" y="288"/>
      <point x="306" y="239"/>
      <point x="355" y="239" type="curve" smooth="yes"/>
      <point x="420" y="239"/>
      <point x="487" y="275"/>
      <point x="500" y="342" type="curve" smooth="yes"/>
      <point x="502" y="349"/>
      <point x="503" y="358"/>
      <point x="503" y="366" type="curve" smooth="yes"/>
      <point x="503" y="464"/>
      <point x="469" y="533"/>
      <point x="380" y="553" type="curve" smooth="yes"/>
      <point x="376" y="554"/>
      <point x="372" y="555"/>
    </contour>
  </outline>
</glyph>
<glyph name="yen" format="1">
  <advance width="720"/>
  <unicode hex="00A5"/>
  <outline>
    <contour>
      <point x="111" y="358" type="curve" smooth="yes"/>
      <point x="115" y="374"/>
      <point x="133" y="385"/>
      <point x="153" y="385" type="curve" smooth="yes"/>
      <point x="155" y="385"/>
      <point x="156" y="385"/>
      <point x="158" y="385" type="curve" smooth="yes"/>
      <point x="180" y="383"/>
      <point x="204" y="382"/>
      <point x="230" y="381" type="curve"/>
      <point x="213" y="401"/>
      <point x="198" y="423"/>
      <point x="182" y="448" type="curve" smooth="yes"/>
      <point x="126" y="535"/>
      <point x="75" y="646"/>
      <point x="37" y="755" type="curve" smooth="yes"/>
      <point x="36" y="758"/>
      <point x="35" y="761"/>
      <point x="35" y="764" type="curve" smooth="yes"/>
      <point x="35" y="782"/>
      <point x="52" y="800"/>
      <point x="77" y="807" type="curve" smooth="yes"/>
      <point x="84" y="809"/>
      <point x="90" y="810"/>
      <point x="97" y="810" type="curve" smooth="yes"/>
      <point x="119" y="810"/>
      <point x="138" y="800"/>
      <point x="143" y="785" type="curve" smooth="yes"/>
      <point x="179" y="680"/>
      <point x="230" y="571"/>
      <point x="282" y="490" type="curve" smooth="yes"/>
      <point x="309" y="449"/>
      <point x="337" y="404"/>
      <point x="360" y="382" type="curve"/>
      <point x="381" y="413"/>
      <point x="408" y="449"/>
      <point x="438" y="496" type="curve" smooth="yes"/>
      <point x="477" y="557"/>
      <point x="525" y="642"/>
      <point x="578" y="766" type="curve" smooth="yes"/>
      <point x="586" y="785"/>
      <point x="614" y="799"/>
      <point x="640" y="799" type="curve" smooth="yes"/>
      <point x="647" y="799" type="line" smooth="yes"/>
      <point x="670" y="797"/>
      <point x="685" y="783"/>
      <point x="685" y="766" type="curve" smooth="yes"/>
      <point x="685" y="762"/>
      <point x="684" y="758"/>
      <point x="682" y="754" type="curve" smooth="yes"/>
      <point x="627" y="626"/>
      <point x="577" y="537"/>
      <point x="536" y="472" type="curve" smooth="yes"/>
      <point x="511" y="432"/>
      <point x="490" y="401"/>
      <point x="473" y="377" type="curve"/>
      <point x="507" y="377"/>
      <point x="542" y="379"/>
      <point x="578" y="380" type="curve" smooth="yes"/>
      <point x="579" y="380"/>
      <point x="579" y="380"/>
      <point x="580" y="380" type="curve" smooth="yes"/>
      <point x="600" y="380"/>
      <point x="614" y="369"/>
      <point x="614" y="354" type="curve" smooth="yes"/>
      <point x="614" y="353"/>
      <point x="614" y="352"/>
      <point x="614" y="351" type="curve" smooth="yes"/>
      <point x="612" y="334"/>
      <point x="594" y="321"/>
      <point x="572" y="320" type="curve" smooth="yes"/>
      <point x="525" y="318"/>
      <point x="479" y="317"/>
      <point x="434" y="317" type="curve"/>
      <point x="424" y="299"/>
      <point x="419" y="283"/>
      <point x="419" y="265" type="curve" smooth="yes"/>
      <point x="418" y="250"/>
      <point x="418" y="236"/>
      <point x="418" y="222" type="curve"/>
      <point x="465" y="222"/>
      <point x="517" y="223"/>
      <point x="578" y="225" type="curve" smooth="yes"/>
      <point x="579" y="225"/>
      <point x="579" y="225"/>
      <point x="580" y="225" type="curve" smooth="yes"/>
      <point x="600" y="225"/>
      <point x="614" y="214"/>
      <point x="614" y="199" type="curve" smooth="yes"/>
      <point x="614" y="198"/>
      <point x="614" y="197"/>
      <point x="614" y="196" type="curve" smooth="yes"/>
      <point x="612" y="179"/>
      <point x="594" y="166"/>
      <point x="572" y="165" type="curve" smooth="yes"/>
      <point x="514" y="163"/>
      <point x="463" y="162"/>
      <point x="418" y="162" type="curve"/>
      <point x="419" y="118"/>
      <point x="421" y="75"/>
      <point x="424" y="28" type="curve" smooth="yes"/>
      <point x="424" y="25" type="line" smooth="yes"/>
      <point x="424" y="5"/>
      <point x="402" y="-15"/>
      <point x="373" y="-19" type="curve" smooth="yes"/>
      <point x="370" y="-19"/>
      <point x="366" y="-20"/>
      <point x="363" y="-20" type="curve" smooth="yes"/>
      <point x="338" y="-20"/>
      <point x="318" y="-7"/>
      <point x="316" y="12" type="curve" smooth="yes"/>
      <point x="312" y="64"/>
      <point x="310" y="114"/>
      <point x="310" y="163" type="curve"/>
      <point x="249" y="164"/>
      <point x="196" y="166"/>
      <point x="142" y="170" type="curve" smooth="yes"/>
      <point x="123" y="171"/>
      <point x="110" y="183"/>
      <point x="110" y="197" type="curve" smooth="yes"/>
      <point x="110" y="199"/>
      <point x="111" y="201"/>
      <point x="111" y="203" type="curve" smooth="yes"/>
      <point x="115" y="219"/>
      <point x="135" y="230"/>
      <point x="155" y="230" type="curve" smooth="yes"/>
      <point x="156" y="230"/>
      <point x="157" y="230"/>
      <point x="158" y="230" type="curve" smooth="yes"/>
      <point x="207" y="227"/>
      <point x="255" y="224"/>
      <point x="310" y="223" type="curve"/>
      <point x="310" y="234"/>
      <point x="311" y="244"/>
      <point x="311" y="255" type="curve" smooth="yes"/>
      <point x="311" y="273"/>
      <point x="314" y="289"/>
      <point x="319" y="305" type="curve"/>
      <point x="312" y="309"/>
      <point x="304" y="313"/>
      <point x="297" y="318" type="curve"/>
      <point x="240" y="319"/>
      <point x="188" y="322"/>
      <point x="142" y="325" type="curve" smooth="yes"/>
      <point x="123" y="327"/>
      <point x="110" y="338"/>
      <point x="110" y="352" type="curve" smooth="yes"/>
      <point x="110" y="354"/>
      <point x="111" y="356"/>
    </contour>
  </outline>
</glyph>
<glyph name="brokenbar" format="1">
  <advance width="360"/>
  <unicode hex="00A6"/>
  <outline>
    <contour>
      <point x="174" y="890" type="curve" smooth="yes"/>
      <point x="176" y="890"/>
      <point x="177" y="890"/>
      <point x="179" y="890" type="curve" smooth="yes"/>
      <point x="199" y="890"/>
      <point x="215" y="879"/>
      <point x="215" y="864" type="curve" smooth="yes"/>
      <point x="218" y="745"/>
      <point x="220" y="614"/>
      <point x="221" y="504" type="curve" smooth="yes"/>
      <point x="221" y="488"/>
      <point x="203" y="472"/>
      <point x="181" y="470" type="curve" smooth="yes"/>
      <point x="179" y="470"/>
      <point x="178" y="470"/>
      <point x="176" y="470" type="curve" smooth="yes"/>
      <point x="156" y="470"/>
      <point x="141" y="481"/>
      <point x="141" y="496" type="curve" smooth="yes"/>
      <point x="140" y="606"/>
      <point x="138" y="737"/>
      <point x="135" y="856" type="curve" smooth="yes"/>
      <point x="135" y="872"/>
      <point x="152" y="888"/>
    </contour>
    <contour>
      <point x="181" y="330" type="curve" smooth="yes"/>
      <point x="183" y="330"/>
      <point x="184" y="330"/>
      <point x="186" y="330" type="curve" smooth="yes"/>
      <point x="206" y="330"/>
      <point x="221" y="319"/>
      <point x="221" y="304" type="curve" smooth="yes"/>
      <point x="221" y="217"/>
      <point x="221" y="49"/>
      <point x="220" y="-57" type="curve" smooth="yes"/>
      <point x="220" y="-74"/>
      <point x="202" y="-88"/>
      <point x="180" y="-90" type="curve" smooth="yes"/>
      <point x="178" y="-90"/>
      <point x="177" y="-90"/>
      <point x="175" y="-90" type="curve" smooth="yes"/>
      <point x="155" y="-90"/>
      <point x="140" y="-79"/>
      <point x="140" y="-63" type="curve" smooth="yes"/>
      <point x="141" y="43"/>
      <point x="141" y="209"/>
      <point x="141" y="296" type="curve" smooth="yes"/>
      <point x="141" y="312"/>
      <point x="159" y="328"/>
    </contour>
  </outline>
</glyph>
<glyph name="section" format="1">
  <advance width="720"/>
  <unicode hex="00A7"/>
  <outline>
    <contour>
      <point x="535" y="587" type="curve" smooth="yes"/>
      <point x="534" y="587"/>
      <point x="534" y="587"/>
      <point x="533" y="587" type="curve" smooth="yes"/>
      <point x="509" y="587"/>
      <point x="491" y="600"/>
      <point x="491" y="617" type="curve" smooth="yes"/>
      <point x="491" y="618"/>
      <point x="491" y="620"/>
      <point x="491" y="621" type="curve" smooth="yes"/>
      <point x="492" y="627"/>
      <point x="492" y="632"/>
      <point x="492" y="638" type="curve" smooth="yes"/>
      <point x="492" y="701"/>
      <point x="443" y="747"/>
      <point x="384" y="747" type="curve" smooth="yes"/>
      <point x="310" y="747"/>
      <point x="261" y="724"/>
      <point x="232" y="693" type="curve" smooth="yes"/>
      <point x="212" y="672"/>
      <point x="201" y="646"/>
      <point x="201" y="619" type="curve" smooth="yes"/>
      <point x="201" y="574"/>
      <point x="231" y="527"/>
      <point x="305" y="495" type="curve" smooth="yes"/>
      <point x="346" y="477"/>
      <point x="452" y="429"/>
      <point x="483" y="415" type="curve" smooth="yes"/>
      <point x="499" y="408"/>
      <point x="512" y="400"/>
      <point x="525" y="392" type="curve" smooth="yes"/>
      <point x="587" y="351"/>
      <point x="615" y="295"/>
      <point x="615" y="239" type="curve" smooth="yes"/>
      <point x="615" y="185"/>
      <point x="590" y="130"/>
      <point x="546" y="88" type="curve"/>
      <point x="593" y="48"/>
      <point x="615" y="-2"/>
      <point x="615" y="-51" type="curve" smooth="yes"/>
      <point x="615" y="-62"/>
      <point x="614" y="-73"/>
      <point x="612" y="-84" type="curve" smooth="yes"/>
      <point x="594" y="-175"/>
      <point x="495" y="-266"/>
      <point x="343" y="-266" type="curve" smooth="yes"/>
      <point x="202" y="-266"/>
      <point x="117" y="-192"/>
      <point x="82" y="-98" type="curve" smooth="yes"/>
      <point x="81" y="-95"/>
      <point x="80" y="-93"/>
      <point x="80" y="-90" type="curve" smooth="yes"/>
      <point x="80" y="-74"/>
      <point x="96" y="-58"/>
      <point x="118" y="-51" type="curve" smooth="yes"/>
      <point x="124" y="-49"/>
      <point x="131" y="-48"/>
      <point x="137" y="-48" type="curve" smooth="yes"/>
      <point x="156" y="-48"/>
      <point x="173" y="-56"/>
      <point x="178" y="-70" type="curve" smooth="yes"/>
      <point x="207" y="-150"/>
      <point x="270" y="-194"/>
      <point x="357" y="-194" type="curve" smooth="yes"/>
      <point x="445" y="-194"/>
      <point x="501" y="-147"/>
      <point x="514" y="-84" type="curve" smooth="yes"/>
      <point x="515" y="-76"/>
      <point x="516" y="-69"/>
      <point x="516" y="-61" type="curve" smooth="yes"/>
      <point x="516" y="-11"/>
      <point x="485" y="40"/>
      <point x="412" y="70" type="curve" smooth="yes"/>
      <point x="378" y="84"/>
      <point x="291" y="124"/>
      <point x="252" y="139" type="curve" smooth="yes"/>
      <point x="159" y="175"/>
      <point x="120" y="244"/>
      <point x="120" y="312" type="curve" smooth="yes"/>
      <point x="120" y="359"/>
      <point x="138" y="406"/>
      <point x="171" y="443" type="curve" smooth="yes"/>
      <point x="177" y="449"/>
      <point x="183" y="456"/>
      <point x="190" y="462" type="curve"/>
      <point x="131" y="503"/>
      <point x="102" y="556"/>
      <point x="102" y="609" type="curve" smooth="yes"/>
      <point x="102" y="650"/>
      <point x="120" y="691"/>
      <point x="153" y="727" type="curve" smooth="yes"/>
      <point x="204" y="782"/>
      <point x="292" y="819"/>
      <point x="398" y="819" type="curve" smooth="yes"/>
      <point x="527" y="819"/>
      <point x="590" y="732"/>
      <point x="590" y="647" type="curve" smooth="yes"/>
      <point x="590" y="640"/>
      <point x="590" y="632"/>
      <point x="589" y="625" type="curve" smooth="yes"/>
      <point x="586" y="606"/>
      <point x="562" y="588"/>
    </contour>
    <contour>
      <point x="483" y="128" type="curve"/>
      <point x="507" y="153"/>
      <point x="520" y="187"/>
      <point x="520" y="222" type="curve" smooth="yes"/>
      <point x="520" y="263"/>
      <point x="501" y="306"/>
      <point x="454" y="336" type="curve" smooth="yes"/>
      <point x="445" y="342"/>
      <point x="434" y="348"/>
      <point x="423" y="353" type="curve" smooth="yes"/>
      <point x="393" y="366"/>
      <point x="303" y="407"/>
      <point x="258" y="426" type="curve"/>
      <point x="252" y="421"/>
      <point x="246" y="416"/>
      <point x="242" y="411" type="curve" smooth="yes"/>
      <point x="223" y="389"/>
      <point x="213" y="361"/>
      <point x="213" y="331" type="curve" smooth="yes"/>
      <point x="213" y="281"/>
      <point x="242" y="229"/>
      <point x="308" y="203" type="curve" smooth="yes"/>
      <point x="351" y="186"/>
      <point x="440" y="146"/>
      <point x="470" y="134" type="curve" smooth="yes"/>
      <point x="474" y="132"/>
      <point x="479" y="130"/>
    </contour>
  </outline>
</glyph>
<glyph name="copyright" format="1">
  <advance width="1020"/>
  <unicode hex="00A9"/>
  <outline>
    <contour>
      <point x="865" y="604" type="curve"/>
      <point x="914" y="556"/>
      <point x="937" y="483"/>
      <point x="937" y="403" type="curve" smooth="yes"/>
      <point x="937" y="374"/>
      <point x="934" y="344"/>
      <point x="928" y="314" type="curve" smooth="yes"/>
      <point x="894" y="153"/>
      <point x="761" y="-27"/>
      <point x="504" y="-27" type="curve" smooth="yes"/>
      <point x="250" y="-27"/>
      <point x="83" y="169"/>
      <point x="83" y="376" type="curve" smooth="yes"/>
      <point x="83" y="416"/>
      <point x="86" y="454"/>
      <point x="94" y="490" type="curve" smooth="yes"/>
      <point x="135" y="684"/>
      <point x="288" y="827"/>
      <point x="505" y="827" type="curve" smooth="yes"/>
      <point x="742" y="827"/>
      <point x="837" y="695"/>
      <point x="870" y="628" type="curve" smooth="yes"/>
      <point x="871" y="626"/>
      <point x="872" y="623"/>
      <point x="872" y="621" type="curve" smooth="yes"/>
      <point x="872" y="616"/>
      <point x="869" y="609"/>
    </contour>
    <contour>
      <point x="805" y="598" type="curve" smooth="yes"/>
      <point x="803" y="600"/>
      <point x="801" y="602"/>
      <point x="800" y="604" type="curve" smooth="yes"/>
      <point x="769" y="665"/>
      <point x="688" y="773"/>
      <point x="493" y="773" type="curve" smooth="yes"/>
      <point x="335" y="773"/>
      <point x="206" y="672"/>
      <point x="168" y="490" type="curve" smooth="yes"/>
      <point x="161" y="457"/>
      <point x="157" y="421"/>
      <point x="157" y="384" type="curve" smooth="yes"/>
      <point x="157" y="191"/>
      <point x="316" y="27"/>
      <point x="516" y="27" type="curve" smooth="yes"/>
      <point x="709" y="27"/>
      <point x="823" y="160"/>
      <point x="855" y="314" type="curve" smooth="yes"/>
      <point x="860" y="341"/>
      <point x="863" y="367"/>
      <point x="863" y="393" type="curve" smooth="yes"/>
      <point x="863" y="466"/>
      <point x="842" y="531"/>
      <point x="804" y="568" type="curve" smooth="yes"/>
      <point x="800" y="572"/>
      <point x="798" y="576"/>
      <point x="798" y="581" type="curve" smooth="yes"/>
      <point x="798" y="587"/>
      <point x="801" y="593"/>
    </contour>
    <contour>
      <point x="646" y="292" type="curve" smooth="yes"/>
      <point x="662" y="288"/>
      <point x="671" y="278"/>
      <point x="671" y="266" type="curve" smooth="yes"/>
      <point x="671" y="261"/>
      <point x="670" y="257"/>
      <point x="667" y="252" type="curve" smooth="yes"/>
      <point x="641" y="208"/>
      <point x="586" y="177"/>
      <point x="526" y="171" type="curve" smooth="yes"/>
      <point x="518" y="170"/>
      <point x="510" y="170"/>
      <point x="502" y="170" type="curve" smooth="yes"/>
      <point x="399" y="170"/>
      <point x="315" y="242"/>
      <point x="315" y="383" type="curve" smooth="yes"/>
      <point x="315" y="517"/>
      <point x="397" y="601"/>
      <point x="501" y="612" type="curve" smooth="yes"/>
      <point x="508" y="613"/>
      <point x="516" y="613"/>
      <point x="523" y="613" type="curve" smooth="yes"/>
      <point x="597" y="613"/>
      <point x="655" y="572"/>
      <point x="655" y="509" type="curve" smooth="yes"/>
      <point x="655" y="492"/>
      <point x="634" y="475"/>
      <point x="610" y="472" type="curve" smooth="yes"/>
      <point x="603" y="472" type="line" smooth="yes"/>
      <point x="582" y="472"/>
      <point x="565" y="484"/>
      <point x="565" y="499" type="curve" smooth="yes"/>
      <point x="565" y="534"/>
      <point x="536" y="549"/>
      <point x="508" y="549" type="curve" smooth="yes"/>
      <point x="501" y="549" type="line" smooth="yes"/>
      <point x="471" y="546"/>
      <point x="405" y="515"/>
      <point x="405" y="393" type="curve" smooth="yes"/>
      <point x="405" y="263"/>
      <point x="475" y="234"/>
      <point x="518" y="234" type="curve" smooth="yes"/>
      <point x="526" y="234" type="line" smooth="yes"/>
      <point x="551" y="237"/>
      <point x="575" y="250"/>
      <point x="587" y="270" type="curve" smooth="yes"/>
      <point x="595" y="284"/>
      <point x="615" y="293"/>
      <point x="634" y="293" type="curve" smooth="yes"/>
      <point x="638" y="293"/>
      <point x="642" y="293"/>
    </contour>
  </outline>
</glyph>
<glyph name="ordfeminine" format="1">
  <advance width="360"/>
  <unicode hex="00AA"/>
  <outline>
    <contour>
      <point x="66" y="560" type="curve" smooth="yes"/>
      <point x="70" y="571"/>
      <point x="90" y="581"/>
      <point x="108" y="581" type="curve" smooth="yes"/>
      <point x="135" y="581"/>
      <point x="158" y="581"/>
      <point x="180" y="581" type="curve" smooth="yes"/>
      <point x="213" y="581"/>
      <point x="241" y="581"/>
      <point x="275" y="583" type="curve" smooth="yes"/>
      <point x="276" y="583"/>
      <point x="277" y="583"/>
      <point x="278" y="583" type="curve" smooth="yes"/>
      <point x="294" y="583"/>
      <point x="304" y="576"/>
      <point x="304" y="567" type="curve" smooth="yes"/>
      <point x="304" y="566"/>
      <point x="304" y="565"/>
      <point x="304" y="564" type="curve" smooth="yes"/>
      <point x="301" y="553"/>
      <point x="284" y="542"/>
      <point x="265" y="541" type="curve" smooth="yes"/>
      <point x="229" y="539"/>
      <point x="198" y="539"/>
      <point x="164" y="539" type="curve" smooth="yes"/>
      <point x="142" y="539"/>
      <point x="118" y="539"/>
      <point x="92" y="539" type="curve" smooth="yes"/>
      <point x="76" y="539"/>
      <point x="65" y="547"/>
      <point x="65" y="556" type="curve" smooth="yes"/>
      <point x="65" y="557"/>
      <point x="65" y="559"/>
    </contour>
    <contour>
      <point x="271" y="788" type="curve" smooth="yes"/>
      <point x="284" y="704"/>
      <point x="290" y="677"/>
      <point x="305" y="674" type="curve" smooth="yes"/>
      <point x="314" y="671"/>
      <point x="319" y="666"/>
      <point x="319" y="659" type="curve" smooth="yes"/>
      <point x="319" y="655"/>
      <point x="318" y="652"/>
      <point x="314" y="648" type="curve" smooth="yes"/>
      <point x="306" y="639"/>
      <point x="294" y="633"/>
      <point x="282" y="633" type="curve" smooth="yes"/>
      <point x="278" y="633"/>
      <point x="275" y="634"/>
      <point x="271" y="635" type="curve" smooth="yes"/>
      <point x="252" y="641"/>
      <point x="244" y="657"/>
      <point x="236" y="698" type="curve"/>
      <point x="228" y="675"/>
      <point x="214" y="646"/>
      <point x="184" y="635" type="curve" smooth="yes"/>
      <point x="172" y="631"/>
      <point x="161" y="630"/>
      <point x="149" y="630" type="curve" smooth="yes"/>
      <point x="74" y="630"/>
      <point x="49" y="679"/>
      <point x="49" y="731" type="curve" smooth="yes"/>
      <point x="49" y="756"/>
      <point x="55" y="780"/>
      <point x="63" y="801" type="curve" smooth="yes"/>
      <point x="79" y="842"/>
      <point x="119" y="900"/>
      <point x="201" y="900" type="curve" smooth="yes"/>
      <point x="263" y="900"/>
      <point x="268" y="845"/>
      <point x="268" y="837" type="curve" smooth="yes"/>
      <point x="268" y="826"/>
      <point x="256" y="815"/>
      <point x="237" y="812" type="curve" smooth="yes"/>
      <point x="234" y="812"/>
      <point x="232" y="811"/>
      <point x="229" y="811" type="curve" smooth="yes"/>
      <point x="215" y="811"/>
      <point x="206" y="818"/>
      <point x="206" y="827" type="curve" smooth="yes"/>
      <point x="206" y="835"/>
      <point x="195" y="857"/>
      <point x="185" y="858" type="curve" smooth="yes"/>
      <point x="174" y="858"/>
      <point x="146" y="844"/>
      <point x="129" y="798" type="curve" smooth="yes"/>
      <point x="122" y="778"/>
      <point x="118" y="758"/>
      <point x="118" y="741" type="curve" smooth="yes"/>
      <point x="118" y="700"/>
      <point x="137" y="672"/>
      <point x="165" y="672" type="curve" smooth="yes"/>
      <point x="166" y="672"/>
      <point x="167" y="672"/>
      <point x="167" y="672" type="curve"/>
      <point x="183" y="676"/>
      <point x="205" y="727"/>
      <point x="208" y="777" type="curve" smooth="yes"/>
      <point x="209" y="785"/>
      <point x="216" y="796"/>
      <point x="226" y="798" type="curve" smooth="yes"/>
      <point x="229" y="798"/>
      <point x="232" y="799"/>
      <point x="235" y="799" type="curve" smooth="yes"/>
      <point x="255" y="799"/>
      <point x="271" y="788"/>
    </contour>
  </outline>
</glyph>
<glyph name="logicalnot" format="1">
  <advance width="600"/>
  <unicode hex="00AC"/>
  <outline>
    <contour>
      <point x="444" y="175" type="curve" smooth="yes"/>
      <point x="443" y="175"/>
      <point x="441" y="175"/>
      <point x="440" y="175" type="curve" smooth="yes"/>
      <point x="418" y="175"/>
      <point x="399" y="189"/>
      <point x="399" y="207" type="curve" smooth="yes"/>
      <point x="400" y="303" type="line"/>
      <point x="368" y="302"/>
      <point x="337" y="302"/>
      <point x="308" y="302" type="curve" smooth="yes"/>
      <point x="226" y="302"/>
      <point x="156" y="305"/>
      <point x="95" y="310" type="curve" smooth="yes"/>
      <point x="74" y="312"/>
      <point x="60" y="326"/>
      <point x="60" y="342" type="curve" smooth="yes"/>
      <point x="60" y="344"/>
      <point x="60" y="347"/>
      <point x="61" y="349" type="curve" smooth="yes"/>
      <point x="66" y="367"/>
      <point x="87" y="380"/>
      <point x="110" y="380" type="curve" smooth="yes"/>
      <point x="112" y="380"/>
      <point x="113" y="380"/>
      <point x="115" y="380" type="curve" smooth="yes"/>
      <point x="169" y="375"/>
      <point x="233" y="372"/>
      <point x="308" y="372" type="curve" smooth="yes"/>
      <point x="351" y="372"/>
      <point x="398" y="373"/>
      <point x="448" y="375" type="curve" smooth="yes"/>
      <point x="449" y="375"/>
      <point x="449" y="375"/>
      <point x="450" y="375" type="curve" smooth="yes"/>
      <point x="470" y="375"/>
      <point x="490" y="361"/>
      <point x="490" y="343" type="curve" smooth="yes"/>
      <point x="489" y="213" type="line" smooth="yes"/>
      <point x="489" y="194"/>
      <point x="468" y="177"/>
    </contour>
  </outline>
</glyph>
<glyph name="uni00AD" format="1">
  <advance width="540"/>
  <unicode hex="00AD"/>
  <outline>
    <contour>
      <point x="459" y="342" type="curve" smooth="yes"/>
      <point x="457" y="323"/>
      <point x="433" y="305"/>
      <point x="406" y="304" type="curve" smooth="yes"/>
      <point x="365" y="302"/>
      <point x="326" y="301"/>
      <point x="289" y="301" type="curve" smooth="yes"/>
      <point x="222" y="301"/>
      <point x="163" y="304"/>
      <point x="115" y="310" type="curve" smooth="yes"/>
      <point x="94" y="312"/>
      <point x="81" y="324"/>
      <point x="81" y="339" type="curve" smooth="yes"/>
      <point x="81" y="342"/>
      <point x="81" y="346"/>
      <point x="83" y="350" type="curve" smooth="yes"/>
      <point x="90" y="367"/>
      <point x="114" y="380"/>
      <point x="138" y="380" type="curve" smooth="yes"/>
      <point x="140" y="380"/>
      <point x="143" y="380"/>
      <point x="145" y="380" type="curve" smooth="yes"/>
      <point x="185" y="376"/>
      <point x="238" y="373"/>
      <point x="298" y="373" type="curve" smooth="yes"/>
      <point x="334" y="373"/>
      <point x="373" y="374"/>
      <point x="414" y="376" type="curve" smooth="yes"/>
      <point x="415" y="376"/>
      <point x="415" y="376"/>
      <point x="416" y="376" type="curve" smooth="yes"/>
      <point x="441" y="376"/>
      <point x="459" y="362"/>
      <point x="459" y="345" type="curve" smooth="yes"/>
      <point x="459" y="344"/>
      <point x="459" y="343"/>
    </contour>
  </outline>
</glyph>
<glyph name="registered" format="1">
  <advance width="810"/>
  <unicode hex="00AE"/>
  <outline>
    <contour>
      <point x="682" y="794" type="curve"/>
      <point x="719" y="758"/>
      <point x="737" y="703"/>
      <point x="737" y="644" type="curve" smooth="yes"/>
      <point x="737" y="623"/>
      <point x="734" y="601"/>
      <point x="730" y="579" type="curve" smooth="yes"/>
      <point x="705" y="457"/>
      <point x="605" y="319"/>
      <point x="409" y="319" type="curve" smooth="yes"/>
      <point x="217" y="319"/>
      <point x="90" y="466"/>
      <point x="90" y="622" type="curve" smooth="yes"/>
      <point x="90" y="651"/>
      <point x="93" y="678"/>
      <point x="98" y="704" type="curve" smooth="yes"/>
      <point x="128" y="852"/>
      <point x="244" y="961"/>
      <point x="409" y="961" type="curve" smooth="yes"/>
      <point x="588" y="961"/>
      <point x="660" y="862"/>
      <point x="685" y="812" type="curve" smooth="yes"/>
      <point x="686" y="810"/>
      <point x="686" y="808"/>
      <point x="686" y="806" type="curve" smooth="yes"/>
      <point x="686" y="802"/>
      <point x="685" y="798"/>
    </contour>
    <contour>
      <point x="632" y="788" type="curve" smooth="yes"/>
      <point x="631" y="789"/>
      <point x="630" y="791"/>
      <point x="629" y="792" type="curve" smooth="yes"/>
      <point x="606" y="838"/>
      <point x="546" y="919"/>
      <point x="401" y="919" type="curve" smooth="yes"/>
      <point x="283" y="919"/>
      <point x="185" y="842"/>
      <point x="157" y="704" type="curve" smooth="yes"/>
      <point x="152" y="680"/>
      <point x="150" y="655"/>
      <point x="150" y="628" type="curve" smooth="yes"/>
      <point x="150" y="484"/>
      <point x="269" y="361"/>
      <point x="417" y="361" type="curve" smooth="yes"/>
      <point x="562" y="361"/>
      <point x="648" y="463"/>
      <point x="671" y="579" type="curve" smooth="yes"/>
      <point x="675" y="598"/>
      <point x="677" y="617"/>
      <point x="677" y="635" type="curve" smooth="yes"/>
      <point x="677" y="690"/>
      <point x="660" y="739"/>
      <point x="632" y="766" type="curve" smooth="yes"/>
      <point x="629" y="769"/>
      <point x="628" y="772"/>
      <point x="628" y="776" type="curve" smooth="yes"/>
      <point x="628" y="780"/>
      <point x="629" y="784"/>
    </contour>
    <contour>
      <point x="337" y="469" type="curve" smooth="yes"/>
      <point x="332" y="469" type="line" smooth="yes"/>
      <point x="315" y="469"/>
      <point x="301" y="479"/>
      <point x="301" y="491" type="curve" smooth="yes"/>
      <point x="301" y="492" type="line" smooth="yes"/>
      <point x="302" y="524"/>
      <point x="303" y="559"/>
      <point x="303" y="592" type="curve" smooth="yes"/>
      <point x="303" y="639"/>
      <point x="302" y="683"/>
      <point x="298" y="710" type="curve"/>
      <point x="298" y="713" type="line" smooth="yes"/>
      <point x="298" y="718"/>
      <point x="300" y="722"/>
      <point x="303" y="726" type="curve"/>
      <point x="300" y="726"/>
      <point x="298" y="725"/>
      <point x="296" y="725" type="curve" smooth="yes"/>
      <point x="284" y="725"/>
      <point x="273" y="730"/>
      <point x="267" y="737" type="curve" smooth="yes"/>
      <point x="264" y="740"/>
      <point x="263" y="744"/>
      <point x="263" y="748" type="curve" smooth="yes"/>
      <point x="263" y="758"/>
      <point x="271" y="768"/>
      <point x="284" y="774" type="curve" smooth="yes"/>
      <point x="338" y="798"/>
      <point x="386" y="809"/>
      <point x="426" y="809" type="curve" smooth="yes"/>
      <point x="478" y="809"/>
      <point x="516" y="792"/>
      <point x="537" y="764" type="curve" smooth="yes"/>
      <point x="548" y="749"/>
      <point x="554" y="730"/>
      <point x="554" y="711" type="curve" smooth="yes"/>
      <point x="554" y="676"/>
      <point x="533" y="638"/>
      <point x="486" y="617" type="curve" smooth="yes"/>
      <point x="475" y="612"/>
      <point x="462" y="609"/>
      <point x="448" y="606" type="curve"/>
      <point x="482" y="574"/>
      <point x="532" y="533"/>
      <point x="558" y="513" type="curve" smooth="yes"/>
      <point x="564" y="509"/>
      <point x="567" y="503"/>
      <point x="567" y="497" type="curve" smooth="yes"/>
      <point x="567" y="489"/>
      <point x="562" y="481"/>
      <point x="554" y="475" type="curve" smooth="yes"/>
      <point x="546" y="469"/>
      <point x="535" y="466"/>
      <point x="525" y="466" type="curve" smooth="yes"/>
      <point x="516" y="466"/>
      <point x="508" y="468"/>
      <point x="502" y="473" type="curve" smooth="yes"/>
      <point x="466" y="499"/>
      <point x="410" y="555"/>
      <point x="373" y="592" type="curve"/>
      <point x="373" y="561"/>
      <point x="373" y="528"/>
      <point x="372" y="498" type="curve" smooth="yes"/>
      <point x="371" y="484"/>
      <point x="357" y="471"/>
    </contour>
    <contour>
      <point x="345" y="742" type="curve"/>
      <point x="358" y="740"/>
      <point x="365" y="733"/>
      <point x="367" y="722" type="curve" smooth="yes"/>
      <point x="369" y="706"/>
      <point x="370" y="687"/>
      <point x="371" y="664" type="curve" smooth="yes"/>
      <point x="375" y="664"/>
      <point x="380" y="663"/>
      <point x="385" y="661" type="curve" smooth="yes"/>
      <point x="401" y="655"/>
      <point x="414" y="654"/>
      <point x="424" y="654" type="curve" smooth="yes"/>
      <point x="438" y="654"/>
      <point x="448" y="657"/>
      <point x="455" y="660" type="curve" smooth="yes"/>
      <point x="469" y="665"/>
      <point x="480" y="684"/>
      <point x="480" y="704" type="curve" smooth="yes"/>
      <point x="480" y="714"/>
      <point x="477" y="724"/>
      <point x="470" y="734" type="curve" smooth="yes"/>
      <point x="461" y="746"/>
      <point x="444" y="757"/>
      <point x="415" y="757" type="curve" smooth="yes"/>
      <point x="397" y="757"/>
      <point x="374" y="753"/>
    </contour>
  </outline>
</glyph>
<glyph name="macron" format="1">
  <advance width="510"/>
  <unicode hex="00AF"/>
  <outline>
    <contour>
      <point x="464" y="812" type="curve" smooth="yes"/>
      <point x="461" y="793"/>
      <point x="437" y="775"/>
      <point x="410" y="774" type="curve" smooth="yes"/>
      <point x="358" y="772"/>
      <point x="313" y="771"/>
      <point x="271" y="771" type="curve" smooth="yes"/>
      <point x="199" y="771"/>
      <point x="140" y="774"/>
      <point x="82" y="779" type="curve" smooth="yes"/>
      <point x="60" y="781"/>
      <point x="45" y="794"/>
      <point x="45" y="810" type="curve" smooth="yes"/>
      <point x="45" y="813"/>
      <point x="46" y="816"/>
      <point x="47" y="819" type="curve" smooth="yes"/>
      <point x="54" y="837"/>
      <point x="78" y="851"/>
      <point x="103" y="851" type="curve" smooth="yes"/>
      <point x="105" y="851"/>
      <point x="106" y="851"/>
      <point x="108" y="851" type="curve" smooth="yes"/>
      <point x="162" y="846"/>
      <point x="217" y="843"/>
      <point x="286" y="843" type="curve" smooth="yes"/>
      <point x="326" y="843"/>
      <point x="370" y="844"/>
      <point x="420" y="846" type="curve" smooth="yes"/>
      <point x="421" y="846"/>
      <point x="421" y="846"/>
      <point x="422" y="846" type="curve" smooth="yes"/>
      <point x="446" y="846"/>
      <point x="464" y="833"/>
      <point x="464" y="816" type="curve" smooth="yes"/>
      <point x="464" y="815"/>
      <point x="464" y="813"/>
    </contour>
  </outline>
</glyph>
<glyph name="degree" format="1">
  <advance width="330"/>
  <unicode hex="00B0"/>
  <outline>
    <contour>
      <point x="188" y="884" type="curve" smooth="yes"/>
      <point x="182" y="882"/>
      <point x="175" y="880"/>
      <point x="169" y="880" type="curve" smooth="yes"/>
      <point x="149" y="880"/>
      <point x="127" y="866"/>
      <point x="120" y="827" type="curve" smooth="yes"/>
      <point x="119" y="821"/>
      <point x="119" y="815"/>
      <point x="119" y="808" type="curve" smooth="yes"/>
      <point x="119" y="761"/>
      <point x="161" y="740"/>
      <point x="179" y="740" type="curve" smooth="yes"/>
      <point x="207" y="740"/>
      <point x="234" y="755"/>
      <point x="240" y="785" type="curve" smooth="yes"/>
      <point x="241" y="788"/>
      <point x="241" y="791"/>
      <point x="241" y="794" type="curve" smooth="yes"/>
      <point x="241" y="839"/>
      <point x="229" y="868"/>
      <point x="191" y="883" type="curve" smooth="yes"/>
      <point x="190" y="883"/>
      <point x="189" y="884"/>
    </contour>
    <contour>
      <point x="196" y="928" type="curve"/>
      <point x="202" y="930"/>
      <point x="209" y="932"/>
      <point x="215" y="932" type="curve" smooth="yes"/>
      <point x="220" y="932"/>
      <point x="225" y="931"/>
      <point x="229" y="929" type="curve" smooth="yes"/>
      <point x="295" y="904"/>
      <point x="311" y="853"/>
      <point x="311" y="802" type="curve" smooth="yes"/>
      <point x="311" y="796"/>
      <point x="310" y="791"/>
      <point x="309" y="785" type="curve" smooth="yes"/>
      <point x="299" y="730"/>
      <point x="236" y="688"/>
      <point x="169" y="688" type="curve" smooth="yes"/>
      <point x="105" y="688"/>
      <point x="49" y="735"/>
      <point x="49" y="800" type="curve" smooth="yes"/>
      <point x="49" y="809"/>
      <point x="50" y="818"/>
      <point x="52" y="827" type="curve" smooth="yes"/>
      <point x="61" y="873"/>
      <point x="99" y="932"/>
      <point x="179" y="932" type="curve" smooth="yes"/>
      <point x="185" y="932"/>
      <point x="191" y="930"/>
    </contour>
  </outline>
</glyph>
<glyph name="plusminus" format="1">
  <advance width="600"/>
  <unicode hex="00B1"/>
  <outline>
    <contour>
      <point x="520" y="432" type="line" smooth="yes"/>
      <point x="519" y="413"/>
      <point x="496" y="396"/>
      <point x="472" y="395" type="curve" smooth="yes"/>
      <point x="429" y="393"/>
      <point x="387" y="392"/>
      <point x="348" y="392" type="curve"/>
      <point x="349" y="367"/>
      <point x="349" y="339"/>
      <point x="350" y="304" type="curve" smooth="yes"/>
      <point x="350" y="285"/>
      <point x="330" y="267"/>
      <point x="306" y="265" type="curve" smooth="yes"/>
      <point x="304" y="265"/>
      <point x="303" y="265"/>
      <point x="301" y="265" type="curve" smooth="yes"/>
      <point x="279" y="265"/>
      <point x="260" y="278"/>
      <point x="260" y="296" type="curve" smooth="yes"/>
      <point x="259" y="335"/>
      <point x="259" y="366"/>
      <point x="258" y="393" type="curve"/>
      <point x="205" y="394"/>
      <point x="157" y="396"/>
      <point x="115" y="400" type="curve" smooth="yes"/>
      <point x="94" y="402"/>
      <point x="80" y="416"/>
      <point x="80" y="432" type="curve" smooth="yes"/>
      <point x="80" y="434"/>
      <point x="80" y="437"/>
      <point x="81" y="439" type="curve" smooth="yes"/>
      <point x="86" y="457"/>
      <point x="107" y="470"/>
      <point x="130" y="470" type="curve" smooth="yes"/>
      <point x="132" y="470"/>
      <point x="133" y="470"/>
      <point x="135" y="470" type="curve" smooth="yes"/>
      <point x="169" y="467"/>
      <point x="210" y="464"/>
      <point x="256" y="463" type="curve"/>
      <point x="255" y="492"/>
      <point x="253" y="520"/>
      <point x="250" y="554" type="curve" smooth="yes"/>
      <point x="250" y="555"/>
      <point x="250" y="556"/>
      <point x="250" y="557" type="curve" smooth="yes"/>
      <point x="250" y="575"/>
      <point x="269" y="592"/>
      <point x="292" y="595" type="curve" smooth="yes"/>
      <point x="294" y="595"/>
      <point x="297" y="595"/>
      <point x="299" y="595" type="curve" smooth="yes"/>
      <point x="320" y="595"/>
      <point x="338" y="583"/>
      <point x="340" y="566" type="curve" smooth="yes"/>
      <point x="343" y="527"/>
      <point x="345" y="495"/>
      <point x="346" y="462" type="curve"/>
      <point x="388" y="462"/>
      <point x="432" y="463"/>
      <point x="478" y="465" type="curve" smooth="yes"/>
      <point x="479" y="465"/>
      <point x="479" y="465"/>
      <point x="480" y="465" type="curve" smooth="yes"/>
      <point x="502" y="465"/>
      <point x="520" y="451"/>
      <point x="520" y="433" type="curve" smooth="yes"/>
    </contour>
    <contour>
      <point x="520" y="177" type="line" smooth="yes"/>
      <point x="519" y="158"/>
      <point x="496" y="141"/>
      <point x="472" y="140" type="curve" smooth="yes"/>
      <point x="420" y="138"/>
      <point x="370" y="137"/>
      <point x="324" y="137" type="curve" smooth="yes"/>
      <point x="244" y="137"/>
      <point x="173" y="140"/>
      <point x="115" y="145" type="curve" smooth="yes"/>
      <point x="94" y="147"/>
      <point x="80" y="161"/>
      <point x="80" y="177" type="curve" smooth="yes"/>
      <point x="80" y="179"/>
      <point x="80" y="182"/>
      <point x="81" y="184" type="curve" smooth="yes"/>
      <point x="86" y="202"/>
      <point x="107" y="215"/>
      <point x="130" y="215" type="curve" smooth="yes"/>
      <point x="132" y="215"/>
      <point x="133" y="215"/>
      <point x="135" y="215" type="curve" smooth="yes"/>
      <point x="188" y="210"/>
      <point x="256" y="207"/>
      <point x="334" y="207" type="curve" smooth="yes"/>
      <point x="379" y="207"/>
      <point x="428" y="208"/>
      <point x="478" y="210" type="curve" smooth="yes"/>
      <point x="479" y="210"/>
      <point x="479" y="210"/>
      <point x="480" y="210" type="curve" smooth="yes"/>
      <point x="502" y="210"/>
      <point x="520" y="196"/>
      <point x="520" y="178" type="curve" smooth="yes"/>
    </contour>
  </outline>
</glyph>
<glyph name="acute" format="1">
  <advance width="360"/>
  <unicode hex="00B4"/>
  <outline>
    <contour>
      <point x="332" y="770" type="curve" smooth="yes"/>
      <point x="246" y="676"/>
      <point x="116" y="564"/>
      <point x="87" y="547" type="curve" smooth="yes"/>
      <point x="87" y="547"/>
      <point x="68" y="541"/>
      <point x="51" y="541" type="curve" smooth="yes"/>
      <point x="37" y="541"/>
      <point x="23" y="545"/>
      <point x="23" y="559" type="curve" smooth="yes"/>
      <point x="23" y="564"/>
      <point x="25" y="570"/>
      <point x="28" y="577" type="curve" smooth="yes"/>
      <point x="42" y="608"/>
      <point x="161" y="729"/>
      <point x="241" y="829" type="curve" smooth="yes"/>
      <point x="241" y="829"/>
      <point x="256" y="851"/>
      <point x="277" y="851" type="curve" smooth="yes"/>
      <point x="286" y="851"/>
      <point x="297" y="847"/>
      <point x="308" y="834" type="curve" smooth="yes"/>
      <point x="334" y="804" type="line" smooth="yes"/>
      <point x="338" y="800"/>
      <point x="340" y="794"/>
      <point x="340" y="789" type="curve" smooth="yes"/>
      <point x="340" y="782"/>
      <point x="337" y="776"/>
    </contour>
  </outline>
</glyph>
<glyph name="uni00B5" format="1">
  <advance width="680"/>
  <unicode hex="00B5"/>
  <outline>
    <contour>
      <point x="127" y="610" type="curve" smooth="yes"/>
      <point x="131" y="611"/>
      <point x="134" y="611"/>
      <point x="137" y="611" type="curve" smooth="yes"/>
      <point x="159" y="611"/>
      <point x="177" y="600"/>
      <point x="179" y="583" type="curve" smooth="yes"/>
      <point x="183" y="534"/>
      <point x="185" y="470"/>
      <point x="185" y="382" type="curve" smooth="yes"/>
      <point x="185" y="327"/>
      <point x="184" y="263"/>
      <point x="183" y="188" type="curve"/>
      <point x="197" y="90"/>
      <point x="244" y="51"/>
      <point x="297" y="51" type="curve" smooth="yes"/>
      <point x="365" y="51"/>
      <point x="416" y="109"/>
      <point x="443" y="245" type="curve" smooth="yes"/>
      <point x="463" y="346"/>
      <point x="467" y="468"/>
      <point x="471" y="571" type="curve" smooth="yes"/>
      <point x="472" y="590"/>
      <point x="493" y="611"/>
      <point x="516" y="611" type="curve" smooth="yes"/>
      <point x="538" y="611"/>
      <point x="564" y="592"/>
      <point x="564" y="592" type="curve"/>
      <point x="569" y="201"/>
      <point x="600" y="89"/>
      <point x="650" y="45" type="curve" smooth="yes"/>
      <point x="656" y="39"/>
      <point x="659" y="33"/>
      <point x="659" y="26" type="curve" smooth="yes"/>
      <point x="659" y="15"/>
      <point x="652" y="3"/>
      <point x="639" y="-5" type="curve" smooth="yes"/>
      <point x="628" y="-12"/>
      <point x="613" y="-16"/>
      <point x="600" y="-16" type="curve" smooth="yes"/>
      <point x="588" y="-16"/>
      <point x="577" y="-13"/>
      <point x="570" y="-5" type="curve" smooth="yes"/>
      <point x="539" y="30"/>
      <point x="517" y="83"/>
      <point x="503" y="173" type="curve"/>
      <point x="472" y="74"/>
      <point x="414" y="-21"/>
      <point x="298" y="-21" type="curve" smooth="yes"/>
      <point x="251" y="-21"/>
      <point x="211" y="-3"/>
      <point x="181" y="29" type="curve"/>
      <point x="180" y="-41"/>
      <point x="180" y="-119"/>
      <point x="179" y="-205" type="curve" smooth="yes"/>
      <point x="179" y="-224"/>
      <point x="157" y="-242"/>
      <point x="130" y="-245" type="curve" smooth="yes"/>
      <point x="128" y="-245"/>
      <point x="125" y="-245"/>
      <point x="123" y="-245" type="curve" smooth="yes"/>
      <point x="99" y="-245"/>
      <point x="81" y="-232"/>
      <point x="81" y="-215" type="curve" smooth="yes"/>
      <point x="83" y="51"/>
      <point x="87" y="238"/>
      <point x="87" y="370" type="curve" smooth="yes"/>
      <point x="87" y="457"/>
      <point x="85" y="521"/>
      <point x="81" y="567" type="curve" smooth="yes"/>
      <point x="81" y="568"/>
      <point x="81" y="569"/>
      <point x="81" y="570" type="curve" smooth="yes"/>
      <point x="81" y="588"/>
      <point x="101" y="606"/>
    </contour>
  </outline>
</glyph>
<glyph name="paragraph" format="1">
  <advance width="720"/>
  <unicode hex="00B6"/>
  <outline>
    <contour>
      <point x="621" y="-245" type="curve" smooth="yes"/>
      <point x="618" y="-245"/>
      <point x="616" y="-245"/>
      <point x="613" y="-245" type="curve" smooth="yes"/>
      <point x="590" y="-245"/>
      <point x="572" y="-233"/>
      <point x="571" y="-216" type="curve" smooth="yes"/>
      <point x="568" y="-133"/>
      <point x="567" y="114"/>
      <point x="567" y="217" type="curve" smooth="yes"/>
      <point x="567" y="360"/>
      <point x="570" y="627"/>
      <point x="578" y="739" type="curve"/>
      <point x="524" y="739"/>
      <point x="478" y="738"/>
      <point x="437" y="738" type="curve"/>
      <point x="429" y="635"/>
      <point x="425" y="357"/>
      <point x="425" y="212" type="curve" smooth="yes"/>
      <point x="425" y="109"/>
      <point x="426" y="-123"/>
      <point x="429" y="-204" type="curve" smooth="yes"/>
      <point x="429" y="-205" type="line" smooth="yes"/>
      <point x="429" y="-224"/>
      <point x="407" y="-242"/>
      <point x="381" y="-245" type="curve" smooth="yes"/>
      <point x="378" y="-245"/>
      <point x="376" y="-245"/>
      <point x="373" y="-245" type="curve" smooth="yes"/>
      <point x="350" y="-245"/>
      <point x="332" y="-233"/>
      <point x="331" y="-216" type="curve" smooth="yes"/>
      <point x="328" y="-133"/>
      <point x="327" y="99"/>
      <point x="327" y="202" type="curve" smooth="yes"/>
      <point x="327" y="229"/>
      <point x="327" y="261"/>
      <point x="327" y="295" type="curve"/>
      <point x="110" y="304"/>
      <point x="11" y="433"/>
      <point x="11" y="554" type="curve" smooth="yes"/>
      <point x="11" y="666"/>
      <point x="103" y="787"/>
      <point x="288" y="806" type="curve" smooth="yes"/>
      <point x="302" y="807"/>
      <point x="315" y="809"/>
      <point x="330" y="809" type="curve" smooth="yes"/>
      <point x="414" y="810"/>
      <point x="502" y="810"/>
      <point x="637" y="811" type="curve" smooth="yes"/>
      <point x="660" y="811"/>
      <point x="679" y="798"/>
      <point x="679" y="780" type="curve" smooth="yes"/>
      <point x="679" y="779"/>
      <point x="679" y="778"/>
      <point x="679" y="777" type="curve" smooth="yes"/>
      <point x="670" y="703"/>
      <point x="665" y="386"/>
      <point x="665" y="227" type="curve" smooth="yes"/>
      <point x="665" y="124"/>
      <point x="666" y="-123"/>
      <point x="669" y="-204" type="curve" smooth="yes"/>
      <point x="669" y="-205" type="line" smooth="yes"/>
      <point x="669" y="-224"/>
      <point x="647" y="-242"/>
    </contour>
    <contour>
      <point x="339" y="737" type="curve"/>
      <point x="332" y="737"/>
      <point x="325" y="737"/>
      <point x="318" y="737" type="curve" smooth="yes"/>
      <point x="308" y="737"/>
      <point x="297" y="736"/>
      <point x="288" y="735" type="curve" smooth="yes"/>
      <point x="173" y="723"/>
      <point x="109" y="653"/>
      <point x="109" y="564" type="curve" smooth="yes"/>
      <point x="109" y="472"/>
      <point x="180" y="382"/>
      <point x="328" y="368" type="curve"/>
      <point x="329" y="508"/>
      <point x="333" y="664"/>
    </contour>
  </outline>
</glyph>
<glyph name="periodcentered" format="1">
  <advance width="340"/>
  <unicode hex="00B7"/>
  <outline>
    <contour>
      <point x="236" y="402" type="curve" smooth="yes"/>
      <point x="238" y="400"/>
      <point x="254" y="385"/>
      <point x="254" y="361" type="curve" smooth="yes"/>
      <point x="254" y="357"/>
      <point x="254" y="352"/>
      <point x="253" y="348" type="curve" smooth="yes"/>
      <point x="248" y="322"/>
      <point x="215" y="285"/>
      <point x="160" y="285" type="curve" smooth="yes"/>
      <point x="110" y="285"/>
      <point x="86" y="316"/>
      <point x="86" y="346" type="curve" smooth="yes"/>
      <point x="86" y="369"/>
      <point x="108" y="422"/>
      <point x="180" y="422" type="curve" smooth="yes"/>
      <point x="186" y="422"/>
      <point x="192" y="421"/>
      <point x="196" y="420" type="curve" smooth="yes"/>
      <point x="212" y="416" type="line" smooth="yes"/>
      <point x="222" y="413"/>
      <point x="231" y="408"/>
    </contour>
  </outline>
</glyph>
<glyph name="ordmasculine" format="1">
  <advance width="360"/>
  <unicode hex="00BA"/>
  <outline>
    <contour>
      <point x="61" y="560" type="curve" smooth="yes"/>
      <point x="65" y="571"/>
      <point x="85" y="581"/>
      <point x="103" y="581" type="curve" smooth="yes"/>
      <point x="130" y="581"/>
      <point x="153" y="581"/>
      <point x="175" y="581" type="curve" smooth="yes"/>
      <point x="208" y="581"/>
      <point x="236" y="581"/>
      <point x="270" y="583" type="curve" smooth="yes"/>
      <point x="271" y="583"/>
      <point x="272" y="583"/>
      <point x="273" y="583" type="curve" smooth="yes"/>
      <point x="289" y="583"/>
      <point x="299" y="576"/>
      <point x="299" y="567" type="curve" smooth="yes"/>
      <point x="299" y="566"/>
      <point x="299" y="565"/>
      <point x="299" y="564" type="curve" smooth="yes"/>
      <point x="296" y="553"/>
      <point x="279" y="542"/>
      <point x="260" y="541" type="curve" smooth="yes"/>
      <point x="224" y="539"/>
      <point x="193" y="539"/>
      <point x="159" y="539" type="curve" smooth="yes"/>
      <point x="137" y="539"/>
      <point x="113" y="539"/>
      <point x="87" y="539" type="curve" smooth="yes"/>
      <point x="71" y="539"/>
      <point x="60" y="547"/>
      <point x="60" y="556" type="curve" smooth="yes"/>
      <point x="60" y="557"/>
      <point x="60" y="559"/>
    </contour>
    <contour>
      <point x="214" y="831" type="curve"/>
      <point x="205" y="853"/>
      <point x="187" y="858"/>
      <point x="176" y="858" type="curve" smooth="yes"/>
      <point x="173" y="858"/>
      <point x="170" y="857"/>
      <point x="169" y="857" type="curve" smooth="yes"/>
      <point x="160" y="855"/>
      <point x="125" y="834"/>
      <point x="125" y="767" type="curve" smooth="yes"/>
      <point x="125" y="691"/>
      <point x="175" y="671"/>
      <point x="190" y="671" type="curve" smooth="yes"/>
      <point x="191" y="671"/>
      <point x="191" y="671"/>
      <point x="192" y="671" type="curve" smooth="yes"/>
      <point x="197" y="672"/>
      <point x="235" y="688"/>
      <point x="235" y="755" type="curve" smooth="yes"/>
      <point x="235" y="775"/>
      <point x="227" y="799"/>
      <point x="221" y="805" type="curve"/>
      <point x="213" y="808"/>
      <point x="209" y="814"/>
      <point x="209" y="820" type="curve" smooth="yes"/>
      <point x="209" y="824"/>
      <point x="210" y="827"/>
    </contour>
    <contour>
      <point x="281" y="833" type="curve"/>
      <point x="298" y="817"/>
      <point x="303" y="790"/>
      <point x="303" y="765" type="curve" smooth="yes"/>
      <point x="303" y="698"/>
      <point x="268" y="642"/>
      <point x="192" y="631" type="curve" smooth="yes"/>
      <point x="184" y="630"/>
      <point x="177" y="629"/>
      <point x="170" y="629" type="curve" smooth="yes"/>
      <point x="98" y="629"/>
      <point x="57" y="683"/>
      <point x="57" y="757" type="curve" smooth="yes"/>
      <point x="57" y="827"/>
      <point x="90" y="879"/>
      <point x="157" y="896" type="curve" smooth="yes"/>
      <point x="169" y="899"/>
      <point x="181" y="900"/>
      <point x="192" y="900" type="curve" smooth="yes"/>
      <point x="240" y="900"/>
      <point x="273" y="875"/>
      <point x="283" y="844" type="curve" smooth="yes"/>
      <point x="283" y="843"/>
      <point x="283" y="842"/>
      <point x="283" y="841" type="curve" smooth="yes"/>
      <point x="283" y="838"/>
      <point x="282" y="836"/>
    </contour>
  </outline>
</glyph>
<glyph name="questiondown" format="1">
  <advance width="480"/>
  <unicode hex="00BF"/>
  <outline>
    <contour>
      <point x="179" y="489" type="curve" smooth="yes"/>
      <point x="177" y="491"/>
      <point x="161" y="506"/>
      <point x="161" y="530" type="curve" smooth="yes"/>
      <point x="161" y="534"/>
      <point x="161" y="539"/>
      <point x="162" y="543" type="curve" smooth="yes"/>
      <point x="167" y="569"/>
      <point x="200" y="606"/>
      <point x="255" y="606" type="curve" smooth="yes"/>
      <point x="305" y="606"/>
      <point x="329" y="575"/>
      <point x="329" y="545" type="curve" smooth="yes"/>
      <point x="329" y="522"/>
      <point x="307" y="469"/>
      <point x="235" y="469" type="curve" smooth="yes"/>
      <point x="229" y="469"/>
      <point x="223" y="470"/>
      <point x="219" y="471" type="curve" smooth="yes"/>
      <point x="203" y="475" type="line" smooth="yes"/>
      <point x="193" y="478"/>
      <point x="184" y="483"/>
    </contour>
    <contour>
      <point x="251" y="343" type="curve" smooth="yes"/>
      <point x="258" y="345"/>
      <point x="265" y="346"/>
      <point x="271" y="346" type="curve" smooth="yes"/>
      <point x="286" y="346"/>
      <point x="296" y="339"/>
      <point x="302" y="326" type="curve" smooth="yes"/>
      <point x="314" y="298"/>
      <point x="319" y="273"/>
      <point x="319" y="250" type="curve" smooth="yes"/>
      <point x="319" y="109"/>
      <point x="129" y="42"/>
      <point x="129" y="-64" type="curve" smooth="yes"/>
      <point x="129" y="-92"/>
      <point x="136" y="-114"/>
      <point x="146" y="-131" type="curve" smooth="yes"/>
      <point x="168" y="-168"/>
      <point x="209" y="-183"/>
      <point x="250" y="-183" type="curve" smooth="yes"/>
      <point x="272" y="-183"/>
      <point x="293" y="-179"/>
      <point x="312" y="-172" type="curve" smooth="yes"/>
      <point x="343" y="-159"/>
      <point x="372" y="-137"/>
      <point x="372" y="-101" type="curve" smooth="yes"/>
      <point x="372" y="-86"/>
      <point x="366" y="-68"/>
      <point x="354" y="-47" type="curve" smooth="yes"/>
      <point x="352" y="-43"/>
      <point x="350" y="-38"/>
      <point x="350" y="-34" type="curve" smooth="yes"/>
      <point x="350" y="-20"/>
      <point x="362" y="-6"/>
      <point x="381" y="2" type="curve" smooth="yes"/>
      <point x="389" y="5"/>
      <point x="398" y="7"/>
      <point x="406" y="7" type="curve" smooth="yes"/>
      <point x="423" y="7"/>
      <point x="439" y="0"/>
      <point x="446" y="-11" type="curve" smooth="yes"/>
      <point x="462" y="-37"/>
      <point x="469" y="-63"/>
      <point x="469" y="-88" type="curve" smooth="yes"/>
      <point x="469" y="-152"/>
      <point x="420" y="-206"/>
      <point x="349" y="-234" type="curve" smooth="yes"/>
      <point x="314" y="-248"/>
      <point x="275" y="-255"/>
      <point x="237" y="-255" type="curve" smooth="yes"/>
      <point x="162" y="-255"/>
      <point x="90" y="-227"/>
      <point x="54" y="-167" type="curve" smooth="yes"/>
      <point x="39" y="-141"/>
      <point x="31" y="-110"/>
      <point x="31" y="-74" type="curve" smooth="yes"/>
      <point x="31" y="98"/>
      <point x="229" y="135"/>
      <point x="229" y="247" type="curve" smooth="yes"/>
      <point x="229" y="262"/>
      <point x="226" y="278"/>
      <point x="218" y="296" type="curve" smooth="yes"/>
      <point x="217" y="299"/>
      <point x="216" y="303"/>
      <point x="216" y="306" type="curve" smooth="yes"/>
      <point x="216" y="321"/>
      <point x="230" y="336"/>
    </contour>
  </outline>
</glyph>
<glyph name="Atilde" format="1">
  <advance width="810"/>
  <unicode hex="00C3"/>
  <outline>
    <contour>
      <point x="405" y="0" type="move" name="LatinBelow.mark"/>
    </contour>
    <contour>
      <point x="405" y="390" type="move" name="LatinAbove.mark"/>
    </contour>
    <component base="uni0303" xOffset="405" yOffset="180"/>
    <component base="A"/>
  </outline>
</glyph>
<glyph name="Adieresis" format="1">
  <advance width="810"/>
  <unicode hex="00C4"/>
  <outline>
    <contour>
      <point x="405" y="0" type="move" name="LatinBelow.mark"/>
    </contour>
    <contour>
      <point x="405" y="390" type="move" name="LatinAbove.mark"/>
    </contour>
    <component base="uni0308" xOffset="405" yOffset="180"/>
    <component base="A"/>
  </outline>
</glyph>
<glyph name="Aring" format="1">
  <advance width="810"/>
  <unicode hex="00C5"/>
  <outline>
    <contour>
      <point x="405" y="0" type="move" name="LatinBelow.mark"/>
    </contour>
    <contour>
      <point x="405" y="390" type="move" name="LatinAbove.mark"/>
    </contour>
    <component base="uni030A" xOffset="405" yOffset="180"/>
    <component base="A"/>
  </outline>
</glyph>
<glyph name="AE" format="1">
  <advance width="990"/>
  <unicode hex="00C6"/>
  <outline>
    <contour>
      <point x="540" y="0" type="move" name="LatinBelow.mark"/>
    </contour>
    <contour>
      <point x="570" y="180" type="move" name="LatinAbove.mark"/>
    </contour>
    <contour>
      <point x="99" y="342" type="curve" smooth="yes"/>
      <point x="103" y="363"/>
      <point x="129" y="381"/>
      <point x="156" y="381" type="curve" smooth="yes"/>
      <point x="157" y="381"/>
      <point x="157" y="381"/>
      <point x="158" y="381" type="curve" smooth="yes"/>
      <point x="170" y="380"/>
      <point x="182" y="380"/>
      <point x="197" y="380" type="curve"/>
      <point x="295" y="590"/>
      <point x="370" y="778"/>
      <point x="370" y="778" type="curve"/>
      <point x="378" y="797"/>
      <point x="402" y="811"/>
      <point x="426" y="811" type="curve" smooth="yes"/>
      <point x="427" y="811"/>
      <point x="428" y="811"/>
      <point x="429" y="811" type="curve" smooth="yes"/>
      <point x="509" y="807"/>
      <point x="578" y="806"/>
      <point x="635" y="806" type="curve" smooth="yes"/>
      <point x="745" y="806"/>
      <point x="813" y="811"/>
      <point x="850" y="815" type="curve" smooth="yes"/>
      <point x="852" y="815"/>
      <point x="855" y="815"/>
      <point x="857" y="815" type="curve" smooth="yes"/>
      <point x="882" y="815"/>
      <point x="903" y="801"/>
      <point x="904" y="781" type="curve" smooth="yes"/>
      <point x="904" y="780" type="line" smooth="yes"/>
      <point x="904" y="759"/>
      <point x="881" y="738"/>
      <point x="854" y="735" type="curve" smooth="yes"/>
      <point x="810" y="730"/>
      <point x="737" y="725"/>
      <point x="623" y="725" type="curve" smooth="yes"/>
      <point x="600" y="725"/>
      <point x="575" y="726"/>
      <point x="549" y="726" type="curve"/>
      <point x="558" y="707"/>
      <point x="565" y="684"/>
      <point x="567" y="657" type="curve" smooth="yes"/>
      <point x="573" y="577"/>
      <point x="577" y="484"/>
      <point x="579" y="393" type="curve"/>
      <point x="662" y="398"/>
      <point x="735" y="404"/>
      <point x="777" y="410" type="curve" smooth="yes"/>
      <point x="780" y="410"/>
      <point x="783" y="411"/>
      <point x="786" y="411" type="curve" smooth="yes"/>
      <point x="810" y="411"/>
      <point x="830" y="397"/>
      <point x="832" y="377" type="curve" smooth="yes"/>
      <point x="832" y="376"/>
      <point x="832" y="375"/>
      <point x="832" y="374" type="curve" smooth="yes"/>
      <point x="832" y="353"/>
      <point x="810" y="334"/>
      <point x="783" y="330" type="curve" smooth="yes"/>
      <point x="736" y="324"/>
      <point x="662" y="317"/>
      <point x="580" y="312" type="curve"/>
      <point x="581" y="235"/>
      <point x="582" y="162"/>
      <point x="582" y="105" type="curve" smooth="yes"/>
      <point x="582" y="67"/>
      <point x="586" y="56"/>
      <point x="632" y="56" type="curve" smooth="yes"/>
      <point x="673" y="56"/>
      <point x="748" y="65"/>
      <point x="883" y="71" type="curve" smooth="yes"/>
      <point x="884" y="71"/>
      <point x="884" y="71"/>
      <point x="885" y="71" type="curve" smooth="yes"/>
      <point x="911" y="71"/>
      <point x="932" y="54"/>
      <point x="932" y="33" type="curve" smooth="yes"/>
      <point x="932" y="32" type="line" smooth="yes"/>
      <point x="931" y="10"/>
      <point x="905" y="-10"/>
      <point x="877" y="-11" type="curve" smooth="yes"/>
      <point x="789" y="-15"/>
      <point x="708" y="-25"/>
      <point x="643" y="-25" type="curve" smooth="yes"/>
      <point x="542" y="-25"/>
      <point x="478" y="-2"/>
      <point x="478" y="95" type="curve" smooth="yes"/>
      <point x="478" y="154"/>
      <point x="479" y="227"/>
      <point x="480" y="306" type="curve"/>
      <point x="407" y="302"/>
      <point x="331" y="300"/>
      <point x="266" y="299" type="curve"/>
      <point x="217" y="198"/>
      <point x="165" y="95"/>
      <point x="112" y="6" type="curve" smooth="yes"/>
      <point x="103" y="-11"/>
      <point x="80" y="-20"/>
      <point x="59" y="-20" type="curve" smooth="yes"/>
      <point x="53" y="-20"/>
      <point x="47" y="-19"/>
      <point x="42" y="-18" type="curve" smooth="yes"/>
      <point x="24" y="-13"/>
      <point x="13" y="1"/>
      <point x="13" y="16" type="curve" smooth="yes"/>
      <point x="13" y="22"/>
      <point x="15" y="28"/>
      <point x="18" y="34" type="curve" smooth="yes"/>
      <point x="65" y="114"/>
      <point x="113" y="206"/>
      <point x="158" y="298" type="curve"/>
      <point x="152" y="298"/>
      <point x="147" y="299"/>
      <point x="142" y="299" type="curve" smooth="yes"/>
      <point x="117" y="300"/>
      <point x="98" y="316"/>
      <point x="98" y="336" type="curve" smooth="yes"/>
      <point x="98" y="338"/>
      <point x="99" y="340"/>
    </contour>
    <contour>
      <point x="480" y="388" type="curve"/>
      <point x="480" y="477"/>
      <point x="479" y="566"/>
      <point x="473" y="643" type="curve" smooth="yes"/>
      <point x="470" y="674"/>
      <point x="459" y="696"/>
      <point x="449" y="712" type="curve"/>
      <point x="422" y="645"/>
      <point x="369" y="520"/>
      <point x="305" y="381" type="curve"/>
      <point x="360" y="382"/>
      <point x="420" y="385"/>
    </contour>
  </outline>
</glyph>
<glyph name="Ccedilla" format="1">
  <advance width="750"/>
  <unicode hex="00C7"/>
  <outline>
    <contour>
      <point x="405" y="180" type="move" name="LatinAbove.mark"/>
    </contour>
    <contour>
      <point x="684" y="178" type="curve" smooth="yes"/>
      <point x="705" y="174"/>
      <point x="717" y="160"/>
      <point x="717" y="145" type="curve" smooth="yes"/>
      <point x="717" y="140"/>
      <point x="715" y="134"/>
      <point x="712" y="128" type="curve" smooth="yes"/>
      <point x="666" y="53"/>
      <point x="573" y="-1"/>
      <point x="471" y="-16" type="curve"/>
      <point x="437" y="-76" type="line"/>
      <point x="444" y="-75"/>
      <point x="453" y="-75"/>
      <point x="462" y="-75" type="curve" smooth="yes"/>
      <point x="480" y="-75"/>
      <point x="500" y="-77"/>
      <point x="513" y="-82" type="curve" smooth="yes"/>
      <point x="548" y="-96"/>
      <point x="564" y="-122"/>
      <point x="564" y="-150" type="curve" smooth="yes"/>
      <point x="564" y="-173"/>
      <point x="553" y="-197"/>
      <point x="535" y="-215" type="curve" smooth="yes"/>
      <point x="510" y="-240"/>
      <point x="472" y="-255"/>
      <point x="430" y="-255" type="curve" smooth="yes"/>
      <point x="401" y="-255"/>
      <point x="369" y="-248"/>
      <point x="338" y="-232" type="curve" smooth="yes"/>
      <point x="330" y="-228"/>
      <point x="325" y="-221"/>
      <point x="325" y="-214" type="curve" smooth="yes"/>
      <point x="325" y="-208"/>
      <point x="328" y="-202"/>
      <point x="333" y="-197" type="curve" smooth="yes"/>
      <point x="341" y="-189"/>
      <point x="353" y="-185"/>
      <point x="365" y="-185" type="curve" smooth="yes"/>
      <point x="371" y="-185"/>
      <point x="377" y="-186"/>
      <point x="382" y="-188" type="curve" smooth="yes"/>
      <point x="406" y="-200"/>
      <point x="425" y="-204"/>
      <point x="440" y="-204" type="curve" smooth="yes"/>
      <point x="461" y="-204"/>
      <point x="474" y="-196"/>
      <point x="482" y="-188" type="curve" smooth="yes"/>
      <point x="490" y="-180"/>
      <point x="494" y="-170"/>
      <point x="494" y="-160" type="curve" smooth="yes"/>
      <point x="494" y="-147"/>
      <point x="487" y="-135"/>
      <point x="469" y="-126" type="curve" smooth="yes"/>
      <point x="456" y="-120"/>
      <point x="438" y="-115"/>
      <point x="410" y="-115" type="curve" smooth="yes"/>
      <point x="407" y="-115"/>
      <point x="405" y="-115"/>
      <point x="402" y="-115" type="curve" smooth="yes"/>
      <point x="401" y="-115"/>
      <point x="399" y="-115"/>
      <point x="398" y="-115" type="curve" smooth="yes"/>
      <point x="375" y="-115"/>
      <point x="369" y="-106"/>
      <point x="369" y="-98" type="curve" smooth="yes"/>
      <point x="369" y="-91"/>
      <point x="373" y="-85"/>
      <point x="373" y="-84" type="curve" smooth="yes"/>
      <point x="405" y="-20" type="line"/>
      <point x="224" y="-16"/>
      <point x="68" y="113"/>
      <point x="68" y="387" type="curve" smooth="yes"/>
      <point x="68" y="651"/>
      <point x="225" y="799"/>
      <point x="407" y="819" type="curve" smooth="yes"/>
      <point x="420" y="820"/>
      <point x="432" y="821"/>
      <point x="445" y="821" type="curve" smooth="yes"/>
      <point x="576" y="821"/>
      <point x="683" y="747"/>
      <point x="683" y="632" type="curve" smooth="yes"/>
      <point x="683" y="610"/>
      <point x="657" y="589"/>
      <point x="626" y="586" type="curve" smooth="yes"/>
      <point x="618" y="586" type="line" smooth="yes"/>
      <point x="591" y="586"/>
      <point x="569" y="600"/>
      <point x="569" y="620" type="curve" smooth="yes"/>
      <point x="569" y="699"/>
      <point x="501" y="739"/>
      <point x="429" y="739" type="curve" smooth="yes"/>
      <point x="422" y="739"/>
      <point x="414" y="739"/>
      <point x="407" y="738" type="curve" smooth="yes"/>
      <point x="320" y="729"/>
      <point x="182" y="648"/>
      <point x="182" y="399" type="curve" smooth="yes"/>
      <point x="182" y="137"/>
      <point x="325" y="62"/>
      <point x="432" y="62" type="curve" smooth="yes"/>
      <point x="440" y="62"/>
      <point x="449" y="62"/>
      <point x="457" y="63" type="curve" smooth="yes"/>
      <point x="520" y="70"/>
      <point x="578" y="101"/>
      <point x="608" y="150" type="curve" smooth="yes"/>
      <point x="619" y="168"/>
      <point x="645" y="179"/>
      <point x="670" y="179" type="curve" smooth="yes"/>
      <point x="675" y="179"/>
      <point x="679" y="179"/>
    </contour>
  </outline>
</glyph>
<glyph name="Edieresis" format="1">
  <advance width="740"/>
  <unicode hex="00CB"/>
  <outline>
    <contour>
      <point x="400" y="0" type="move" name="LatinBelow.mark"/>
    </contour>
    <contour>
      <point x="370" y="390" type="move" name="LatinAbove.mark"/>
    </contour>
    <component base="uni0308" xOffset="400" yOffset="180"/>
    <component base="E"/>
  </outline>
</glyph>
<glyph name="Igrave" format="1">
  <advance width="480"/>
  <unicode hex="00CC"/>
  <outline>
    <contour>
      <point x="240" y="0" type="move" name="LatinBelow.mark"/>
    </contour>
    <contour>
      <point x="240" y="390" type="move" name="LatinAbove.mark"/>
    </contour>
    <component base="uni0300" xOffset="240" yOffset="180"/>
    <component base="I"/>
  </outline>
</glyph>
